0
SECTION
2
HEADER
999
*** POWERPCB  HEADER ***
9
$EXTMIN
10
-11.9578
20
-1.7408
9
$EXTMAX
10
1.7422
20
17.5641
9
$FILLMODE
70
0
9
$GRIDMODE
70
1
9
$GRIDUNIT
10
25.4
20
25.4
9
$INSBASE
10
-442.087
20
-436.499
9
$LIMCHECK
70
0
9
$PLINEWID
40
0.0254
9
$SNAPMODE
70
1
9
$SNAPUNIT
10
0.0254
20
0.0254
9
$TEXTSIZE
40
2.54
9
$TEXTSTYLE
7
W0$254
9
$USERI1
70
101
9
$USERI2
70
1
9
$USERI5
70
150
9
$VIEWCTR
10
-5.5766266667
20
10.913992
0
ENDSEC
0
SECTION
2
TABLES
999
*** POWERPCB  LTYPE ***
0
TABLE
2
LTYPE
70
38
0
LTYPE
2
CONTINUOUS
70
64
3
---
72
65
73
0
40
0
0
LTYPE
2
TRMIDX_0
70
64
3
---
72
65
73
2
40
2
49
1
49
1
0
LTYPE
2
TRMIDX_1
70
64
3
---
72
65
73
2
40
2
49
1
49
1
0
LTYPE
2
TRMIDX_2
70
64
3
---
72
65
73
2
40
2
49
1
49
1
0
LTYPE
2
TRMIDX_3
70
64
3
---
72
65
73
2
40
2
49
1
49
1
0
LTYPE
2
TRMIDX_4
70
64
3
---
72
65
73
2
40
2
49
1
49
1
0
LTYPE
2
TRMIDX_5
70
64
3
---
72
65
73
2
40
2
49
1
49
1
0
LTYPE
2
TRMIDX_6
70
64
3
---
72
65
73
2
40
2
49
1
49
1
0
LTYPE
2
TRMIDX_7
70
64
3
---
72
65
73
2
40
2
49
1
49
1
0
LTYPE
2
TRMIDX_8
70
64
3
---
72
65
73
2
40
2
49
1
49
1
0
LTYPE
2
TRMIDX_9
70
64
3
---
72
65
73
2
40
2
49
1
49
1
0
LTYPE
2
TRMIDX_10
70
64
3
---
72
65
73
2
40
2
49
1
49
1
0
LTYPE
2
TRMIDX_11
70
64
3
---
72
65
73
2
40
2
49
1
49
1
0
LTYPE
2
TRMIDX_12
70
64
3
---
72
65
73
2
40
2
49
1
49
1
0
LTYPE
2
TRMIDX_13
70
64
3
---
72
65
73
2
40
2
49
1
49
1
0
LTYPE
2
TRMIDX_14
70
64
3
---
72
65
73
2
40
2
49
1
49
1
0
LTYPE
2
TRMIDX_15
70
64
3
---
72
65
73
2
40
2
49
1
49
1
0
LTYPE
2
TRMIDX_16
70
64
3
---
72
65
73
2
40
2
49
1
49
1
0
LTYPE
2
TRMIDX_17
70
64
3
---
72
65
73
2
40
2
49
1
49
1
0
LTYPE
2
TRMIDX_18
70
64
3
---
72
65
73
2
40
2
49
1
49
1
0
LTYPE
2
TRMIDX_19
70
64
3
---
72
65
73
2
40
2
49
1
49
1
0
LTYPE
2
TRMIDX_20
70
64
3
---
72
65
73
2
40
2
49
1
49
1
0
LTYPE
2
TRMIDX_21
70
64
3
---
72
65
73
2
40
2
49
1
49
1
0
LTYPE
2
TRMIDX_22
70
64
3
---
72
65
73
2
40
2
49
1
49
1
0
LTYPE
2
TRMIDX_23
70
64
3
---
72
65
73
2
40
2
49
1
49
1
0
LTYPE
2
TRMIDX_24
70
64
3
---
72
65
73
2
40
2
49
1
49
1
0
LTYPE
2
TRMIDX_25
70
64
3
---
72
65
73
2
40
2
49
1
49
1
0
LTYPE
2
TRMIDX_26
70
64
3
---
72
65
73
2
40
2
49
1
49
1
0
LTYPE
2
TRMIDX_27
70
64
3
---
72
65
73
2
40
2
49
1
49
1
0
LTYPE
2
TRMIDX_28
70
64
3
---
72
65
73
2
40
2
49
1
49
1
0
LTYPE
2
TRMIDX_29
70
64
3
---
72
65
73
2
40
2
49
1
49
1
0
LTYPE
2
TRMIDX_30
70
64
3
---
72
65
73
2
40
2
49
1
49
1
0
LTYPE
2
TRMIDX_31
70
64
3
---
72
65
73
2
40
2
49
1
49
1
0
LTYPE
2
TRMIDX_32
70
64
3
---
72
65
73
2
40
2
49
1
49
1
0
LTYPE
2
TRMIDX_33
70
64
3
---
72
65
73
2
40
2
49
1
49
1
0
LTYPE
2
TRMIDX_34
70
64
3
---
72
65
73
2
40
2
49
1
49
1
0
LTYPE
2
TRMIDX_35
70
64
3
---
72
65
73
2
40
2
49
1
49
1
0
LTYPE
2
TRMIDX_36
70
64
3
---
72
65
73
2
40
2
49
1
49
1
0
LTYPE
2
TRMIDX_37
70
64
3
---
72
65
73
2
40
2
49
1
49
1
0
ENDTAB
999
*** POWERPCB  LAYER ***
0
TABLE
2
LAYER
70
37
0
LAYER
2
DBLAYERS
70
1
62
-254
6
CONTINUOUS
0
LAYER
2
BOARD_OUTLINE_00
70
0
62
254
6
CONTINUOUS
0
LAYER
2
2D_LINE_126
70
0
62
254
6
CONTINUOUS
0
LAYER
2
LABEL_INFO
70
1
62
-254
6
CONTINUOUS
0
LAYER
2
LABEL_ATTRIBUTE
70
1
62
-254
6
CONTINUOUS
0
LAYER
2
PART_NAME_126
70
1
62
-254
6
CONTINUOUS
0
LAYER
2
PART_TYPE_01
70
1
62
-183
6
CONTINUOUS
0
LAYER
2
PART_INFO
70
1
62
-254
6
CONTINUOUS
0
LAYER
2
PART_PTS
70
1
62
-254
6
CONTINUOUS
0
LAYER
2
PART_NAME_01
70
1
62
-254
6
CONTINUOUS
0
LAYER
2
ATTRIBUTE_01
70
0
62
5
6
CONTINUOUS
0
LAYER
2
ATTRIBUTE_126
70
0
62
254
6
CONTINUOUS
0
LAYER
2
PART_TYPE_TOP
70
1
62
-250
6
CONTINUOUS
0
LAYER
2
SYM_NAME
70
1
62
-254
6
CONTINUOUS
0
LAYER
2
SYM_PART_TYPE_01
70
1
62
-254
6
CONTINUOUS
0
LAYER
2
SYM_PART_NAME_01
70
1
62
-254
6
CONTINUOUS
0
LAYER
2
SYM_TERMINAL
70
1
62
-254
6
CONTINUOUS
0
LAYER
2
PKG_INFO
70
1
62
-254
6
CONTINUOUS
0
LAYER
2
SYM_ATTRIBUTE_126
70
1
62
-254
6
CONTINUOUS
0
LAYER
2
SYM_PART_NAME_126
70
1
62
-254
6
CONTINUOUS
0
LAYER
2
PART_TOP_2DLINE_01
70
0
62
254
6
CONTINUOUS
0
LAYER
2
DRIL_PLTE_THRU_01
70
0
62
3
6
CONTINUOUS
0
LAYER
2
DRIL_PLTE_THRU_02
70
1
62
-171
6
CONTINUOUS
0
LAYER
2
DRIL_PLTE_THRU_03
70
1
62
-222
6
CONTINUOUS
0
LAYER
2
DRIL_PLTE_THRU_04
70
1
62
-16
6
CONTINUOUS
0
LAYER
2
PADS_INNER
70
1
62
-96
6
CONTINUOUS
0
LAYER
2
PADS_BOT
70
1
62
-1
6
CONTINUOUS
0
LAYER
2
PADS_TOP
70
1
62
-96
6
CONTINUOUS
0
LAYER
2
PART_TOP_2DLINE_126
70
0
62
254
6
CONTINUOUS
0
LAYER
2
DRIL_NPLTE_THRU_01
70
0
62
3
6
CONTINUOUS
0
LAYER
2
DRIL_NPLTE_THRU_02
70
1
62
-171
6
CONTINUOUS
0
LAYER
2
DRIL_NPLTE_THRU_03
70
1
62
-222
6
CONTINUOUS
0
LAYER
2
DRIL_NPLTE_THRU_04
70
1
62
-16
6
CONTINUOUS
0
LAYER
2
PART_TOP_COPPER_-1
70
0
62
254
6
CONTINUOUS
0
LAYER
2
PART_TOP_COPPER_01
70
0
62
254
6
CONTINUOUS
0
LAYER
2
PCB_PARAMS
70
1
62
-254
6
CONTINUOUS
0
LAYER
2
DRIL_SYMBOL
70
0
62
254
6
CONTINUOUS
0
ENDTAB
999
*** POWERPCB  TEXT STYLE ***
0
TABLE
2
STYLE
70
4
0
STYLE
2
W0$127
70
64
40
0
41
0.75
42
0
50
0
71
0
3
simplex
0
STYLE
2
W0$1016
70
64
40
0
41
0.75
42
0
50
0
71
0
3
simplex
0
STYLE
2
W0$127R0
70
64
40
0
41
0.75
42
0
50
0
71
0
3
simplex
0
STYLE
2
W0$254
70
64
40
0
41
0.75
42
0
50
0
71
0
3
simplex
0
ENDTAB
0
ENDSEC
0
SECTION
2
BLOCKS
999
*** POWERPCB  DBLAYER ***
0
BLOCK
2
DBLAYERS
8
0
10
0
20
0
3
DBLAYERS
70
64
0
TEXT
8
DBLAYERS
10
0
20
-3.048
40
1.778
1
__It__Is__Job__Name__:=AP_ESP32B.pcb
999
 *  1.Number             2.Type                  3.RouteColor
999
 *  4.ViaColor           5.PadColor              6.CopperColor
999
 *  7.2DLineColor        8.TextColor             9.ErrorColor
999
 * 10.TopComponentColor 11.BottomComponentColor 12.RoutingDirection
999
 * 13.LayerThickness    14.CopperThickness      15.Dielectric
999
 * 16.IsRouteable       17.IsVisible            18.IsSelectable
999
 * 19.IsPrepreg         20.AssSilkScreen        21.AssPasteMask
999
 * 22.AssSolderMask     23.AssAssembly
0
TEXT
8
DBLAYERS
10
0
20
-6.096
40
1.778
1
<ËùÓÐ²ã>:=0 0 0 8 2 2 15 29 14 8 14 2 0 0 3.2999999523 0 1 1 0 -1 -1 -1 -1 0 0 0 8 29 9 27 
0
TEXT
8
DBLAYERS
10
0
20
-9.144
40
1.778
1
Top:=1 1 2 8 2 2 15 29 14 8 0 0 381000 51435 4.3000001907 1 1 1 0 126 123 121 127 0 0 1 8 29 9 27 
0
TEXT
8
DBLAYERS
10
0
20
-12.192
40
1.778
1
GND:=2 1 29 29 29 29 29 29 14 0 0 1 381000 51435 4.3000001907 1 0 1 0 129 122 128 130 0 1 0 0 0 0 0 
0
TEXT
8
DBLAYERS
10
0
20
-15.24
40
1.778
1
POWER:=3 1 31 31 31 31 31 31 14 0 0 2 381000 51435 4.3000001907 1 0 1 0 -1 -1 -1 -1 0 1 0 0 0 0 0 
0
TEXT
8
DBLAYERS
10
0
20
-18.288
40
1.778
1
Bottom:=4 1 12 8 12 28 13 29 14 0 27 1 0 51435 3.2999999523 1 0 1 0 129 122 128 130 0 0 1 27 29 12 20 
0
TEXT
8
DBLAYERS
10
0
20
-21.336
40
1.778
1
Layer_5:=5 0 0 0 0 0 0 0 0 0 0 2 0 0 3.2999999523 0 0 1 0 -1 -1 -1 -1 0 0 0 0 0 0 0 
0
TEXT
8
DBLAYERS
10
0
20
-24.384
40
1.778
1
Layer_6:=6 0 0 0 0 0 0 0 0 0 0 2 0 0 3.2999999523 0 0 1 0 -1 -1 -1 -1 0 0 0 0 0 0 0 
0
TEXT
8
DBLAYERS
10
0
20
-27.432
40
1.778
1
Layer_7:=7 0 0 0 0 0 0 0 0 0 0 2 0 0 3.2999999523 0 0 1 0 -1 -1 -1 -1 0 0 0 0 0 0 0 
0
TEXT
8
DBLAYERS
10
0
20
-30.48
40
1.778
1
Layer_8:=8 0 0 0 0 0 0 0 0 0 0 2 0 0 3.2999999523 0 0 1 0 -1 -1 -1 -1 0 0 0 0 0 0 0 
0
TEXT
8
DBLAYERS
10
0
20
-33.528
40
1.778
1
Layer_9:=9 0 0 0 0 0 0 0 0 0 0 2 0 0 3.2999999523 0 0 1 0 -1 -1 -1 -1 0 0 0 0 0 0 0 
0
TEXT
8
DBLAYERS
10
0
20
-36.576
40
1.778
1
Layer_10:=10 0 0 0 0 0 0 0 0 0 0 2 0 0 3.2999999523 0 0 1 0 -1 -1 -1 -1 0 0 0 0 0 0 0 
0
TEXT
8
DBLAYERS
10
0
20
-39.624
40
1.778
1
Layer_11:=11 0 0 0 0 0 0 0 0 0 0 2 0 0 3.2999999523 0 0 1 0 -1 -1 -1 -1 0 0 0 0 0 0 0 
0
TEXT
8
DBLAYERS
10
0
20
-42.672
40
1.778
1
Layer_12:=12 0 0 0 0 0 0 0 0 0 0 2 0 0 3.2999999523 0 0 1 0 -1 -1 -1 -1 0 0 0 0 0 0 0 
0
TEXT
8
DBLAYERS
10
0
20
-45.72
40
1.778
1
Layer_13:=13 0 0 0 0 0 0 0 0 0 0 2 0 0 3.2999999523 0 0 1 0 -1 -1 -1 -1 0 0 0 0 0 0 0 
0
TEXT
8
DBLAYERS
10
0
20
-48.768
40
1.778
1
Layer_14:=14 0 0 0 0 0 0 0 0 0 0 2 0 0 3.2999999523 0 0 1 0 -1 -1 -1 -1 0 0 0 0 0 0 0 
0
TEXT
8
DBLAYERS
10
0
20
-51.816
40
1.778
1
Layer_15:=15 0 0 0 0 0 0 0 0 0 0 2 0 0 3.2999999523 0 0 1 0 -1 -1 -1 -1 0 0 0 0 0 0 0 
0
TEXT
8
DBLAYERS
10
0
20
-54.864
40
1.778
1
Layer_16:=16 0 0 0 0 0 0 0 0 0 0 2 0 0 3.2999999523 0 0 1 0 -1 -1 -1 -1 0 0 0 0 0 0 0 
0
TEXT
8
DBLAYERS
10
0
20
-57.912
40
1.778
1
Layer_17:=17 0 0 0 0 0 0 0 0 0 0 2 0 0 3.2999999523 0 0 1 0 -1 -1 -1 -1 0 0 0 0 0 0 0 
0
TEXT
8
DBLAYERS
10
0
20
-60.96
40
1.778
1
Layer_18:=18 0 0 0 0 0 0 0 0 0 0 2 0 0 3.2999999523 0 0 1 0 -1 -1 -1 -1 0 0 0 0 0 0 0 
0
TEXT
8
DBLAYERS
10
0
20
-64.008
40
1.778
1
Layer_19:=19 0 0 0 0 0 0 0 0 0 0 2 0 0 3.2999999523 0 0 1 0 -1 -1 -1 -1 0 0 0 0 0 0 0 
0
TEXT
8
DBLAYERS
10
0
20
-67.056
40
1.778
1
Layer_20:=20 0 0 0 0 0 0 0 0 0 0 2 0 0 3.2999999523 0 0 1 0 -1 -1 -1 -1 0 0 0 0 0 0 0 
0
TEXT
8
DBLAYERS
10
0
20
-70.104
40
1.778
1
Layer_21:=21 0 0 0 0 0 0 0 0 0 0 2 0 0 3.2999999523 0 0 1 0 -1 -1 -1 -1 0 0 0 0 0 0 0 
0
TEXT
8
DBLAYERS
10
0
20
-73.152
40
1.778
1
Layer_22:=22 0 0 0 0 0 0 0 0 0 0 2 0 0 3.2999999523 0 0 1 0 -1 -1 -1 -1 0 0 0 0 0 0 0 
0
TEXT
8
DBLAYERS
10
0
20
-76.2
40
1.778
1
Layer_23:=23 0 0 0 0 0 0 0 0 0 0 2 0 0 3.2999999523 0 0 1 0 -1 -1 -1 -1 0 0 0 0 0 0 0 
0
TEXT
8
DBLAYERS
10
0
20
-79.248
40
1.778
1
Layer_24:=24 0 0 0 0 0 0 0 0 0 0 2 0 0 3.2999999523 0 0 1 0 -1 -1 -1 -1 0 0 0 0 0 0 0 
0
TEXT
8
DBLAYERS
10
0
20
-82.296
40
1.778
1
Layer_25:=25 0 0 0 0 0 0 0 0 0 0 2 0 0 3.2999999523 0 0 1 0 -1 -1 -1 -1 0 0 0 0 0 0 0 
0
TEXT
8
DBLAYERS
10
0
20
-85.344
40
1.778
1
Layer_26:=26 0 0 0 0 0 0 0 0 0 0 2 0 0 3.2999999523 0 0 1 0 -1 -1 -1 -1 0 0 0 0 0 0 0 
0
TEXT
8
DBLAYERS
10
0
20
-88.392
40
1.778
1
Layer_27:=27 0 0 0 0 0 0 0 0 0 0 2 0 0 3.2999999523 0 0 1 0 -1 -1 -1 -1 0 0 0 0 0 0 0 
0
TEXT
8
DBLAYERS
10
0
20
-91.44
40
1.778
1
Layer_28:=28 0 0 0 0 0 0 0 0 0 0 2 0 0 3.2999999523 0 0 1 0 -1 -1 -1 -1 0 0 0 0 0 0 0 
0
TEXT
8
DBLAYERS
10
0
20
-94.488
40
1.778
1
Layer_29:=29 0 0 0 0 0 0 0 0 0 0 2 0 0 3.2999999523 0 0 1 0 -1 -1 -1 -1 0 0 0 0 0 0 0 
0
TEXT
8
DBLAYERS
10
0
20
-97.536
40
1.778
1
Layer_30:=30 0 0 0 0 0 0 0 0 0 0 2 0 0 3.2999999523 0 0 1 0 -1 -1 -1 -1 0 0 0 0 0 0 0 
0
TEXT
8
DBLAYERS
10
0
20
-100.584
40
1.778
1
Layer_31:=31 0 0 0 0 0 0 0 0 0 0 2 0 0 3.2999999523 0 0 1 0 -1 -1 -1 -1 0 0 0 0 0 0 0 
0
TEXT
8
DBLAYERS
10
0
20
-103.632
40
1.778
1
Layer_32:=32 0 0 0 0 0 0 0 0 0 0 2 0 0 3.2999999523 0 0 1 0 -1 -1 -1 -1 0 0 0 0 0 0 0 
0
TEXT
8
DBLAYERS
10
0
20
-106.68
40
1.778
1
Layer_33:=33 0 0 0 0 0 0 0 0 0 0 2 0 0 3.2999999523 0 0 1 0 -1 -1 -1 -1 0 0 0 0 0 0 0 
0
TEXT
8
DBLAYERS
10
0
20
-109.728
40
1.778
1
Layer_34:=34 0 0 0 0 0 0 0 0 0 0 2 0 0 3.2999999523 0 0 1 0 -1 -1 -1 -1 0 0 0 0 0 0 0 
0
TEXT
8
DBLAYERS
10
0
20
-112.776
40
1.778
1
Layer_35:=35 0 0 0 0 0 0 0 0 0 0 2 0 0 3.2999999523 0 0 1 0 -1 -1 -1 -1 0 0 0 0 0 0 0 
0
TEXT
8
DBLAYERS
10
0
20
-115.824
40
1.778
1
Layer_36:=36 0 0 0 0 0 0 0 0 0 0 2 0 0 3.2999999523 0 0 1 0 -1 -1 -1 -1 0 0 0 0 0 0 0 
0
TEXT
8
DBLAYERS
10
0
20
-118.872
40
1.778
1
Layer_37:=37 0 0 0 0 0 0 0 0 0 0 2 0 0 3.2999999523 0 0 1 0 -1 -1 -1 -1 0 0 0 0 0 0 0 
0
TEXT
8
DBLAYERS
10
0
20
-121.92
40
1.778
1
Layer_38:=38 0 0 0 0 0 0 0 0 0 0 2 0 0 3.2999999523 0 0 1 0 -1 -1 -1 -1 0 0 0 0 0 0 0 
0
TEXT
8
DBLAYERS
10
0
20
-124.968
40
1.778
1
Layer_39:=39 0 0 0 0 0 0 0 0 0 0 2 0 0 3.2999999523 0 0 1 0 -1 -1 -1 -1 0 0 0 0 0 0 0 
0
TEXT
8
DBLAYERS
10
0
20
-128.016
40
1.778
1
Layer_40:=40 0 0 0 0 0 0 0 0 0 0 2 0 0 3.2999999523 0 0 1 0 -1 -1 -1 -1 0 0 0 0 0 0 0 
0
TEXT
8
DBLAYERS
10
0
20
-131.064
40
1.778
1
Layer_41:=41 0 0 0 0 0 0 0 0 0 0 2 0 0 3.2999999523 0 0 1 0 -1 -1 -1 -1 0 0 0 0 0 0 0 
0
TEXT
8
DBLAYERS
10
0
20
-134.112
40
1.778
1
Layer_42:=42 0 0 0 0 0 0 0 0 0 0 2 0 0 3.2999999523 0 0 1 0 -1 -1 -1 -1 0 0 0 0 0 0 0 
0
TEXT
8
DBLAYERS
10
0
20
-137.16
40
1.778
1
Layer_43:=43 0 0 0 0 0 0 0 0 0 0 2 0 0 3.2999999523 0 0 1 0 -1 -1 -1 -1 0 0 0 0 0 0 0 
0
TEXT
8
DBLAYERS
10
0
20
-140.208
40
1.778
1
Layer_44:=44 0 0 0 0 0 0 0 0 0 0 2 0 0 3.2999999523 0 0 1 0 -1 -1 -1 -1 0 0 0 0 0 0 0 
0
TEXT
8
DBLAYERS
10
0
20
-143.256
40
1.778
1
Layer_45:=45 0 0 0 0 0 0 0 0 0 0 2 0 0 3.2999999523 0 0 1 0 -1 -1 -1 -1 0 0 0 0 0 0 0 
0
TEXT
8
DBLAYERS
10
0
20
-146.304
40
1.778
1
Layer_46:=46 0 0 0 0 0 0 0 0 0 0 2 0 0 3.2999999523 0 0 1 0 -1 -1 -1 -1 0 0 0 0 0 0 0 
0
TEXT
8
DBLAYERS
10
0
20
-149.352
40
1.778
1
Layer_47:=47 0 0 0 0 0 0 0 0 0 0 2 0 0 3.2999999523 0 0 1 0 -1 -1 -1 -1 0 0 0 0 0 0 0 
0
TEXT
8
DBLAYERS
10
0
20
-152.4
40
1.778
1
Layer_48:=48 0 0 0 0 0 0 0 0 0 0 2 0 0 3.2999999523 0 0 1 0 -1 -1 -1 -1 0 0 0 0 0 0 0 
0
TEXT
8
DBLAYERS
10
0
20
-155.448
40
1.778
1
Layer_49:=49 0 0 0 0 0 0 0 0 0 0 2 0 0 3.2999999523 0 0 1 0 -1 -1 -1 -1 0 0 0 0 0 0 0 
0
TEXT
8
DBLAYERS
10
0
20
-158.496
40
1.778
1
Layer_50:=50 0 0 0 0 0 0 0 0 0 0 2 0 0 3.2999999523 0 0 1 0 -1 -1 -1 -1 0 0 0 0 0 0 0 
0
TEXT
8
DBLAYERS
10
0
20
-161.544
40
1.778
1
Layer_51:=51 0 0 0 0 0 0 0 0 0 0 2 0 0 3.2999999523 0 0 1 0 -1 -1 -1 -1 0 0 0 0 0 0 0 
0
TEXT
8
DBLAYERS
10
0
20
-164.592
40
1.778
1
Layer_52:=52 0 0 0 0 0 0 0 0 0 0 2 0 0 3.2999999523 0 0 1 0 -1 -1 -1 -1 0 0 0 0 0 0 0 
0
TEXT
8
DBLAYERS
10
0
20
-167.64
40
1.778
1
Layer_53:=53 0 0 0 0 0 0 0 0 0 0 2 0 0 3.2999999523 0 0 1 0 -1 -1 -1 -1 0 0 0 0 0 0 0 
0
TEXT
8
DBLAYERS
10
0
20
-170.688
40
1.778
1
Layer_54:=54 0 0 0 0 0 0 0 0 0 0 2 0 0 3.2999999523 0 0 1 0 -1 -1 -1 -1 0 0 0 0 0 0 0 
0
TEXT
8
DBLAYERS
10
0
20
-173.736
40
1.778
1
Layer_55:=55 0 0 0 0 0 0 0 0 0 0 2 0 0 3.2999999523 0 0 1 0 -1 -1 -1 -1 0 0 0 0 0 0 0 
0
TEXT
8
DBLAYERS
10
0
20
-176.784
40
1.778
1
Layer_56:=56 0 0 0 0 0 0 0 0 0 0 2 0 0 3.2999999523 0 0 1 0 -1 -1 -1 -1 0 0 0 0 0 0 0 
0
TEXT
8
DBLAYERS
10
0
20
-179.832
40
1.778
1
Layer_57:=57 0 0 0 0 0 0 0 0 0 0 2 0 0 3.2999999523 0 0 1 0 -1 -1 -1 -1 0 0 0 0 0 0 0 
0
TEXT
8
DBLAYERS
10
0
20
-182.88
40
1.778
1
Layer_58:=58 0 0 0 0 0 0 0 0 0 0 2 0 0 3.2999999523 0 0 1 0 -1 -1 -1 -1 0 0 0 0 0 0 0 
0
TEXT
8
DBLAYERS
10
0
20
-185.928
40
1.778
1
Layer_59:=59 0 0 0 0 0 0 0 0 0 0 2 0 0 3.2999999523 0 0 1 0 -1 -1 -1 -1 0 0 0 0 0 0 0 
0
TEXT
8
DBLAYERS
10
0
20
-188.976
40
1.778
1
Layer_60:=60 0 0 0 0 0 0 0 0 0 0 2 0 0 3.2999999523 0 0 1 0 -1 -1 -1 -1 0 0 0 0 0 0 0 
0
TEXT
8
DBLAYERS
10
0
20
-192.024
40
1.778
1
Layer_61:=61 0 0 0 0 0 0 0 0 0 0 2 0 0 3.2999999523 0 0 1 0 -1 -1 -1 -1 0 0 0 0 0 0 0 
0
TEXT
8
DBLAYERS
10
0
20
-195.072
40
1.778
1
Layer_62:=62 0 0 0 0 0 0 0 0 0 0 2 0 0 3.2999999523 0 0 1 0 -1 -1 -1 -1 0 0 0 0 0 0 0 
0
TEXT
8
DBLAYERS
10
0
20
-198.12
40
1.778
1
Layer_63:=63 0 0 0 0 0 0 0 0 0 0 2 0 0 3.2999999523 0 0 1 0 -1 -1 -1 -1 0 0 0 0 0 0 0 
0
TEXT
8
DBLAYERS
10
0
20
-201.168
40
1.778
1
Layer_64:=64 0 0 0 0 0 0 0 0 0 0 2 0 0 3.2999999523 0 0 1 0 -1 -1 -1 -1 0 0 0 0 0 0 0 
0
TEXT
8
DBLAYERS
10
0
20
-204.216
40
1.778
1
Layer_65:=65 0 0 0 0 0 0 0 0 0 0 2 0 0 3.2999999523 0 0 1 0 -1 -1 -1 -1 0 0 0 0 0 0 0 
0
TEXT
8
DBLAYERS
10
0
20
-207.264
40
1.778
1
Layer_66:=66 0 0 0 0 0 0 0 0 0 0 2 0 0 3.2999999523 0 0 1 0 -1 -1 -1 -1 0 0 0 0 0 0 0 
0
TEXT
8
DBLAYERS
10
0
20
-210.312
40
1.778
1
Layer_67:=67 0 0 0 0 0 0 0 0 0 0 2 0 0 3.2999999523 0 0 1 0 -1 -1 -1 -1 0 0 0 0 0 0 0 
0
TEXT
8
DBLAYERS
10
0
20
-213.36
40
1.778
1
Layer_68:=68 0 0 0 0 0 0 0 0 0 0 2 0 0 3.2999999523 0 0 1 0 -1 -1 -1 -1 0 0 0 0 0 0 0 
0
TEXT
8
DBLAYERS
10
0
20
-216.408
40
1.778
1
Layer_69:=69 0 0 0 0 0 0 0 0 0 0 2 0 0 3.2999999523 0 0 1 0 -1 -1 -1 -1 0 0 0 0 0 0 0 
0
TEXT
8
DBLAYERS
10
0
20
-219.456
40
1.778
1
Layer_70:=70 0 0 0 0 0 0 0 0 0 0 2 0 0 3.2999999523 0 0 1 0 -1 -1 -1 -1 0 0 0 0 0 0 0 
0
TEXT
8
DBLAYERS
10
0
20
-222.504
40
1.778
1
Layer_71:=71 0 0 0 0 0 0 0 0 0 0 2 0 0 3.2999999523 0 0 1 0 -1 -1 -1 -1 0 0 0 0 0 0 0 
0
TEXT
8
DBLAYERS
10
0
20
-225.552
40
1.778
1
Layer_72:=72 0 0 0 0 0 0 0 0 0 0 2 0 0 3.2999999523 0 0 1 0 -1 -1 -1 -1 0 0 0 0 0 0 0 
0
TEXT
8
DBLAYERS
10
0
20
-228.6
40
1.778
1
Layer_73:=73 0 0 0 0 0 0 0 0 0 0 2 0 0 3.2999999523 0 0 1 0 -1 -1 -1 -1 0 0 0 0 0 0 0 
0
TEXT
8
DBLAYERS
10
0
20
-231.648
40
1.778
1
Layer_74:=74 0 0 0 0 0 0 0 0 0 0 2 0 0 3.2999999523 0 0 1 0 -1 -1 -1 -1 0 0 0 0 0 0 0 
0
TEXT
8
DBLAYERS
10
0
20
-234.696
40
1.778
1
Layer_75:=75 0 0 0 0 0 0 0 0 0 0 2 0 0 3.2999999523 0 0 1 0 -1 -1 -1 -1 0 0 0 0 0 0 0 
0
TEXT
8
DBLAYERS
10
0
20
-237.744
40
1.778
1
Layer_76:=76 0 0 0 0 0 0 0 0 0 0 2 0 0 3.2999999523 0 0 1 0 -1 -1 -1 -1 0 0 0 0 0 0 0 
0
TEXT
8
DBLAYERS
10
0
20
-240.792
40
1.778
1
Layer_77:=77 0 0 0 0 0 0 0 0 0 0 2 0 0 3.2999999523 0 0 1 0 -1 -1 -1 -1 0 0 0 0 0 0 0 
0
TEXT
8
DBLAYERS
10
0
20
-243.84
40
1.778
1
Layer_78:=78 0 0 0 0 0 0 0 0 0 0 2 0 0 3.2999999523 0 0 1 0 -1 -1 -1 -1 0 0 0 0 0 0 0 
0
TEXT
8
DBLAYERS
10
0
20
-246.888
40
1.778
1
Layer_79:=79 0 0 0 0 0 0 0 0 0 0 2 0 0 3.2999999523 0 0 1 0 -1 -1 -1 -1 0 0 0 0 0 0 0 
0
TEXT
8
DBLAYERS
10
0
20
-249.936
40
1.778
1
Layer_80:=80 0 0 0 0 0 0 0 0 0 0 2 0 0 3.2999999523 0 0 1 0 -1 -1 -1 -1 0 0 0 0 0 0 0 
0
TEXT
8
DBLAYERS
10
0
20
-252.984
40
1.778
1
Layer_81:=81 0 0 0 0 0 0 0 0 0 0 2 0 0 3.2999999523 0 0 1 0 -1 -1 -1 -1 0 0 0 0 0 0 0 
0
TEXT
8
DBLAYERS
10
0
20
-256.032
40
1.778
1
Layer_82:=82 0 0 0 0 0 0 0 0 0 0 2 0 0 3.2999999523 0 0 1 0 -1 -1 -1 -1 0 0 0 0 0 0 0 
0
TEXT
8
DBLAYERS
10
0
20
-259.08
40
1.778
1
Layer_83:=83 0 0 0 0 0 0 0 0 0 0 2 0 0 3.2999999523 0 0 1 0 -1 -1 -1 -1 0 0 0 0 0 0 0 
0
TEXT
8
DBLAYERS
10
0
20
-262.128
40
1.778
1
Layer_84:=84 0 0 0 0 0 0 0 0 0 0 2 0 0 3.2999999523 0 0 1 0 -1 -1 -1 -1 0 0 0 0 0 0 0 
0
TEXT
8
DBLAYERS
10
0
20
-265.176
40
1.778
1
Layer_85:=85 0 0 0 0 0 0 0 0 0 0 2 0 0 3.2999999523 0 0 1 0 -1 -1 -1 -1 0 0 0 0 0 0 0 
0
TEXT
8
DBLAYERS
10
0
20
-268.224
40
1.778
1
Layer_86:=86 0 0 0 0 0 0 0 0 0 0 2 0 0 3.2999999523 0 0 1 0 -1 -1 -1 -1 0 0 0 0 0 0 0 
0
TEXT
8
DBLAYERS
10
0
20
-271.272
40
1.778
1
Layer_87:=87 0 0 0 0 0 0 0 0 0 0 2 0 0 3.2999999523 0 0 1 0 -1 -1 -1 -1 0 0 0 0 0 0 0 
0
TEXT
8
DBLAYERS
10
0
20
-274.32
40
1.778
1
Layer_88:=88 0 0 0 0 0 0 0 0 0 0 2 0 0 3.2999999523 0 0 1 0 -1 -1 -1 -1 0 0 0 0 0 0 0 
0
TEXT
8
DBLAYERS
10
0
20
-277.368
40
1.778
1
Layer_89:=89 0 0 0 0 0 0 0 0 0 0 2 0 0 3.2999999523 0 0 1 0 -1 -1 -1 -1 0 0 0 0 0 0 0 
0
TEXT
8
DBLAYERS
10
0
20
-280.416
40
1.778
1
Layer_90:=90 0 0 0 0 0 0 0 0 0 0 2 0 0 3.2999999523 0 0 1 0 -1 -1 -1 -1 0 0 0 0 0 0 0 
0
TEXT
8
DBLAYERS
10
0
20
-283.464
40
1.778
1
Layer_91:=91 0 0 0 0 0 0 0 0 0 0 2 0 0 3.2999999523 0 0 1 0 -1 -1 -1 -1 0 0 0 0 0 0 0 
0
TEXT
8
DBLAYERS
10
0
20
-286.512
40
1.778
1
Layer_92:=92 0 0 0 0 0 0 0 0 0 0 2 0 0 3.2999999523 0 0 1 0 -1 -1 -1 -1 0 0 0 0 0 0 0 
0
TEXT
8
DBLAYERS
10
0
20
-289.56
40
1.778
1
Layer_93:=93 0 0 0 0 0 0 0 0 0 0 2 0 0 3.2999999523 0 0 1 0 -1 -1 -1 -1 0 0 0 0 0 0 0 
0
TEXT
8
DBLAYERS
10
0
20
-292.608
40
1.778
1
Layer_94:=94 0 0 0 0 0 0 0 0 0 0 2 0 0 3.2999999523 0 0 1 0 -1 -1 -1 -1 0 0 0 0 0 0 0 
0
TEXT
8
DBLAYERS
10
0
20
-295.656
40
1.778
1
Layer_95:=95 0 0 0 0 0 0 0 0 0 0 2 0 0 3.2999999523 0 0 1 0 -1 -1 -1 -1 0 0 0 0 0 0 0 
0
TEXT
8
DBLAYERS
10
0
20
-298.704
40
1.778
1
Layer_96:=96 0 0 0 0 0 0 0 0 0 0 2 0 0 3.2999999523 0 0 1 0 -1 -1 -1 -1 0 0 0 0 0 0 0 
0
TEXT
8
DBLAYERS
10
0
20
-301.752
40
1.778
1
Layer_97:=97 0 0 0 0 0 0 0 0 0 0 2 0 0 3.2999999523 0 0 1 0 -1 -1 -1 -1 0 0 0 0 0 0 0 
0
TEXT
8
DBLAYERS
10
0
20
-304.8
40
1.778
1
Layer_98:=98 0 0 0 0 0 0 0 0 0 0 2 0 0 3.2999999523 0 0 1 0 -1 -1 -1 -1 0 0 0 0 0 0 0 
0
TEXT
8
DBLAYERS
10
0
20
-307.848
40
1.778
1
Layer_99:=99 0 0 0 0 0 0 0 0 0 0 2 0 0 3.2999999523 0 0 1 0 -1 -1 -1 -1 0 0 0 0 0 0 0 
0
TEXT
8
DBLAYERS
10
0
20
-310.896
40
1.778
1
Layer_100:=100 0 0 0 0 0 0 0 0 0 0 2 0 0 3.2999999523 0 0 1 0 -1 -1 -1 -1 0 0 0 0 0 0 0 
0
TEXT
8
DBLAYERS
10
0
20
-313.944
40
1.778
1
Layer_101:=101 0 0 0 0 0 0 0 0 0 0 2 0 0 3.2999999523 0 0 1 0 -1 -1 -1 -1 0 0 0 0 0 0 0 
0
TEXT
8
DBLAYERS
10
0
20
-316.992
40
1.778
1
Layer_102:=102 0 0 0 0 0 0 0 0 0 0 2 0 0 3.2999999523 0 0 1 0 -1 -1 -1 -1 0 0 0 0 0 0 0 
0
TEXT
8
DBLAYERS
10
0
20
-320.04
40
1.778
1
Layer_103:=103 0 0 0 0 0 0 0 0 0 0 2 0 0 3.2999999523 0 1 1 0 -1 -1 -1 -1 0 0 0 0 0 0 0 
0
TEXT
8
DBLAYERS
10
0
20
-323.088
40
1.778
1
Layer_104:=104 0 0 0 0 0 0 0 0 0 0 2 0 0 3.2999999523 0 1 1 0 -1 -1 -1 -1 0 0 0 0 0 0 0 
0
TEXT
8
DBLAYERS
10
0
20
-326.136
40
1.778
1
Layer_105:=105 0 0 0 0 0 0 0 0 0 0 2 0 0 3.2999999523 0 1 1 0 -1 -1 -1 -1 0 0 0 0 0 0 0 
0
TEXT
8
DBLAYERS
10
0
20
-329.184
40
1.778
1
Layer_106:=106 0 0 0 0 0 0 0 0 0 0 2 0 0 3.2999999523 0 1 1 0 -1 -1 -1 -1 0 0 0 0 0 0 0 
0
TEXT
8
DBLAYERS
10
0
20
-332.232
40
1.778
1
Layer_107:=107 0 0 0 0 0 0 0 0 0 0 2 0 0 3.2999999523 0 1 1 0 -1 -1 -1 -1 0 0 0 0 0 0 0 
0
TEXT
8
DBLAYERS
10
0
20
-335.28
40
1.778
1
Layer_108:=108 0 0 0 0 0 0 0 0 0 0 2 0 0 3.2999999523 0 1 1 0 -1 -1 -1 -1 0 0 0 0 0 0 0 
0
TEXT
8
DBLAYERS
10
0
20
-338.328
40
1.778
1
Layer_109:=109 0 0 0 0 0 0 0 0 0 0 2 0 0 3.2999999523 0 1 1 0 -1 -1 -1 -1 0 0 0 0 0 0 0 
0
TEXT
8
DBLAYERS
10
0
20
-341.376
40
1.778
1
Layer_110:=110 0 0 0 0 0 0 0 0 0 0 2 0 0 3.2999999523 0 1 1 0 -1 -1 -1 -1 0 0 0 0 0 0 0 
0
TEXT
8
DBLAYERS
10
0
20
-344.424
40
1.778
1
Layer_111:=111 0 0 0 0 0 0 0 0 0 0 2 0 0 3.2999999523 0 1 1 0 -1 -1 -1 -1 0 0 0 0 0 0 0 
0
TEXT
8
DBLAYERS
10
0
20
-347.472
40
1.778
1
Layer_112:=112 0 0 0 0 0 0 0 0 0 0 2 0 0 3.2999999523 0 1 1 0 -1 -1 -1 -1 0 0 0 0 0 0 0 
0
TEXT
8
DBLAYERS
10
0
20
-350.52
40
1.778
1
Layer_113:=113 0 0 0 0 0 0 0 0 0 0 2 0 0 3.2999999523 0 1 1 0 -1 -1 -1 -1 0 0 0 0 0 0 0 
0
TEXT
8
DBLAYERS
10
0
20
-353.568
40
1.778
1
Layer_114:=114 0 0 0 0 0 0 0 0 0 0 2 0 0 3.2999999523 0 1 1 0 -1 -1 -1 -1 0 0 0 0 0 0 0 
0
TEXT
8
DBLAYERS
10
0
20
-356.616
40
1.778
1
Layer_115:=115 0 0 0 0 0 0 0 0 0 0 2 0 0 3.2999999523 0 1 1 0 -1 -1 -1 -1 0 0 0 0 0 0 0 
0
TEXT
8
DBLAYERS
10
0
20
-359.664
40
1.778
1
Layer_116:=116 0 0 0 0 0 0 0 0 0 0 2 0 0 3.2999999523 0 1 1 0 -1 -1 -1 -1 0 0 0 0 0 0 0 
0
TEXT
8
DBLAYERS
10
0
20
-362.712
40
1.778
1
Layer_117:=117 0 0 0 0 0 0 0 0 0 0 2 0 0 3.2999999523 0 1 1 0 -1 -1 -1 -1 0 0 0 0 0 0 0 
0
TEXT
8
DBLAYERS
10
0
20
-365.76
40
1.778
1
Layer_118:=118 0 0 0 0 0 0 0 0 0 0 2 0 0 3.2999999523 0 1 1 0 -1 -1 -1 -1 0 0 0 0 0 0 0 
0
TEXT
8
DBLAYERS
10
0
20
-368.808
40
1.778
1
Layer_119:=119 0 0 0 0 25 14 8 0 0 0 2 0 0 3.2999999523 0 1 1 0 -1 -1 -1 -1 0 0 0 0 0 0 0 
0
TEXT
8
DBLAYERS
10
0
20
-371.856
40
1.778
1
Layer_120:=120 0 0 0 0 0 0 0 0 13 14 2 0 0 3.2999999523 0 1 1 0 -1 -1 -1 -1 0 0 0 0 0 0 0 
0
TEXT
8
DBLAYERS
10
0
20
-374.904
40
1.778
1
Solder Mask Top:=121 5 0 1 1 1 1 1 0 0 0 2 0 0 3.2999999523 0 1 1 0 -1 -1 -1 -1 0 0 0 0 0 1 1 
0
TEXT
8
DBLAYERS
10
0
20
-377.952
40
1.778
1
Paste Mask Bottom:=122 4 0 16 16 16 16 16 0 0 0 2 0 0 3.2999999523 0 1 1 0 -1 -1 -1 -1 0 0 0 0 0 16 16 
0
TEXT
8
DBLAYERS
10
0
20
-381
40
1.778
1
Paste Mask Top:=123 4 0 29 29 29 29 29 0 0 0 2 0 0 3.2999999523 0 1 1 0 -1 -1 -1 -1 0 0 0 0 0 29 29 
0
TEXT
8
DBLAYERS
10
0
20
-384.048
40
1.778
1
Drill Drawing:=124 2 0 0 0 11 11 11 0 11 11 2 0 0 3.2999999523 0 1 1 0 -1 -1 -1 -1 0 0 0 0 0 11 11 
0
TEXT
8
DBLAYERS
10
0
20
-387.096
40
1.778
1
Layer_125:=125 0 0 7 7 7 7 7 0 0 0 2 0 0 3.2999999523 0 1 1 0 -1 -1 -1 -1 0 0 0 0 0 7 7 
0
TEXT
8
DBLAYERS
10
0
20
-390.144
40
1.778
1
Silkscreen Top:=126 3 0 0 0 8 8 8 0 8 0 2 0 0 3.2999999523 0 1 1 0 -1 -1 -1 -1 0 0 0 8 0 8 8 
0
TEXT
8
DBLAYERS
10
0
20
-393.192
40
1.778
1
Assembly Drawing Top:=127 6 0 0 30 30 30 30 0 30 0 2 0 0 3.2999999523 0 1 1 0 -1 -1 -1 -1 0 0 0 30 0 30 30 
0
TEXT
8
DBLAYERS
10
0
20
-396.24
40
1.778
1
Solder Mask Bottom:=128 5 0 27 27 27 27 27 0 0 0 2 0 0 3.2999999523 0 1 1 0 -1 -1 -1 -1 0 0 0 0 0 27 27 
0
TEXT
8
DBLAYERS
10
0
20
-399.288
40
1.778
1
Silkscreen Bottom:=129 3 0 0 0 19 19 19 0 0 19 2 0 0 3.2999999523 0 0 1 0 -1 -1 -1 -1 0 0 0 19 0 19 19 
0
TEXT
8
DBLAYERS
10
0
20
-402.336
40
1.778
1
Assembly Drawing Bottom:=130 6 0 0 17 17 17 17 0 0 17 2 0 0 3.2999999523 0 0 1 0 -1 -1 -1 -1 0 0 0 17 0 17 17 
0
TEXT
8
DBLAYERS
10
0
20
-405.384
40
1.778
1
Layer_131:=131 0 0 0 0 0 0 0 0 0 0 2 0 0 3.2999999523 0 0 1 0 -1 -1 -1 -1 0 0 0 0 0 0 0 
0
TEXT
8
DBLAYERS
10
0
20
-408.432
40
1.778
1
Layer_132:=132 0 0 0 0 0 0 0 0 0 0 2 0 0 3.2999999523 0 0 1 0 -1 -1 -1 -1 0 0 0 0 0 0 0 
0
TEXT
8
DBLAYERS
10
0
20
-411.48
40
1.778
1
Layer_133:=133 0 0 0 0 0 0 0 0 0 0 2 0 0 3.2999999523 0 0 1 0 -1 -1 -1 -1 0 0 0 0 0 0 0 
0
TEXT
8
DBLAYERS
10
0
20
-414.528
40
1.778
1
Layer_134:=134 0 0 0 0 0 0 0 0 0 0 2 0 0 3.2999999523 0 0 1 0 -1 -1 -1 -1 0 0 0 0 0 0 0 
0
TEXT
8
DBLAYERS
10
0
20
-417.576
40
1.778
1
Layer_135:=135 0 0 0 0 0 0 0 0 0 0 2 0 0 3.2999999523 0 0 1 0 -1 -1 -1 -1 0 0 0 0 0 0 0 
0
TEXT
8
DBLAYERS
10
0
20
-420.624
40
1.778
1
Layer_136:=136 0 0 0 0 0 0 0 0 0 0 2 0 0 3.2999999523 0 0 1 0 -1 -1 -1 -1 0 0 0 0 0 0 0 
0
TEXT
8
DBLAYERS
10
0
20
-423.672
40
1.778
1
Layer_137:=137 0 0 0 0 0 0 0 0 0 0 2 0 0 3.2999999523 0 0 1 0 -1 -1 -1 -1 0 0 0 0 0 0 0 
0
TEXT
8
DBLAYERS
10
0
20
-426.72
40
1.778
1
Layer_138:=138 0 0 0 0 0 0 0 0 0 0 2 0 0 3.2999999523 0 0 1 0 -1 -1 -1 -1 0 0 0 0 0 0 0 
0
TEXT
8
DBLAYERS
10
0
20
-429.768
40
1.778
1
Layer_139:=139 0 0 0 0 0 0 0 0 0 0 2 0 0 3.2999999523 0 0 1 0 -1 -1 -1 -1 0 0 0 0 0 0 0 
0
TEXT
8
DBLAYERS
10
0
20
-432.816
40
1.778
1
Layer_140:=140 0 0 0 0 0 0 0 0 0 0 2 0 0 3.2999999523 0 0 1 0 -1 -1 -1 -1 0 0 0 0 0 0 0 
0
TEXT
8
DBLAYERS
10
0
20
-435.864
40
1.778
1
Layer_141:=141 0 0 0 0 0 0 0 0 0 0 2 0 0 3.2999999523 0 0 1 0 -1 -1 -1 -1 0 0 0 0 0 0 0 
0
TEXT
8
DBLAYERS
10
0
20
-438.912
40
1.778
1
Layer_142:=142 0 0 0 0 0 0 0 0 0 0 2 0 0 3.2999999523 0 0 1 0 -1 -1 -1 -1 0 0 0 0 0 0 0 
0
TEXT
8
DBLAYERS
10
0
20
-441.96
40
1.778
1
Layer_143:=143 0 0 0 0 0 0 0 0 0 0 2 0 0 3.2999999523 0 0 1 0 -1 -1 -1 -1 0 0 0 0 0 0 0 
0
TEXT
8
DBLAYERS
10
0
20
-445.008
40
1.778
1
Layer_144:=144 0 0 0 0 0 0 0 0 0 0 2 0 0 3.2999999523 0 0 1 0 -1 -1 -1 -1 0 0 0 0 0 0 0 
0
TEXT
8
DBLAYERS
10
0
20
-448.056
40
1.778
1
Layer_145:=145 0 0 0 0 0 0 0 0 0 0 2 0 0 3.2999999523 0 0 1 0 -1 -1 -1 -1 0 0 0 0 0 0 0 
0
TEXT
8
DBLAYERS
10
0
20
-451.104
40
1.778
1
Layer_146:=146 0 0 0 0 0 0 0 0 0 0 2 0 0 3.2999999523 0 0 1 0 -1 -1 -1 -1 0 0 0 0 0 0 0 
0
TEXT
8
DBLAYERS
10
0
20
-454.152
40
1.778
1
Layer_147:=147 0 0 0 0 0 0 0 0 0 0 2 0 0 3.2999999523 0 0 1 0 -1 -1 -1 -1 0 0 0 0 0 0 0 
0
TEXT
8
DBLAYERS
10
0
20
-457.2
40
1.778
1
Layer_148:=148 0 0 0 0 0 0 0 0 0 0 2 0 0 3.2999999523 0 0 1 0 -1 -1 -1 -1 0 0 0 0 0 0 0 
0
TEXT
8
DBLAYERS
10
0
20
-460.248
40
1.778
1
Layer_149:=149 0 0 0 0 0 0 0 0 0 0 2 0 0 3.2999999523 0 0 1 0 -1 -1 -1 -1 0 0 0 0 0 0 0 
0
TEXT
8
DBLAYERS
10
0
20
-463.296
40
1.778
1
Layer_150:=150 0 0 0 0 0 0 0 0 0 0 2 0 0 3.2999999523 0 0 1 0 -1 -1 -1 -1 0 0 0 0 0 0 0 
0
TEXT
8
DBLAYERS
10
0
20
-466.344
40
1.778
1
Layer_151:=151 0 0 0 0 0 0 0 0 0 0 2 0 0 3.2999999523 0 0 1 0 -1 -1 -1 -1 0 0 0 0 0 0 0 
0
TEXT
8
DBLAYERS
10
0
20
-469.392
40
1.778
1
Layer_152:=152 0 0 0 0 0 0 0 0 0 0 2 0 0 3.2999999523 0 0 1 0 -1 -1 -1 -1 0 0 0 0 0 0 0 
0
TEXT
8
DBLAYERS
10
0
20
-472.44
40
1.778
1
Layer_153:=153 0 0 0 0 0 0 0 0 0 0 2 0 0 3.2999999523 0 0 1 0 -1 -1 -1 -1 0 0 0 0 0 0 0 
0
TEXT
8
DBLAYERS
10
0
20
-475.488
40
1.778
1
Layer_154:=154 0 0 0 0 0 0 0 0 0 0 2 0 0 3.2999999523 0 0 1 0 -1 -1 -1 -1 0 0 0 0 0 0 0 
0
TEXT
8
DBLAYERS
10
0
20
-478.536
40
1.778
1
Layer_155:=155 0 0 0 0 0 0 0 0 0 0 2 0 0 3.2999999523 0 0 1 0 -1 -1 -1 -1 0 0 0 0 0 0 0 
0
TEXT
8
DBLAYERS
10
0
20
-481.584
40
1.778
1
Layer_156:=156 0 0 0 0 0 0 0 0 0 0 2 0 0 3.2999999523 0 0 1 0 -1 -1 -1 -1 0 0 0 0 0 0 0 
0
TEXT
8
DBLAYERS
10
0
20
-484.632
40
1.778
1
Layer_157:=157 0 0 0 0 0 0 0 0 0 0 2 0 0 3.2999999523 0 0 1 0 -1 -1 -1 -1 0 0 0 0 0 0 0 
0
TEXT
8
DBLAYERS
10
0
20
-487.68
40
1.778
1
Layer_158:=158 0 0 0 0 0 0 0 0 0 0 2 0 0 3.2999999523 0 0 1 0 -1 -1 -1 -1 0 0 0 0 0 0 0 
0
TEXT
8
DBLAYERS
10
0
20
-490.728
40
1.778
1
Layer_159:=159 0 0 0 0 0 0 0 0 0 0 2 0 0 3.2999999523 0 0 1 0 -1 -1 -1 -1 0 0 0 0 0 0 0 
0
TEXT
8
DBLAYERS
10
0
20
-493.776
40
1.778
1
Layer_160:=160 0 0 0 0 0 0 0 0 0 0 2 0 0 3.2999999523 0 0 1 0 -1 -1 -1 -1 0 0 0 0 0 0 0 
0
TEXT
8
DBLAYERS
10
0
20
-496.824
40
1.778
1
Layer_161:=161 0 0 0 0 0 0 0 0 0 0 2 0 0 3.2999999523 0 0 1 0 -1 -1 -1 -1 0 0 0 0 0 0 0 
0
TEXT
8
DBLAYERS
10
0
20
-499.872
40
1.778
1
Layer_162:=162 0 0 0 0 0 0 0 0 0 0 2 0 0 3.2999999523 0 0 1 0 -1 -1 -1 -1 0 0 0 0 0 0 0 
0
TEXT
8
DBLAYERS
10
0
20
-502.92
40
1.778
1
Layer_163:=163 0 0 0 0 0 0 0 0 0 0 2 0 0 3.2999999523 0 0 1 0 -1 -1 -1 -1 0 0 0 0 0 0 0 
0
TEXT
8
DBLAYERS
10
0
20
-505.968
40
1.778
1
Layer_164:=164 0 0 0 0 0 0 0 0 0 0 2 0 0 3.2999999523 0 0 1 0 -1 -1 -1 -1 0 0 0 0 0 0 0 
0
TEXT
8
DBLAYERS
10
0
20
-509.016
40
1.778
1
Layer_165:=165 0 0 0 0 0 0 0 0 0 0 2 0 0 3.2999999523 0 0 1 0 -1 -1 -1 -1 0 0 0 0 0 0 0 
0
TEXT
8
DBLAYERS
10
0
20
-512.064
40
1.778
1
Layer_166:=166 0 0 0 0 0 0 0 0 0 0 2 0 0 3.2999999523 0 0 1 0 -1 -1 -1 -1 0 0 0 0 0 0 0 
0
TEXT
8
DBLAYERS
10
0
20
-515.112
40
1.778
1
Layer_167:=167 0 0 0 0 0 0 0 0 0 0 2 0 0 3.2999999523 0 0 1 0 -1 -1 -1 -1 0 0 0 0 0 0 0 
0
TEXT
8
DBLAYERS
10
0
20
-518.16
40
1.778
1
Layer_168:=168 0 0 0 0 0 0 0 0 0 0 2 0 0 3.2999999523 0 0 1 0 -1 -1 -1 -1 0 0 0 0 0 0 0 
0
TEXT
8
DBLAYERS
10
0
20
-521.208
40
1.778
1
Layer_169:=169 0 0 0 0 0 0 0 0 0 0 2 0 0 3.2999999523 0 0 1 0 -1 -1 -1 -1 0 0 0 0 0 0 0 
0
TEXT
8
DBLAYERS
10
0
20
-524.256
40
1.778
1
Layer_170:=170 0 0 0 0 0 0 0 0 0 0 2 0 0 3.2999999523 0 0 1 0 -1 -1 -1 -1 0 0 0 0 0 0 0 
0
TEXT
8
DBLAYERS
10
0
20
-527.304
40
1.778
1
Layer_171:=171 0 0 0 0 0 0 0 0 0 0 2 0 0 3.2999999523 0 0 1 0 -1 -1 -1 -1 0 0 0 0 0 0 0 
0
TEXT
8
DBLAYERS
10
0
20
-530.352
40
1.778
1
Layer_172:=172 0 0 0 0 0 0 0 0 0 0 2 0 0 3.2999999523 0 0 1 0 -1 -1 -1 -1 0 0 0 0 0 0 0 
0
TEXT
8
DBLAYERS
10
0
20
-533.4
40
1.778
1
Layer_173:=173 0 0 0 0 0 0 0 0 0 0 2 0 0 3.2999999523 0 0 1 0 -1 -1 -1 -1 0 0 0 0 0 0 0 
0
TEXT
8
DBLAYERS
10
0
20
-536.448
40
1.778
1
Layer_174:=174 0 0 0 0 0 0 0 0 0 0 2 0 0 3.2999999523 0 0 1 0 -1 -1 -1 -1 0 0 0 0 0 0 0 
0
TEXT
8
DBLAYERS
10
0
20
-539.496
40
1.778
1
Layer_175:=175 0 0 0 0 0 0 0 0 0 0 2 0 0 3.2999999523 0 0 1 0 -1 -1 -1 -1 0 0 0 0 0 0 0 
0
TEXT
8
DBLAYERS
10
0
20
-542.544
40
1.778
1
Layer_176:=176 0 0 0 0 0 0 0 0 0 0 2 0 0 3.2999999523 0 0 1 0 -1 -1 -1 -1 0 0 0 0 0 0 0 
0
TEXT
8
DBLAYERS
10
0
20
-545.592
40
1.778
1
Layer_177:=177 0 0 0 0 0 0 0 0 0 0 2 0 0 3.2999999523 0 0 1 0 -1 -1 -1 -1 0 0 0 0 0 0 0 
0
TEXT
8
DBLAYERS
10
0
20
-548.64
40
1.778
1
Layer_178:=178 0 0 0 0 0 0 0 0 0 0 2 0 0 3.2999999523 0 0 1 0 -1 -1 -1 -1 0 0 0 0 0 0 0 
0
TEXT
8
DBLAYERS
10
0
20
-551.688
40
1.778
1
Layer_179:=179 0 0 0 0 0 0 0 0 0 0 2 0 0 3.2999999523 0 0 1 0 -1 -1 -1 -1 0 0 0 0 0 0 0 
0
TEXT
8
DBLAYERS
10
0
20
-554.736
40
1.778
1
Layer_180:=180 0 0 0 0 0 0 0 0 0 0 2 0 0 3.2999999523 0 0 1 0 -1 -1 -1 -1 0 0 0 0 0 0 0 
0
TEXT
8
DBLAYERS
10
0
20
-557.784
40
1.778
1
Layer_181:=181 0 0 0 0 0 0 0 0 0 0 2 0 0 3.2999999523 0 0 1 0 -1 -1 -1 -1 0 0 0 0 0 0 0 
0
TEXT
8
DBLAYERS
10
0
20
-560.832
40
1.778
1
Layer_182:=182 0 0 0 0 0 0 0 0 0 0 2 0 0 3.2999999523 0 0 1 0 -1 -1 -1 -1 0 0 0 0 0 0 0 
0
TEXT
8
DBLAYERS
10
0
20
-563.88
40
1.778
1
Layer_183:=183 0 0 0 0 0 0 0 0 0 0 2 0 0 3.2999999523 0 0 1 0 -1 -1 -1 -1 0 0 0 0 0 0 0 
0
TEXT
8
DBLAYERS
10
0
20
-566.928
40
1.778
1
Layer_184:=184 0 0 0 0 0 0 0 0 0 0 2 0 0 3.2999999523 0 0 1 0 -1 -1 -1 -1 0 0 0 0 0 0 0 
0
TEXT
8
DBLAYERS
10
0
20
-569.976
40
1.778
1
Layer_185:=185 0 0 0 0 0 0 0 0 0 0 2 0 0 3.2999999523 0 0 1 0 -1 -1 -1 -1 0 0 0 0 0 0 0 
0
TEXT
8
DBLAYERS
10
0
20
-573.024
40
1.778
1
Layer_186:=186 0 0 0 0 0 0 0 0 0 0 2 0 0 3.2999999523 0 0 1 0 -1 -1 -1 -1 0 0 0 0 0 0 0 
0
TEXT
8
DBLAYERS
10
0
20
-576.072
40
1.778
1
Layer_187:=187 0 0 0 0 0 0 0 0 0 0 2 0 0 3.2999999523 0 0 1 0 -1 -1 -1 -1 0 0 0 0 0 0 0 
0
TEXT
8
DBLAYERS
10
0
20
-579.12
40
1.778
1
Layer_188:=188 0 0 0 0 0 0 0 0 0 0 2 0 0 3.2999999523 0 0 1 0 -1 -1 -1 -1 0 0 0 0 0 0 0 
0
TEXT
8
DBLAYERS
10
0
20
-582.168
40
1.778
1
Layer_189:=189 0 0 0 0 0 0 0 0 0 0 2 0 0 3.2999999523 0 0 1 0 -1 -1 -1 -1 0 0 0 0 0 0 0 
0
TEXT
8
DBLAYERS
10
0
20
-585.216
40
1.778
1
Layer_190:=190 0 0 0 0 0 0 0 0 0 0 2 0 0 3.2999999523 0 0 1 0 -1 -1 -1 -1 0 0 0 0 0 0 0 
0
TEXT
8
DBLAYERS
10
0
20
-588.264
40
1.778
1
Layer_191:=191 0 0 0 0 0 0 0 0 0 0 2 0 0 3.2999999523 0 0 1 0 -1 -1 -1 -1 0 0 0 0 0 0 0 
0
TEXT
8
DBLAYERS
10
0
20
-591.312
40
1.778
1
Layer_192:=192 0 0 0 0 0 0 0 0 0 0 2 0 0 3.2999999523 0 0 1 0 -1 -1 -1 -1 0 0 0 0 0 0 0 
0
TEXT
8
DBLAYERS
10
0
20
-594.36
40
1.778
1
Layer_193:=193 0 0 0 0 0 0 0 0 0 0 2 0 0 3.2999999523 0 0 1 0 -1 -1 -1 -1 0 0 0 0 0 0 0 
0
TEXT
8
DBLAYERS
10
0
20
-597.408
40
1.778
1
Layer_194:=194 0 0 0 0 0 0 0 0 0 0 2 0 0 3.2999999523 0 0 1 0 -1 -1 -1 -1 0 0 0 0 0 0 0 
0
TEXT
8
DBLAYERS
10
0
20
-600.456
40
1.778
1
Layer_195:=195 0 0 0 0 0 0 0 0 0 0 2 0 0 3.2999999523 0 0 1 0 -1 -1 -1 -1 0 0 0 0 0 0 0 
0
TEXT
8
DBLAYERS
10
0
20
-603.504
40
1.778
1
Layer_196:=196 0 0 0 0 0 0 0 0 0 0 2 0 0 3.2999999523 0 0 1 0 -1 -1 -1 -1 0 0 0 0 0 0 0 
0
TEXT
8
DBLAYERS
10
0
20
-606.552
40
1.778
1
Layer_197:=197 0 0 0 0 0 0 0 0 0 0 2 0 0 3.2999999523 0 0 1 0 -1 -1 -1 -1 0 0 0 0 0 0 0 
0
TEXT
8
DBLAYERS
10
0
20
-609.6
40
1.778
1
Layer_198:=198 0 0 0 0 0 0 0 0 0 0 2 0 0 3.2999999523 0 0 1 0 -1 -1 -1 -1 0 0 0 0 0 0 0 
0
TEXT
8
DBLAYERS
10
0
20
-612.648
40
1.778
1
Layer_199:=199 0 0 0 0 0 0 0 0 0 0 2 0 0 3.2999999523 0 0 1 0 -1 -1 -1 -1 0 0 0 0 0 0 0 
0
TEXT
8
DBLAYERS
10
0
20
-615.696
40
1.778
1
Layer_200:=200 0 0 0 0 0 0 0 0 0 0 2 0 0 3.2999999523 0 0 1 0 -1 -1 -1 -1 0 0 0 0 0 0 0 
0
TEXT
8
DBLAYERS
10
0
20
-618.744
40
1.778
1
Layer_201:=201 0 0 0 0 0 0 0 0 0 0 2 0 0 3.2999999523 0 0 1 0 -1 -1 -1 -1 0 0 0 0 0 0 0 
0
TEXT
8
DBLAYERS
10
0
20
-621.792
40
1.778
1
Layer_202:=202 0 0 0 0 0 0 0 0 0 0 2 0 0 3.2999999523 0 0 1 0 -1 -1 -1 -1 0 0 0 0 0 0 0 
0
TEXT
8
DBLAYERS
10
0
20
-624.84
40
1.778
1
Layer_203:=203 0 0 0 0 0 0 0 0 0 0 2 0 0 3.2999999523 0 0 1 0 -1 -1 -1 -1 0 0 0 0 0 0 0 
0
TEXT
8
DBLAYERS
10
0
20
-627.888
40
1.778
1
Layer_204:=204 0 0 0 0 0 0 0 0 0 0 2 0 0 3.2999999523 0 0 1 0 -1 -1 -1 -1 0 0 0 0 0 0 0 
0
TEXT
8
DBLAYERS
10
0
20
-630.936
40
1.778
1
Layer_205:=205 0 0 0 0 0 0 0 0 0 0 2 0 0 3.2999999523 0 0 1 0 -1 -1 -1 -1 0 0 0 0 0 0 0 
0
TEXT
8
DBLAYERS
10
0
20
-633.984
40
1.778
1
Layer_206:=206 0 0 0 0 0 0 0 0 0 0 2 0 0 3.2999999523 0 0 1 0 -1 -1 -1 -1 0 0 0 0 0 0 0 
0
TEXT
8
DBLAYERS
10
0
20
-637.032
40
1.778
1
Layer_207:=207 0 0 0 0 0 0 0 0 0 0 2 0 0 3.2999999523 0 0 1 0 -1 -1 -1 -1 0 0 0 0 0 0 0 
0
TEXT
8
DBLAYERS
10
0
20
-640.08
40
1.778
1
Layer_208:=208 0 0 0 0 0 0 0 0 0 0 2 0 0 3.2999999523 0 0 1 0 -1 -1 -1 -1 0 0 0 0 0 0 0 
0
TEXT
8
DBLAYERS
10
0
20
-643.128
40
1.778
1
Layer_209:=209 0 0 0 0 0 0 0 0 0 0 2 0 0 3.2999999523 0 0 1 0 -1 -1 -1 -1 0 0 0 0 0 0 0 
0
TEXT
8
DBLAYERS
10
0
20
-646.176
40
1.778
1
Layer_210:=210 0 0 0 0 0 0 0 0 0 0 2 0 0 3.2999999523 0 0 1 0 -1 -1 -1 -1 0 0 0 0 0 0 0 
0
TEXT
8
DBLAYERS
10
0
20
-649.224
40
1.778
1
Layer_211:=211 0 0 0 0 0 0 0 0 0 0 2 0 0 3.2999999523 0 0 1 0 -1 -1 -1 -1 0 0 0 0 0 0 0 
0
TEXT
8
DBLAYERS
10
0
20
-652.272
40
1.778
1
Layer_212:=212 0 0 0 0 0 0 0 0 0 0 2 0 0 3.2999999523 0 0 1 0 -1 -1 -1 -1 0 0 0 0 0 0 0 
0
TEXT
8
DBLAYERS
10
0
20
-655.32
40
1.778
1
Layer_213:=213 0 0 0 0 0 0 0 0 0 0 2 0 0 3.2999999523 0 0 1 0 -1 -1 -1 -1 0 0 0 0 0 0 0 
0
TEXT
8
DBLAYERS
10
0
20
-658.368
40
1.778
1
Layer_214:=214 0 0 0 0 0 0 0 0 0 0 2 0 0 3.2999999523 0 0 1 0 -1 -1 -1 -1 0 0 0 0 0 0 0 
0
TEXT
8
DBLAYERS
10
0
20
-661.416
40
1.778
1
Layer_215:=215 0 0 0 0 0 0 0 0 0 0 2 0 0 3.2999999523 0 0 1 0 -1 -1 -1 -1 0 0 0 0 0 0 0 
0
TEXT
8
DBLAYERS
10
0
20
-664.464
40
1.778
1
Layer_216:=216 0 0 0 0 0 0 0 0 0 0 2 0 0 3.2999999523 0 0 1 0 -1 -1 -1 -1 0 0 0 0 0 0 0 
0
TEXT
8
DBLAYERS
10
0
20
-667.512
40
1.778
1
Layer_217:=217 0 0 0 0 0 0 0 0 0 0 2 0 0 3.2999999523 0 0 1 0 -1 -1 -1 -1 0 0 0 0 0 0 0 
0
TEXT
8
DBLAYERS
10
0
20
-670.56
40
1.778
1
Layer_218:=218 0 0 0 0 0 0 0 0 0 0 2 0 0 3.2999999523 0 0 1 0 -1 -1 -1 -1 0 0 0 0 0 0 0 
0
TEXT
8
DBLAYERS
10
0
20
-673.608
40
1.778
1
Layer_219:=219 0 0 0 0 0 0 0 0 0 0 2 0 0 3.2999999523 0 0 1 0 -1 -1 -1 -1 0 0 0 0 0 0 0 
0
TEXT
8
DBLAYERS
10
0
20
-676.656
40
1.778
1
Layer_220:=220 0 0 0 0 0 0 0 0 0 0 2 0 0 3.2999999523 0 0 1 0 -1 -1 -1 -1 0 0 0 0 0 0 0 
0
TEXT
8
DBLAYERS
10
0
20
-679.704
40
1.778
1
Layer_221:=221 0 0 0 0 0 0 0 0 0 0 2 0 0 3.2999999523 0 0 1 0 -1 -1 -1 -1 0 0 0 0 0 0 0 
0
TEXT
8
DBLAYERS
10
0
20
-682.752
40
1.778
1
Layer_222:=222 0 0 0 0 0 0 0 0 0 0 2 0 0 3.2999999523 0 0 1 0 -1 -1 -1 -1 0 0 0 0 0 0 0 
0
TEXT
8
DBLAYERS
10
0
20
-685.8
40
1.778
1
Layer_223:=223 0 0 0 0 0 0 0 0 0 0 2 0 0 3.2999999523 0 0 1 0 -1 -1 -1 -1 0 0 0 0 0 0 0 
0
TEXT
8
DBLAYERS
10
0
20
-688.848
40
1.778
1
Layer_224:=224 0 0 0 0 0 0 0 0 0 0 2 0 0 3.2999999523 0 0 1 0 -1 -1 -1 -1 0 0 0 0 0 0 0 
0
TEXT
8
DBLAYERS
10
0
20
-691.896
40
1.778
1
Layer_225:=225 0 0 0 0 0 0 0 0 0 0 2 0 0 3.2999999523 0 0 1 0 -1 -1 -1 -1 0 0 0 0 0 0 0 
0
TEXT
8
DBLAYERS
10
0
20
-694.944
40
1.778
1
Layer_226:=226 0 0 0 0 0 0 0 0 0 0 2 0 0 3.2999999523 0 0 1 0 -1 -1 -1 -1 0 0 0 0 0 0 0 
0
TEXT
8
DBLAYERS
10
0
20
-697.992
40
1.778
1
Layer_227:=227 0 0 0 0 0 0 0 0 0 0 2 0 0 3.2999999523 0 0 1 0 -1 -1 -1 -1 0 0 0 0 0 0 0 
0
TEXT
8
DBLAYERS
10
0
20
-701.04
40
1.778
1
Layer_228:=228 0 0 0 0 0 0 0 0 0 0 2 0 0 3.2999999523 0 0 1 0 -1 -1 -1 -1 0 0 0 0 0 0 0 
0
TEXT
8
DBLAYERS
10
0
20
-704.088
40
1.778
1
Layer_229:=229 0 0 0 0 0 0 0 0 0 0 2 0 0 3.2999999523 0 0 1 0 -1 -1 -1 -1 0 0 0 0 0 0 0 
0
TEXT
8
DBLAYERS
10
0
20
-707.136
40
1.778
1
Layer_230:=230 0 0 0 0 0 0 0 0 0 0 2 0 0 3.2999999523 0 0 1 0 -1 -1 -1 -1 0 0 0 0 0 0 0 
0
TEXT
8
DBLAYERS
10
0
20
-710.184
40
1.778
1
Layer_231:=231 0 0 0 0 0 0 0 0 0 0 2 0 0 3.2999999523 0 0 1 0 -1 -1 -1 -1 0 0 0 0 0 0 0 
0
TEXT
8
DBLAYERS
10
0
20
-713.232
40
1.778
1
Layer_232:=232 0 0 0 0 0 0 0 0 0 0 2 0 0 3.2999999523 0 0 1 0 -1 -1 -1 -1 0 0 0 0 0 0 0 
0
TEXT
8
DBLAYERS
10
0
20
-716.28
40
1.778
1
Layer_233:=233 0 0 0 0 0 0 0 0 0 0 2 0 0 3.2999999523 0 0 1 0 -1 -1 -1 -1 0 0 0 0 0 0 0 
0
TEXT
8
DBLAYERS
10
0
20
-719.328
40
1.778
1
Layer_234:=234 0 0 0 0 0 0 0 0 0 0 2 0 0 3.2999999523 0 0 1 0 -1 -1 -1 -1 0 0 0 0 0 0 0 
0
TEXT
8
DBLAYERS
10
0
20
-722.376
40
1.778
1
Layer_235:=235 0 0 0 0 0 0 0 0 0 0 2 0 0 3.2999999523 0 0 1 0 -1 -1 -1 -1 0 0 0 0 0 0 0 
0
TEXT
8
DBLAYERS
10
0
20
-725.424
40
1.778
1
Layer_236:=236 0 0 0 0 0 0 0 0 0 0 2 0 0 3.2999999523 0 0 1 0 -1 -1 -1 -1 0 0 0 0 0 0 0 
0
TEXT
8
DBLAYERS
10
0
20
-728.472
40
1.778
1
Layer_237:=237 0 0 0 0 0 0 0 0 0 0 2 0 0 3.2999999523 0 0 1 0 -1 -1 -1 -1 0 0 0 0 0 0 0 
0
TEXT
8
DBLAYERS
10
0
20
-731.52
40
1.778
1
Layer_238:=238 0 0 0 0 0 0 0 0 0 0 2 0 0 3.2999999523 0 0 1 0 -1 -1 -1 -1 0 0 0 0 0 0 0 
0
TEXT
8
DBLAYERS
10
0
20
-734.568
40
1.778
1
Layer_239:=239 0 0 0 0 0 0 0 0 0 0 2 0 0 3.2999999523 0 0 1 0 -1 -1 -1 -1 0 0 0 0 0 0 0 
0
TEXT
8
DBLAYERS
10
0
20
-737.616
40
1.778
1
Layer_240:=240 0 0 0 0 0 0 0 0 0 0 2 0 0 3.2999999523 0 0 1 0 -1 -1 -1 -1 0 0 0 0 0 0 0 
0
TEXT
8
DBLAYERS
10
0
20
-740.664
40
1.778
1
Layer_241:=241 0 0 0 0 0 0 0 0 0 0 2 0 0 3.2999999523 0 0 1 0 -1 -1 -1 -1 0 0 0 0 0 0 0 
0
TEXT
8
DBLAYERS
10
0
20
-743.712
40
1.778
1
Layer_242:=242 0 0 0 0 0 0 0 0 0 0 2 0 0 3.2999999523 0 0 1 0 -1 -1 -1 -1 0 0 0 0 0 0 0 
0
TEXT
8
DBLAYERS
10
0
20
-746.76
40
1.778
1
Layer_243:=243 0 0 0 0 0 0 0 0 0 0 2 0 0 3.2999999523 0 0 1 0 -1 -1 -1 -1 0 0 0 0 0 0 0 
0
TEXT
8
DBLAYERS
10
0
20
-749.808
40
1.778
1
Layer_244:=244 0 0 0 0 0 0 0 0 0 0 2 0 0 3.2999999523 0 0 1 0 -1 -1 -1 -1 0 0 0 0 0 0 0 
0
TEXT
8
DBLAYERS
10
0
20
-752.856
40
1.778
1
Layer_245:=245 0 0 0 0 0 0 0 0 0 0 2 0 0 3.2999999523 0 0 1 0 -1 -1 -1 -1 0 0 0 0 0 0 0 
0
TEXT
8
DBLAYERS
10
0
20
-755.904
40
1.778
1
Layer_246:=246 0 0 0 0 0 0 0 0 0 0 2 0 0 3.2999999523 0 0 1 0 -1 -1 -1 -1 0 0 0 0 0 0 0 
0
TEXT
8
DBLAYERS
10
0
20
-758.952
40
1.778
1
Layer_247:=247 0 0 0 0 0 0 0 0 0 0 2 0 0 3.2999999523 0 0 1 0 -1 -1 -1 -1 0 0 0 0 0 0 0 
0
TEXT
8
DBLAYERS
10
0
20
-762
40
1.778
1
Layer_248:=248 0 0 0 0 0 0 0 0 0 0 2 0 0 3.2999999523 0 0 1 0 -1 -1 -1 -1 0 0 0 0 0 0 0 
0
TEXT
8
DBLAYERS
10
0
20
-765.048
40
1.778
1
Layer_249:=249 0 0 0 0 0 0 0 0 0 0 2 0 0 3.2999999523 0 0 1 0 -1 -1 -1 -1 0 0 0 0 0 0 0 
0
TEXT
8
DBLAYERS
10
0
20
-768.096
40
1.778
1
Layer_250:=250 0 0 0 0 0 0 0 0 0 0 2 0 0 3.2999999523 0 0 1 0 -1 -1 -1 -1 0 0 0 0 0 0 0 
0
ENDBLK
999
*** POWERPCB  BOARD ***
0
BLOCK
2
BOARD_17
8
0
10
0
20
0
3
BOARD_17
70
64
0
POLYLINE
8
BOARD_OUTLINE_00
66
1
40
0.127
41
0.127
70
1
0
VERTEX
8
BOARD_OUTLINE_00
10
0.6858
20
-0.889
0
VERTEX
8
BOARD_OUTLINE_00
10
-12.3698
20
-0.889
0
VERTEX
8
BOARD_OUTLINE_00
10
-12.3698
20
18.0594
0
VERTEX
8
BOARD_OUTLINE_00
10
0.6858
20
18.0594
0
SEQEND
0
INSERT
2
SMOOTH_0$127
8
BOARD_OUTLINE_00
10
0.6858
20
-0.889
0
INSERT
2
SMOOTH_0$127
8
BOARD_OUTLINE_00
10
-12.3698
20
-0.889
0
INSERT
2
SMOOTH_0$127
8
BOARD_OUTLINE_00
10
-12.3698
20
18.0594
0
INSERT
2
SMOOTH_0$127
8
BOARD_OUTLINE_00
10
0.6858
20
18.0594
0
ENDBLK
999
*** POWERPCB  2DLINE ***
0
BLOCK
2
DRAWING_9
8
0
10
0
20
0
3
DRAWING_9
70
64
0
POLYLINE
8
2D_LINE_126
66
1
40
0.127
41
0.127
70
1
0
VERTEX
8
2D_LINE_126
10
0.1016
20
0
0
VERTEX
8
2D_LINE_126
10
10.1092
20
0
0
VERTEX
8
2D_LINE_126
10
10.1092
20
-12.9794
0
VERTEX
8
2D_LINE_126
10
0.1016
20
-12.9794
0
SEQEND
0
INSERT
2
SMOOTH_0$127
8
2D_LINE_126
10
0.1016
20
0
0
INSERT
2
SMOOTH_0$127
8
2D_LINE_126
10
10.1092
20
0
0
INSERT
2
SMOOTH_0$127
8
2D_LINE_126
10
10.1092
20
-12.9794
0
INSERT
2
SMOOTH_0$127
8
2D_LINE_126
10
0.1016
20
-12.9794
0
ENDBLK
999
*** POWERPCB  COMPONENT ***
0
BLOCK
2
PART_TOP_0
8
0
10
0
20
0
3
PART_TOP_0
70
64
0
INSERT
2
SYM_TOP_4
8
0
10
0
20
0
0
INSERT
2
PKG_1
8
0
10
0
20
0
0
TEXT
8
LABEL_INFO
10
-1.5494
20
-0.5842
40
0.889
1
0 162000000 0 0 0 1
50
90
41
0.75
7
W0$127
0
TEXT
8
LABEL_ATTRIBUTE
10
-1.5494
20
-0.5842
40
0.889
1
Ref.Des.
50
90
41
0.75
7
W0$127
0
TEXT
8
PART_NAME_126
10
-1.5494
20
-0.5842
40
0.889
1
U12
50
90
41
0.75
7
W0$127
0
TEXT
8
LABEL_INFO
10
-0.35
20
0.594
40
0.889
1
0 0 0 2 0 1
73
2
11
-0.35
21
0.594
41
0.75
7
W0$127
0
TEXT
8
LABEL_ATTRIBUTE
10
-0.35
20
0.594
40
0.889
1
PartType
73
2
11
-0.35
21
0.594
41
0.75
7
W0$127
0
TEXT
8
PART_TYPE_01
10
-0.35
20
0.594
40
0.889
1
QFN-49
73
3
11
-0.35
21
0.594
41
0.75
7
W0$127
0
TEXT
8
PART_INFO
10
-0.35
20
-0.676
40
0.889
1
000000
73
3
11
-0.35
21
-0.676
41
0.75
7
W0$127
0
TEXT
8
PART_PTS
10
-0.35
20
-1.946
40
0.889
1
1 2 3 4 5 6 7 8 9 10 11 12 13 14 15 16 17 18 19 20 21 22 23 24 25 26 27 28 29 30 31 32 33 34 35 36 37 38 39 40 41 42 43 44 45 46 47 48 49 
73
3
11
-0.35
21
-1.946
41
0.75
7
W0$127
0
ENDBLK
0
BLOCK
2
PART_TOP_1
8
0
10
0
20
0
3
PART_TOP_1
70
64
0
INSERT
2
SYM_TOP_15
8
0
10
0
20
0
0
INSERT
2
PKG_4
8
0
10
0
20
0
0
TEXT
8
LABEL_INFO
10
-3.816
20
-3.435
40
0.889
1
0 0 0 2 0 1
73
2
11
-3.816
21
-3.435
41
0.75
7
W0$127
0
TEXT
8
LABEL_ATTRIBUTE
10
-3.816
20
-3.435
40
0.889
1
PartType
73
2
11
-3.816
21
-3.435
41
0.75
7
W0$127
0
TEXT
8
PART_TYPE_01
10
-3.816
20
-3.435
40
0.889
1
EMIJIAZI2
73
3
11
-3.816
21
-3.435
41
0.75
7
W0$127
0
TEXT
8
LABEL_INFO
10
-3.816
20
-3.435
40
0.889
1
0 0 0 0 0 1
41
0.75
7
W0$127
0
TEXT
8
LABEL_ATTRIBUTE
10
-3.816
20
-3.435
40
0.889
1
Ref.Des.
41
0.75
7
W0$127
0
TEXT
8
PART_NAME_01
10
-3.816
20
-3.435
40
0.889
1
J7
41
0.75
7
W0$127
0
TEXT
8
PART_INFO
10
-3.816
20
-4.705
40
0.889
1
000100
41
0.75
7
W0$127
0
TEXT
8
PART_PTS
10
-3.816
20
-5.975
40
0.889
1
1 2 
41
0.75
7
W0$127
0
ENDBLK
0
BLOCK
2
PART_TOP_2
8
0
10
0
20
0
3
PART_TOP_2
70
64
0
INSERT
2
SYM_TOP_14
8
0
10
0
20
0
0
INSERT
2
PKG_4
8
0
10
0
20
0
0
TEXT
8
LABEL_INFO
10
-3.816
20
-3.435
40
0.889
1
0 0 0 2 0 1
73
2
11
-3.816
21
-3.435
41
0.75
7
W0$127
0
TEXT
8
LABEL_ATTRIBUTE
10
-3.816
20
-3.435
40
0.889
1
PartType
73
2
11
-3.816
21
-3.435
41
0.75
7
W0$127
0
TEXT
8
PART_TYPE_01
10
-3.816
20
-3.435
40
0.889
1
EMIJIAZI2
73
3
11
-3.816
21
-3.435
41
0.75
7
W0$127
0
TEXT
8
LABEL_INFO
10
-3.816
20
-3.435
40
0.889
1
0 0 0 0 0 1
41
0.75
7
W0$127
0
TEXT
8
LABEL_ATTRIBUTE
10
-3.816
20
-3.435
40
0.889
1
Ref.Des.
41
0.75
7
W0$127
0
TEXT
8
PART_NAME_01
10
-3.816
20
-3.435
40
0.889
1
J6
41
0.75
7
W0$127
0
TEXT
8
PART_INFO
10
-3.816
20
-4.705
40
0.889
1
000100
41
0.75
7
W0$127
0
TEXT
8
PART_PTS
10
-3.816
20
-5.975
40
0.889
1
1 2 
41
0.75
7
W0$127
0
ENDBLK
0
BLOCK
2
PART_TOP_3
8
0
10
0
20
0
3
PART_TOP_3
70
64
0
INSERT
2
SYM_TOP_13
8
0
10
0
20
0
0
INSERT
2
PKG_4
8
0
10
0
20
0
0
TEXT
8
LABEL_INFO
10
-3.816
20
-3.435
40
0.889
1
0 0 0 2 0 1
73
2
11
-3.816
21
-3.435
41
0.75
7
W0$127
0
TEXT
8
LABEL_ATTRIBUTE
10
-3.816
20
-3.435
40
0.889
1
PartType
73
2
11
-3.816
21
-3.435
41
0.75
7
W0$127
0
TEXT
8
PART_TYPE_01
10
-3.816
20
-3.435
40
0.889
1
EMIJIAZI2
73
3
11
-3.816
21
-3.435
41
0.75
7
W0$127
0
TEXT
8
LABEL_INFO
10
-3.816
20
-3.435
40
0.889
1
0 0 0 0 0 1
41
0.75
7
W0$127
0
TEXT
8
LABEL_ATTRIBUTE
10
-3.816
20
-3.435
40
0.889
1
Ref.Des.
41
0.75
7
W0$127
0
TEXT
8
PART_NAME_01
10
-3.816
20
-3.435
40
0.889
1
J4
41
0.75
7
W0$127
0
TEXT
8
PART_INFO
10
-3.816
20
-4.705
40
0.889
1
000100
41
0.75
7
W0$127
0
TEXT
8
PART_PTS
10
-3.816
20
-5.975
40
0.889
1
1 2 
41
0.75
7
W0$127
0
ENDBLK
0
BLOCK
2
PART_TOP_4
8
0
10
0
20
0
3
PART_TOP_4
70
64
0
INSERT
2
SYM_TOP_9
8
0
10
0
20
0
0
INSERT
2
PKG_6
8
0
10
0
20
0
0
TEXT
8
LABEL_INFO
10
-3.816
20
-3.435
40
0.889
1
0 0 0 2 0 1
73
2
11
-3.816
21
-3.435
41
0.75
7
W0$127
0
TEXT
8
LABEL_ATTRIBUTE
10
-3.816
20
-3.435
40
0.889
1
PartType
73
2
11
-3.816
21
-3.435
41
0.75
7
W0$127
0
TEXT
8
PART_TYPE_01
10
-3.816
20
-3.435
40
0.889
1
EMIJIAZI3
73
3
11
-3.816
21
-3.435
41
0.75
7
W0$127
0
TEXT
8
LABEL_INFO
10
-3.816
20
-3.435
40
0.889
1
0 0 0 0 0 1
41
0.75
7
W0$127
0
TEXT
8
LABEL_ATTRIBUTE
10
-3.816
20
-3.435
40
0.889
1
Ref.Des.
41
0.75
7
W0$127
0
TEXT
8
PART_NAME_01
10
-3.816
20
-3.435
40
0.889
1
J5
41
0.75
7
W0$127
0
TEXT
8
PART_INFO
10
-3.816
20
-4.705
40
0.889
1
000000
41
0.75
7
W0$127
0
TEXT
8
PART_PTS
10
-3.816
20
-5.975
40
0.889
1
1 2 3 
41
0.75
7
W0$127
0
ENDBLK
0
BLOCK
2
PART_TOP_5
8
0
10
0
20
0
3
PART_TOP_5
70
64
0
INSERT
2
SYM_TOP_7
8
0
10
0
20
0
0
INSERT
2
PKG_4
8
0
10
0
20
0
0
TEXT
8
LABEL_INFO
10
-3.816
20
-3.435
40
0.889
1
0 0 0 2 0 1
73
2
11
-3.816
21
-3.435
41
0.75
7
W0$127
0
TEXT
8
LABEL_ATTRIBUTE
10
-3.816
20
-3.435
40
0.889
1
PartType
73
2
11
-3.816
21
-3.435
41
0.75
7
W0$127
0
TEXT
8
PART_TYPE_01
10
-3.816
20
-3.435
40
0.889
1
EMIJIAZI2
73
3
11
-3.816
21
-3.435
41
0.75
7
W0$127
0
TEXT
8
LABEL_INFO
10
-3.816
20
-3.435
40
0.889
1
0 0 0 0 0 1
41
0.75
7
W0$127
0
TEXT
8
LABEL_ATTRIBUTE
10
-3.816
20
-3.435
40
0.889
1
Ref.Des.
41
0.75
7
W0$127
0
TEXT
8
PART_NAME_01
10
-3.816
20
-3.435
40
0.889
1
J2
41
0.75
7
W0$127
0
TEXT
8
PART_INFO
10
-3.816
20
-4.705
40
0.889
1
000000
41
0.75
7
W0$127
0
TEXT
8
PART_PTS
10
-3.816
20
-5.975
40
0.889
1
1 2 
41
0.75
7
W0$127
0
ENDBLK
0
BLOCK
2
PART_TOP_6
8
0
10
0
20
0
3
PART_TOP_6
70
64
0
INSERT
2
SYM_TOP_5
8
0
10
0
20
0
0
INSERT
2
PKG_2
8
0
10
0
20
0
0
TEXT
8
LABEL_INFO
10
-0.0254
20
1.4986
40
0.5334
1
0 0 0 0 0 1
41
0.75
7
W0$1016
0
TEXT
8
LABEL_ATTRIBUTE
10
-0.0254
20
1.4986
40
0.5334
1
Value
41
0.75
7
W0$1016
0
TEXT
8
ATTRIBUTE_01
10
-0.0254
20
1.4986
40
0.5334
1
ANT
41
0.75
7
W0$1016
0
TEXT
8
LABEL_INFO
10
-1.2319206667
20
4.51464
40
0.889
1
0 0 0 0 0 1
41
0.75
7
W0$127
0
TEXT
8
LABEL_ATTRIBUTE
10
-1.2319206667
20
4.51464
40
0.889
1
Ref.Des.
41
0.75
7
W0$127
0
TEXT
8
PART_NAME_126
10
-1.2319206667
20
4.51464
40
0.889
1
ANT2200
41
0.75
7
W0$127
0
TEXT
8
LABEL_INFO
10
-1.2319206667
20
3.24464
40
0.889
1
0 0 0 0 0 1
41
0.75
7
W0$127
0
TEXT
8
LABEL_ATTRIBUTE
10
-1.2319206667
20
3.24464
40
0.889
1
Comment
41
0.75
7
W0$127
0
TEXT
8
ATTRIBUTE_126
10
-1.2319206667
20
3.24464
40
0.889
1
 
41
0.75
7
W0$127
0
TEXT
8
PART_TYPE_TOP
10
-1.2319206667
20
1.97464
40
0.889
1
ANT_JACK
41
0.75
7
W0$127
0
TEXT
8
PART_INFO
10
-1.2319206667
20
0.70464
40
0.889
1
000000
41
0.75
7
W0$127
0
TEXT
8
PART_PTS
10
-1.2319206667
20
-0.56536
40
0.889
1
1 2 3 
41
0.75
7
W0$127
0
ENDBLK
0
BLOCK
2
PART_TOP_7
8
0
10
0
20
0
3
PART_TOP_7
70
64
0
INSERT
2
SYM_TOP_10
8
0
10
0
20
0
0
INSERT
2
PKG_7
8
0
10
0
20
0
0
TEXT
8
LABEL_INFO
10
-3.5
20
0
40
0.889
1
0 0 0 2 0 1
73
2
11
-3.5
21
0
41
0.75
7
W0$127
0
TEXT
8
LABEL_ATTRIBUTE
10
-3.5
20
0
40
0.889
1
PartType
73
2
11
-3.5
21
0
41
0.75
7
W0$127
0
TEXT
8
PART_TYPE_01
10
-3.5
20
0
40
0.889
1
ANT2
73
3
11
-3.5
21
0
41
0.75
7
W0$127
0
TEXT
8
LABEL_INFO
10
-3.5
20
0
40
0.889
1
0 0 0 0 0 1
41
0.75
7
W0$127
0
TEXT
8
LABEL_ATTRIBUTE
10
-3.5
20
0
40
0.889
1
Ref.Des.
41
0.75
7
W0$127
0
TEXT
8
PART_NAME_01
10
-3.5
20
0
40
0.889
1
U17
41
0.75
7
W0$127
0
TEXT
8
PART_INFO
10
-3.5
20
-1.27
40
0.889
1
000000
41
0.75
7
W0$127
0
TEXT
8
PART_PTS
10
-3.5
20
-2.54
40
0.889
1
1 2 
41
0.75
7
W0$127
0
ENDBLK
0
BLOCK
2
PART_TOP_8
8
0
10
0
20
0
3
PART_TOP_8
70
64
0
INSERT
2
SYM_TOP_11
8
0
10
0
20
0
0
INSERT
2
PKG_8
8
0
10
0
20
0
0
TEXT
8
LABEL_INFO
10
-0.961946
20
0.674982
40
0.889
1
0 0 0 0 0 1
41
0.75
7
W0$127
0
TEXT
8
LABEL_ATTRIBUTE
10
-0.961946
20
0.674982
40
0.889
1
Comment
41
0.75
7
W0$127
0
TEXT
8
ATTRIBUTE_126
10
-0.961946
20
0.674982
40
0.889
1
 
41
0.75
7
W0$127
0
TEXT
8
LABEL_INFO
10
-0.961946
20
1.944982
40
0.889
1
0 0 0 0 0 1
41
0.75
7
W0$127
0
TEXT
8
LABEL_ATTRIBUTE
10
-0.961946
20
1.944982
40
0.889
1
Ref.Des.
41
0.75
7
W0$127
0
TEXT
8
PART_NAME_126
10
-0.961946
20
1.944982
40
0.889
1
R2005
41
0.75
7
W0$127
0
TEXT
8
PART_TYPE_TOP
10
-0.961946
20
0.674982
40
0.889
1
R0402
41
0.75
7
W0$127
0
TEXT
8
PART_INFO
10
-0.961946
20
-0.595018
40
0.889
1
000000
41
0.75
7
W0$127
0
TEXT
8
PART_PTS
10
-0.961946
20
-1.865018
40
0.889
1
1 2 
41
0.75
7
W0$127
0
ENDBLK
0
BLOCK
2
PART_TOP_9
8
0
10
0
20
0
3
PART_TOP_9
70
64
0
INSERT
2
SYM_TOP_3
8
0
10
0
20
0
0
INSERT
2
PKG_0
8
0
10
0
20
0
0
TEXT
8
LABEL_INFO
10
1.2660046667
20
-0.3124273333
40
0.5334
1
0 0 0 0 0 1
41
0.75
7
W0$1016
0
TEXT
8
LABEL_ATTRIBUTE
10
1.2660046667
20
-0.3124273333
40
0.5334
1
Value
41
0.75
7
W0$1016
0
TEXT
8
ATTRIBUTE_01
10
1.2660046667
20
-0.3124273333
40
0.5334
1
270pF
41
0.75
7
W0$1016
0
TEXT
8
LABEL_INFO
10
-0.9392533333
20
0.6200626667
40
0.889
1
0 0 0 0 0 1
41
0.75
7
W0$127
0
TEXT
8
LABEL_ATTRIBUTE
10
-0.9392533333
20
0.6200626667
40
0.889
1
Comment
41
0.75
7
W0$127
0
TEXT
8
ATTRIBUTE_126
10
-0.9392533333
20
0.6200626667
40
0.889
1
 
41
0.75
7
W0$127
0
TEXT
8
LABEL_INFO
10
-0.2919553333
20
-0.24637
40
0.5334
1
0 0 0 0 0 1
41
0.75
7
W0$1016
0
TEXT
8
LABEL_ATTRIBUTE
10
-0.2919553333
20
-0.24637
40
0.5334
1
Ref.Des.
41
0.75
7
W0$1016
0
TEXT
8
PART_NAME_126
10
-0.2919553333
20
-0.24637
40
0.5334
1
C9
41
0.75
7
W0$1016
0
TEXT
8
PART_TYPE_TOP
10
-0.2919553333
20
-1.00837
40
0.5334
1
C0402
41
0.75
7
W0$1016
0
TEXT
8
PART_INFO
10
-0.2919553333
20
-1.77037
40
0.5334
1
000000
41
0.75
7
W0$1016
0
TEXT
8
PART_PTS
10
-0.2919553333
20
-2.53237
40
0.5334
1
1 2 
41
0.75
7
W0$1016
0
ENDBLK
0
BLOCK
2
PART_TOP_10
8
0
10
0
20
0
3
PART_TOP_10
70
64
0
INSERT
2
SYM_TOP_11
8
0
10
0
20
0
0
INSERT
2
PKG_8
8
0
10
0
20
0
0
TEXT
8
LABEL_INFO
10
-0.5069433333
20
-0.241702
40
0.5334
1
0 0 0 0 0 1
41
0.75
7
W0$1016
0
TEXT
8
LABEL_ATTRIBUTE
10
-0.5069433333
20
-0.241702
40
0.5334
1
Value
41
0.75
7
W0$1016
0
TEXT
8
ATTRIBUTE_01
10
-0.5069433333
20
-0.241702
40
0.5334
1
ESD
41
0.75
7
W0$1016
0
TEXT
8
LABEL_INFO
10
-0.961946
20
0.674982
40
0.889
1
0 0 0 0 0 1
41
0.75
7
W0$127
0
TEXT
8
LABEL_ATTRIBUTE
10
-0.961946
20
0.674982
40
0.889
1
Comment
41
0.75
7
W0$127
0
TEXT
8
ATTRIBUTE_126
10
-0.961946
20
0.674982
40
0.889
1
 
41
0.75
7
W0$127
0
TEXT
8
LABEL_INFO
10
-0.961946
20
1.944982
40
0.889
1
0 0 0 0 0 1
41
0.75
7
W0$127
0
TEXT
8
LABEL_ATTRIBUTE
10
-0.961946
20
1.944982
40
0.889
1
Ref.Des.
41
0.75
7
W0$127
0
TEXT
8
PART_NAME_126
10
-0.961946
20
1.944982
40
0.889
1
ED8
41
0.75
7
W0$127
0
TEXT
8
PART_TYPE_TOP
10
-0.961946
20
0.674982
40
0.889
1
R0402
41
0.75
7
W0$127
0
TEXT
8
PART_INFO
10
-0.961946
20
-0.595018
40
0.889
1
000000
41
0.75
7
W0$127
0
TEXT
8
PART_PTS
10
-0.961946
20
-1.865018
40
0.889
1
1 2 
41
0.75
7
W0$127
0
ENDBLK
0
BLOCK
2
PART_TOP_11
8
0
10
0
20
0
3
PART_TOP_11
70
64
0
INSERT
2
SYM_TOP_3
8
0
10
0
20
0
0
INSERT
2
PKG_0
8
0
10
0
20
0
0
TEXT
8
LABEL_INFO
10
1.1914873333
20
-0.28273
40
0.5334
1
0 0 0 0 0 1
41
0.75
7
W0$1016
0
TEXT
8
LABEL_ATTRIBUTE
10
1.1914873333
20
-0.28273
40
0.5334
1
Value
41
0.75
7
W0$1016
0
TEXT
8
ATTRIBUTE_01
10
1.1914873333
20
-0.28273
40
0.5334
1
270pF
41
0.75
7
W0$1016
0
TEXT
8
LABEL_INFO
10
-0.4359006667
20
-0.2378426667
40
0.5334
1
0 0 0 0 0 1
41
0.75
7
W0$1016
0
TEXT
8
LABEL_ATTRIBUTE
10
-0.4359006667
20
-0.2378426667
40
0.5334
1
Ref.Des.
41
0.75
7
W0$1016
0
TEXT
8
PART_NAME_126
10
-0.4359006667
20
-0.2378426667
40
0.5334
1
C11
41
0.75
7
W0$1016
0
TEXT
8
LABEL_INFO
10
-0.9392533333
20
0.6200626667
40
0.889
1
0 0 0 0 0 1
41
0.75
7
W0$127
0
TEXT
8
LABEL_ATTRIBUTE
10
-0.9392533333
20
0.6200626667
40
0.889
1
Comment
41
0.75
7
W0$127
0
TEXT
8
ATTRIBUTE_126
10
-0.9392533333
20
0.6200626667
40
0.889
1
 
41
0.75
7
W0$127
0
TEXT
8
PART_TYPE_TOP
10
-0.9392533333
20
-0.6499373333
40
0.889
1
C0402
41
0.75
7
W0$127
0
TEXT
8
PART_INFO
10
-0.9392533333
20
-1.9199373333
40
0.889
1
000000
41
0.75
7
W0$127
0
TEXT
8
PART_PTS
10
-0.9392533333
20
-3.1899373333
40
0.889
1
1 2 
41
0.75
7
W0$127
0
ENDBLK
0
BLOCK
2
PART_TOP_12
8
0
10
0
20
0
3
PART_TOP_12
70
64
0
INSERT
2
SYM_TOP_8
8
0
10
0
20
0
0
INSERT
2
PKG_5
8
0
10
0
20
0
0
TEXT
8
LABEL_INFO
10
-3.816
20
-3.435
40
0.889
1
0 0 0 2 0 1
73
2
11
-3.816
21
-3.435
41
0.75
7
W0$127
0
TEXT
8
LABEL_ATTRIBUTE
10
-3.816
20
-3.435
40
0.889
1
PartType
73
2
11
-3.816
21
-3.435
41
0.75
7
W0$127
0
TEXT
8
PART_TYPE_01
10
-3.816
20
-3.435
40
0.889
1
EMI
73
3
11
-3.816
21
-3.435
41
0.75
7
W0$127
0
TEXT
8
LABEL_INFO
10
-3.816
20
-3.435
40
0.889
1
0 0 0 0 0 1
41
0.75
7
W0$127
0
TEXT
8
LABEL_ATTRIBUTE
10
-3.816
20
-3.435
40
0.889
1
Ref.Des.
41
0.75
7
W0$127
0
TEXT
8
PART_NAME_01
10
-3.816
20
-3.435
40
0.889
1
J3
41
0.75
7
W0$127
0
TEXT
8
PART_INFO
10
-3.816
20
-4.705
40
0.889
1
000000
41
0.75
7
W0$127
0
TEXT
8
PART_PTS
10
-3.816
20
-5.975
40
0.889
1
1 2 3 4 
41
0.75
7
W0$127
0
ENDBLK
0
BLOCK
2
PART_TOP_13
8
0
10
0
20
0
3
PART_TOP_13
70
64
0
INSERT
2
SYM_TOP_3
8
0
10
0
20
0
0
INSERT
2
PKG_0
8
0
10
0
20
0
0
TEXT
8
LABEL_INFO
10
0.7570746667
20
0.23841
40
0.5334
1
0 324000000 0 0 0 1
50
180
41
0.75
7
W0$1016
0
TEXT
8
LABEL_ATTRIBUTE
10
0.7570746667
20
0.23841
40
0.5334
1
Value
50
180
41
0.75
7
W0$1016
0
TEXT
8
ATTRIBUTE_01
10
0.7570746667
20
0.23841
40
0.5334
1
100nF
50
180
41
0.75
7
W0$1016
0
TEXT
8
LABEL_INFO
10
-0.9392533333
20
1.8900626667
40
0.889
1
0 0 0 0 0 1
41
0.75
7
W0$127
0
TEXT
8
LABEL_ATTRIBUTE
10
-0.9392533333
20
1.8900626667
40
0.889
1
Ref.Des.
41
0.75
7
W0$127
0
TEXT
8
PART_NAME_126
10
-0.9392533333
20
1.8900626667
40
0.889
1
C36
41
0.75
7
W0$127
0
TEXT
8
LABEL_INFO
10
-0.9392533333
20
0.6200626667
40
0.889
1
0 0 0 0 0 1
41
0.75
7
W0$127
0
TEXT
8
LABEL_ATTRIBUTE
10
-0.9392533333
20
0.6200626667
40
0.889
1
Comment
41
0.75
7
W0$127
0
TEXT
8
ATTRIBUTE_126
10
-0.9392533333
20
0.6200626667
40
0.889
1
 
41
0.75
7
W0$127
0
TEXT
8
PART_TYPE_TOP
10
-0.9392533333
20
-0.6499373333
40
0.889
1
C0402
41
0.75
7
W0$127
0
TEXT
8
PART_INFO
10
-0.9392533333
20
-1.9199373333
40
0.889
1
000000
41
0.75
7
W0$127
0
TEXT
8
PART_PTS
10
-0.9392533333
20
-3.1899373333
40
0.889
1
1 2 
41
0.75
7
W0$127
0
ENDBLK
0
BLOCK
2
PART_TOP_14
8
0
10
0
20
0
3
PART_TOP_14
70
64
0
INSERT
2
SYM_TOP_3
8
0
10
0
20
0
0
INSERT
2
PKG_0
8
0
10
0
20
0
0
TEXT
8
LABEL_INFO
10
-0.325528
20
-0.266816
40
0.5334
1
0 0 0 0 0 1
41
0.75
7
W0$1016
0
TEXT
8
LABEL_ATTRIBUTE
10
-0.325528
20
-0.266816
40
0.5334
1
Value
41
0.75
7
W0$1016
0
TEXT
8
ATTRIBUTE_01
10
-0.325528
20
-0.266816
40
0.5334
1
NC
41
0.75
7
W0$1016
0
TEXT
8
LABEL_INFO
10
-0.537322
20
-0.263772
40
0.5334
1
0 0 0 0 0 1
41
0.75
7
W0$1016
0
TEXT
8
LABEL_ATTRIBUTE
10
-0.537322
20
-0.263772
40
0.5334
1
Ref.Des.
41
0.75
7
W0$1016
0
TEXT
8
PART_NAME_126
10
-0.537322
20
-0.263772
40
0.5334
1
C35
41
0.75
7
W0$1016
0
TEXT
8
LABEL_INFO
10
-0.9392533333
20
0.6200626667
40
0.889
1
0 0 0 0 0 1
41
0.75
7
W0$127
0
TEXT
8
LABEL_ATTRIBUTE
10
-0.9392533333
20
0.6200626667
40
0.889
1
Comment
41
0.75
7
W0$127
0
TEXT
8
ATTRIBUTE_126
10
-0.9392533333
20
0.6200626667
40
0.889
1
 
41
0.75
7
W0$127
0
TEXT
8
PART_TYPE_TOP
10
-0.9392533333
20
-0.6499373333
40
0.889
1
C0402
41
0.75
7
W0$127
0
TEXT
8
PART_INFO
10
-0.9392533333
20
-1.9199373333
40
0.889
1
000000
41
0.75
7
W0$127
0
TEXT
8
PART_PTS
10
-0.9392533333
20
-3.1899373333
40
0.889
1
1 2 
41
0.75
7
W0$127
0
ENDBLK
0
BLOCK
2
PART_TOP_15
8
0
10
0
20
0
3
PART_TOP_15
70
64
0
INSERT
2
SYM_TOP_6
8
0
10
0
20
0
0
INSERT
2
PKG_3
8
0
10
0
20
0
0
TEXT
8
LABEL_INFO
10
-0.5919046667
20
-0.2499766667
40
0.5334
1
0 0 0 0 0 1
41
0.75
7
W0$1016
0
TEXT
8
LABEL_ATTRIBUTE
10
-0.5919046667
20
-0.2499766667
40
0.5334
1
Value
41
0.75
7
W0$1016
0
TEXT
8
ATTRIBUTE_01
10
-0.5919046667
20
-0.2499766667
40
0.5334
1
10uF
41
0.75
7
W0$1016
0
TEXT
8
LABEL_INFO
10
-1.9655806667
20
1.1166986667
40
0.889
1
0 0 0 0 0 1
41
0.75
7
W0$127
0
TEXT
8
LABEL_ATTRIBUTE
10
-1.9655806667
20
1.1166986667
40
0.889
1
Comment
41
0.75
7
W0$127
0
TEXT
8
ATTRIBUTE_126
10
-1.9655806667
20
1.1166986667
40
0.889
1
 
41
0.75
7
W0$127
0
TEXT
8
LABEL_INFO
10
0.5002953333
20
0.2326233333
40
0.5334
1
0 324000000 0 0 0 1
50
180
41
0.75
7
W0$1016
0
TEXT
8
LABEL_ATTRIBUTE
10
0.5002953333
20
0.2326233333
40
0.5334
1
Ref.Des.
50
180
41
0.75
7
W0$1016
0
TEXT
8
PART_NAME_126
10
0.5002953333
20
0.2326233333
40
0.5334
1
C37
50
180
41
0.75
7
W0$1016
0
TEXT
8
PART_TYPE_TOP
10
0.5002953333
20
-0.5293766667
40
0.5334
1
C0603
50
180
41
0.75
7
W0$1016
0
TEXT
8
PART_INFO
10
0.5002953333
20
-1.2913766667
40
0.5334
1
000000
50
180
41
0.75
7
W0$1016
0
TEXT
8
PART_PTS
10
0.5002953333
20
-2.0533766667
40
0.5334
1
1 2 
50
180
41
0.75
7
W0$1016
0
ENDBLK
0
BLOCK
2
PART_TOP_16
8
0
10
0
20
0
3
PART_TOP_16
70
64
0
INSERT
2
SYM_TOP_3
8
0
10
0
20
0
0
INSERT
2
PKG_0
8
0
10
0
20
0
0
TEXT
8
LABEL_INFO
10
-0.300128
20
-0.292216
40
0.5334
1
0 0 0 0 0 1
41
0.75
7
W0$1016
0
TEXT
8
LABEL_ATTRIBUTE
10
-0.300128
20
-0.292216
40
0.5334
1
Value
41
0.75
7
W0$1016
0
TEXT
8
ATTRIBUTE_01
10
-0.300128
20
-0.292216
40
0.5334
1
NC
41
0.75
7
W0$1016
0
TEXT
8
LABEL_INFO
10
-0.442484
20
-0.249392
40
0.5334
1
0 0 0 0 0 1
41
0.75
7
W0$1016
0
TEXT
8
LABEL_ATTRIBUTE
10
-0.442484
20
-0.249392
40
0.5334
1
Ref.Des.
41
0.75
7
W0$1016
0
TEXT
8
PART_NAME_126
10
-0.442484
20
-0.249392
40
0.5334
1
C5
41
0.75
7
W0$1016
0
TEXT
8
LABEL_INFO
10
-0.9392533333
20
0.6200626667
40
0.889
1
0 0 0 0 0 1
41
0.75
7
W0$127
0
TEXT
8
LABEL_ATTRIBUTE
10
-0.9392533333
20
0.6200626667
40
0.889
1
Comment
41
0.75
7
W0$127
0
TEXT
8
ATTRIBUTE_126
10
-0.9392533333
20
0.6200626667
40
0.889
1
 
41
0.75
7
W0$127
0
TEXT
8
PART_TYPE_TOP
10
-0.9392533333
20
-0.6499373333
40
0.889
1
C0402
41
0.75
7
W0$127
0
TEXT
8
PART_INFO
10
-0.9392533333
20
-1.9199373333
40
0.889
1
000000
41
0.75
7
W0$127
0
TEXT
8
PART_PTS
10
-0.9392533333
20
-3.1899373333
40
0.889
1
1 2 
41
0.75
7
W0$127
0
ENDBLK
0
BLOCK
2
PART_TOP_17
8
0
10
0
20
0
3
PART_TOP_17
70
64
0
INSERT
2
SYM_TOP_3
8
0
10
0
20
0
0
INSERT
2
PKG_0
8
0
10
0
20
0
0
TEXT
8
LABEL_INFO
10
0.800216
20
0.258672
40
0.5334
1
0 324000000 0 0 0 1
50
180
41
0.75
7
W0$1016
0
TEXT
8
LABEL_ATTRIBUTE
10
0.800216
20
0.258672
40
0.5334
1
Value
50
180
41
0.75
7
W0$1016
0
TEXT
8
ATTRIBUTE_01
10
0.800216
20
0.258672
40
0.5334
1
5.6pF
50
180
41
0.75
7
W0$1016
0
TEXT
8
LABEL_INFO
10
-0.9392533333
20
0.6200626667
40
0.889
1
0 0 0 0 0 1
41
0.75
7
W0$127
0
TEXT
8
LABEL_ATTRIBUTE
10
-0.9392533333
20
0.6200626667
40
0.889
1
Comment
41
0.75
7
W0$127
0
TEXT
8
ATTRIBUTE_126
10
-0.9392533333
20
0.6200626667
40
0.889
1
 
41
0.75
7
W0$127
0
TEXT
8
LABEL_INFO
10
0.5459766667
20
0.2406813333
40
0.5334
1
0 324000000 0 0 0 1
50
180
41
0.75
7
W0$1016
0
TEXT
8
LABEL_ATTRIBUTE
10
0.5459766667
20
0.2406813333
40
0.5334
1
Ref.Des.
50
180
41
0.75
7
W0$1016
0
TEXT
8
PART_NAME_126
10
0.5459766667
20
0.2406813333
40
0.5334
1
C34
50
180
41
0.75
7
W0$1016
0
TEXT
8
PART_TYPE_TOP
10
0.5459766667
20
-0.5213186667
40
0.5334
1
C0402
50
180
41
0.75
7
W0$1016
0
TEXT
8
PART_INFO
10
0.5459766667
20
-1.2833186667
40
0.5334
1
000000
50
180
41
0.75
7
W0$1016
0
TEXT
8
PART_PTS
10
0.5459766667
20
-2.0453186667
40
0.5334
1
1 2 
50
180
41
0.75
7
W0$1016
0
ENDBLK
0
BLOCK
2
PART_TOP_18
8
0
10
0
20
0
3
PART_TOP_18
70
64
0
INSERT
2
SYM_TOP_12
8
0
10
0
20
0
0
INSERT
2
PKG_9
8
0
10
0
20
0
0
TEXT
8
LABEL_INFO
10
-1.5213333333
20
-15.7606666667
40
0.889
1
0 0 0 2 0 1
73
2
11
-1.5213333333
21
-15.7606666667
41
0.75
7
W0$127
0
TEXT
8
LABEL_ATTRIBUTE
10
-1.5213333333
20
-15.7606666667
40
0.889
1
PartType
73
2
11
-1.5213333333
21
-15.7606666667
41
0.75
7
W0$127
0
TEXT
8
PART_TYPE_01
10
-1.5213333333
20
-15.7606666667
40
0.889
1
38PIN_10
73
3
11
-1.5213333333
21
-15.7606666667
41
0.75
7
W0$127
0
TEXT
8
LABEL_INFO
10
-1.419
20
-15.4013333333
40
0.889
1
0 0 0 0 0 1
41
0.75
7
W0$127
0
TEXT
8
LABEL_ATTRIBUTE
10
-1.419
20
-15.4013333333
40
0.889
1
Ref.Des.
41
0.75
7
W0$127
0
TEXT
8
PART_NAME_01
10
-1.419
20
-15.4013333333
40
0.889
1
U16
41
0.75
7
W0$127
0
TEXT
8
PART_INFO
10
-1.419
20
-16.6713333333
40
0.889
1
000000
41
0.75
7
W0$127
0
TEXT
8
PART_PTS
10
-1.419
20
-17.9413333333
40
0.889
1
1 2 3 4 5 6 7 8 9 10 11 12 13 14 15 16 17 18 19 20 21 22 23 24 25 26 27 28 29 30 31 32 33 34 35 36 37 38 
41
0.75
7
W0$127
0
ENDBLK
0
BLOCK
2
PART_TOP_19
8
0
10
0
20
0
3
PART_TOP_19
70
64
0
INSERT
2
SYM_TOP_11
8
0
10
0
20
0
0
INSERT
2
PKG_8
8
0
10
0
20
0
0
TEXT
8
LABEL_INFO
10
-0.961946
20
0.674982
40
0.889
1
0 0 0 0 0 1
41
0.75
7
W0$127
0
TEXT
8
LABEL_ATTRIBUTE
10
-0.961946
20
0.674982
40
0.889
1
Comment
41
0.75
7
W0$127
0
TEXT
8
ATTRIBUTE_126
10
-0.961946
20
0.674982
40
0.889
1
 
41
0.75
7
W0$127
0
TEXT
8
LABEL_INFO
10
-0.961946
20
1.944982
40
0.889
1
0 0 0 0 0 1
41
0.75
7
W0$127
0
TEXT
8
LABEL_ATTRIBUTE
10
-0.961946
20
1.944982
40
0.889
1
Ref.Des.
41
0.75
7
W0$127
0
TEXT
8
PART_NAME_126
10
-0.961946
20
1.944982
40
0.889
1
R2006
41
0.75
7
W0$127
0
TEXT
8
PART_TYPE_TOP
10
-0.961946
20
0.674982
40
0.889
1
R0402
41
0.75
7
W0$127
0
TEXT
8
PART_INFO
10
-0.961946
20
-0.595018
40
0.889
1
000000
41
0.75
7
W0$127
0
TEXT
8
PART_PTS
10
-0.961946
20
-1.865018
40
0.889
1
1 2 
41
0.75
7
W0$127
0
ENDBLK
0
BLOCK
2
SYM_TOP_4
8
0
10
0
20
0
3
SYM_TOP_4
70
64
0
TEXT
8
SYM_NAME
10
0
20
0
40
1.778
1
QFN-49
41
0.75
0
TEXT
8
SYM_PART_TYPE_01
10
-0.35
20
0.594
40
0.889
1
 
73
2
11
-0.35
21
0.594
41
0.75
7
W0$127R0
0
TEXT
8
SYM_PART_NAME_01
10
-0.35
20
0.594
40
0.889
1
 
41
0.75
7
W0$127R0
0
INSERT
2
PART_BODY_TOP_2
8
0
10
0
20
0
0
INSERT
2
STK_TOP_172
8
0
10
-3.5
20
2.75
0
TEXT
8
SYM_TERMINAL
10
0
20
-3.048
40
1.778
1
1
0
INSERT
2
STK_TOP_172
8
0
10
-3.5
20
2.25
0
TEXT
8
SYM_TERMINAL
10
0
20
-6.096
40
1.778
1
2
0
INSERT
2
STK_TOP_172
8
0
10
-3.5
20
1.75
0
TEXT
8
SYM_TERMINAL
10
0
20
-9.144
40
1.778
1
3
0
INSERT
2
STK_TOP_172
8
0
10
-3.5
20
1.25
0
TEXT
8
SYM_TERMINAL
10
0
20
-12.192
40
1.778
1
4
0
INSERT
2
STK_TOP_172
8
0
10
-3.5
20
0.75
0
TEXT
8
SYM_TERMINAL
10
0
20
-15.24
40
1.778
1
5
0
INSERT
2
STK_TOP_172
8
0
10
-3.5
20
0.25
0
TEXT
8
SYM_TERMINAL
10
0
20
-18.288
40
1.778
1
6
0
INSERT
2
STK_TOP_172
8
0
10
-3.5
20
-0.25
0
TEXT
8
SYM_TERMINAL
10
0
20
-21.336
40
1.778
1
7
0
INSERT
2
STK_TOP_172
8
0
10
-3.5
20
-0.75
0
TEXT
8
SYM_TERMINAL
10
0
20
-24.384
40
1.778
1
8
0
INSERT
2
STK_TOP_172
8
0
10
-3.5
20
-1.25
0
TEXT
8
SYM_TERMINAL
10
0
20
-27.432
40
1.778
1
9
0
INSERT
2
STK_TOP_172
8
0
10
-3.5
20
-1.75
0
TEXT
8
SYM_TERMINAL
10
0
20
-30.48
40
1.778
1
10
0
INSERT
2
STK_TOP_172
8
0
10
-3.5
20
-2.25
0
TEXT
8
SYM_TERMINAL
10
0
20
-33.528
40
1.778
1
11
0
INSERT
2
STK_TOP_172
8
0
10
-3.5
20
-2.75
0
TEXT
8
SYM_TERMINAL
10
0
20
-36.576
40
1.778
1
12
0
INSERT
2
STK_TOP_171
8
0
10
-2.75
20
-3.5
0
TEXT
8
SYM_TERMINAL
10
0
20
-39.624
40
1.778
1
13
0
INSERT
2
STK_TOP_171
8
0
10
-2.25
20
-3.5
0
TEXT
8
SYM_TERMINAL
10
0
20
-42.672
40
1.778
1
14
0
INSERT
2
STK_TOP_171
8
0
10
-1.75
20
-3.5
0
TEXT
8
SYM_TERMINAL
10
0
20
-45.72
40
1.778
1
15
0
INSERT
2
STK_TOP_171
8
0
10
-1.25
20
-3.5
0
TEXT
8
SYM_TERMINAL
10
0
20
-48.768
40
1.778
1
16
0
INSERT
2
STK_TOP_171
8
0
10
-0.75
20
-3.5
0
TEXT
8
SYM_TERMINAL
10
0
20
-51.816
40
1.778
1
17
0
INSERT
2
STK_TOP_171
8
0
10
-0.25
20
-3.5
0
TEXT
8
SYM_TERMINAL
10
0
20
-54.864
40
1.778
1
18
0
INSERT
2
STK_TOP_171
8
0
10
0.25
20
-3.5
0
TEXT
8
SYM_TERMINAL
10
0
20
-57.912
40
1.778
1
19
0
INSERT
2
STK_TOP_171
8
0
10
0.75
20
-3.5
0
TEXT
8
SYM_TERMINAL
10
0
20
-60.96
40
1.778
1
20
0
INSERT
2
STK_TOP_171
8
0
10
1.25
20
-3.5
0
TEXT
8
SYM_TERMINAL
10
0
20
-64.008
40
1.778
1
21
0
INSERT
2
STK_TOP_171
8
0
10
1.75
20
-3.5
0
TEXT
8
SYM_TERMINAL
10
0
20
-67.056
40
1.778
1
22
0
INSERT
2
STK_TOP_171
8
0
10
2.25
20
-3.5
0
TEXT
8
SYM_TERMINAL
10
0
20
-70.104
40
1.778
1
23
0
INSERT
2
STK_TOP_171
8
0
10
2.75
20
-3.5
0
TEXT
8
SYM_TERMINAL
10
0
20
-73.152
40
1.778
1
24
0
INSERT
2
STK_TOP_172
8
0
10
3.5
20
-2.75
0
TEXT
8
SYM_TERMINAL
10
0
20
-76.2
40
1.778
1
25
0
INSERT
2
STK_TOP_172
8
0
10
3.5
20
-2.25
0
TEXT
8
SYM_TERMINAL
10
0
20
-79.248
40
1.778
1
26
0
INSERT
2
STK_TOP_172
8
0
10
3.5
20
-1.75
0
TEXT
8
SYM_TERMINAL
10
0
20
-82.296
40
1.778
1
27
0
INSERT
2
STK_TOP_172
8
0
10
3.5
20
-1.25
0
TEXT
8
SYM_TERMINAL
10
0
20
-85.344
40
1.778
1
28
0
INSERT
2
STK_TOP_172
8
0
10
3.5
20
-0.75
0
TEXT
8
SYM_TERMINAL
10
0
20
-88.392
40
1.778
1
29
0
INSERT
2
STK_TOP_172
8
0
10
3.5
20
-0.25
0
TEXT
8
SYM_TERMINAL
10
0
20
-91.44
40
1.778
1
30
0
INSERT
2
STK_TOP_172
8
0
10
3.5
20
0.25
0
TEXT
8
SYM_TERMINAL
10
0
20
-94.488
40
1.778
1
31
0
INSERT
2
STK_TOP_172
8
0
10
3.5
20
0.75
0
TEXT
8
SYM_TERMINAL
10
0
20
-97.536
40
1.778
1
32
0
INSERT
2
STK_TOP_172
8
0
10
3.5
20
1.25
0
TEXT
8
SYM_TERMINAL
10
0
20
-100.584
40
1.778
1
33
0
INSERT
2
STK_TOP_172
8
0
10
3.5
20
1.75
0
TEXT
8
SYM_TERMINAL
10
0
20
-103.632
40
1.778
1
34
0
INSERT
2
STK_TOP_172
8
0
10
3.5
20
2.25
0
TEXT
8
SYM_TERMINAL
10
0
20
-106.68
40
1.778
1
35
0
INSERT
2
STK_TOP_172
8
0
10
3.5
20
2.75
0
TEXT
8
SYM_TERMINAL
10
0
20
-109.728
40
1.778
1
36
0
INSERT
2
STK_TOP_171
8
0
10
2.75
20
3.5
0
TEXT
8
SYM_TERMINAL
10
0
20
-112.776
40
1.778
1
37
0
INSERT
2
STK_TOP_171
8
0
10
2.25
20
3.5
0
TEXT
8
SYM_TERMINAL
10
0
20
-115.824
40
1.778
1
38
0
INSERT
2
STK_TOP_171
8
0
10
1.75
20
3.5
0
TEXT
8
SYM_TERMINAL
10
0
20
-118.872
40
1.778
1
39
0
INSERT
2
STK_TOP_171
8
0
10
1.25
20
3.5
0
TEXT
8
SYM_TERMINAL
10
0
20
-121.92
40
1.778
1
40
0
INSERT
2
STK_TOP_171
8
0
10
0.75
20
3.5
0
TEXT
8
SYM_TERMINAL
10
0
20
-124.968
40
1.778
1
41
0
INSERT
2
STK_TOP_171
8
0
10
0.25
20
3.5
0
TEXT
8
SYM_TERMINAL
10
0
20
-128.016
40
1.778
1
42
0
INSERT
2
STK_TOP_171
8
0
10
-0.25
20
3.5
0
TEXT
8
SYM_TERMINAL
10
0
20
-131.064
40
1.778
1
43
0
INSERT
2
STK_TOP_171
8
0
10
-0.75
20
3.5
0
TEXT
8
SYM_TERMINAL
10
0
20
-134.112
40
1.778
1
44
0
INSERT
2
STK_TOP_171
8
0
10
-1.25
20
3.5
0
TEXT
8
SYM_TERMINAL
10
0
20
-137.16
40
1.778
1
45
0
INSERT
2
STK_TOP_171
8
0
10
-1.75
20
3.5
0
TEXT
8
SYM_TERMINAL
10
0
20
-140.208
40
1.778
1
46
0
INSERT
2
STK_TOP_171
8
0
10
-2.25
20
3.5
0
TEXT
8
SYM_TERMINAL
10
0
20
-143.256
40
1.778
1
47
0
INSERT
2
STK_TOP_171
8
0
10
-2.75
20
3.5
0
TEXT
8
SYM_TERMINAL
10
0
20
-146.304
40
1.778
1
48
0
INSERT
2
STK_TOP_173
8
0
10
0
20
0
0
TEXT
8
SYM_TERMINAL
10
0
20
-149.352
40
1.778
1
49
0
ENDBLK
0
BLOCK
2
PKG_1
8
0
10
0
20
0
3
PKG_1
70
64
0
TEXT
8
PKG_INFO
10
0
20
0
40
1.778
1
*SYM:= 4
0
TEXT
8
PKG_INFO
10
0
20
-3.048
40
1.778
1
*PKG:= 0 QFN-49 UND
0
TEXT
8
PKG_INFO
10
0
20
-6.096
40
1.778
1
*GATE:=0
0
TEXT
8
PKG_INFO
10
0
20
-9.144
40
1.778
1
*GATEPIN:= 0 9 1 <>
0
TEXT
8
PKG_INFO
10
0
20
-12.192
40
1.778
1
*GATEPIN:= 0 9 2 <>
0
TEXT
8
PKG_INFO
10
0
20
-15.24
40
1.778
1
*GATEPIN:= 0 9 3 <>
0
TEXT
8
PKG_INFO
10
0
20
-18.288
40
1.778
1
*GATEPIN:= 0 9 4 <>
0
TEXT
8
PKG_INFO
10
0
20
-21.336
40
1.778
1
*GATEPIN:= 0 9 5 <>
0
TEXT
8
PKG_INFO
10
0
20
-24.384
40
1.778
1
*GATEPIN:= 0 9 6 <>
0
TEXT
8
PKG_INFO
10
0
20
-27.432
40
1.778
1
*GATEPIN:= 0 9 7 <>
0
TEXT
8
PKG_INFO
10
0
20
-30.48
40
1.778
1
*GATEPIN:= 0 9 8 <>
0
TEXT
8
PKG_INFO
10
0
20
-33.528
40
1.778
1
*GATEPIN:= 0 9 9 <>
0
TEXT
8
PKG_INFO
10
0
20
-36.576
40
1.778
1
*GATEPIN:= 0 9 10 <>
0
TEXT
8
PKG_INFO
10
0
20
-39.624
40
1.778
1
*GATEPIN:= 0 9 11 <>
0
TEXT
8
PKG_INFO
10
0
20
-42.672
40
1.778
1
*GATEPIN:= 0 9 12 <>
0
TEXT
8
PKG_INFO
10
0
20
-45.72
40
1.778
1
*GATEPIN:= 0 9 13 <>
0
TEXT
8
PKG_INFO
10
0
20
-48.768
40
1.778
1
*GATEPIN:= 0 9 14 <>
0
TEXT
8
PKG_INFO
10
0
20
-51.816
40
1.778
1
*GATEPIN:= 0 9 15 <>
0
TEXT
8
PKG_INFO
10
0
20
-54.864
40
1.778
1
*GATEPIN:= 0 9 16 <>
0
TEXT
8
PKG_INFO
10
0
20
-57.912
40
1.778
1
*GATEPIN:= 0 9 17 <>
0
TEXT
8
PKG_INFO
10
0
20
-60.96
40
1.778
1
*GATEPIN:= 0 9 18 <>
0
TEXT
8
PKG_INFO
10
0
20
-64.008
40
1.778
1
*GATEPIN:= 0 9 19 <>
0
TEXT
8
PKG_INFO
10
0
20
-67.056
40
1.778
1
*GATEPIN:= 0 9 20 <>
0
TEXT
8
PKG_INFO
10
0
20
-70.104
40
1.778
1
*GATEPIN:= 0 9 21 <>
0
TEXT
8
PKG_INFO
10
0
20
-73.152
40
1.778
1
*GATEPIN:= 0 9 22 <>
0
TEXT
8
PKG_INFO
10
0
20
-76.2
40
1.778
1
*GATEPIN:= 0 9 23 <>
0
TEXT
8
PKG_INFO
10
0
20
-79.248
40
1.778
1
*GATEPIN:= 0 9 24 <>
0
TEXT
8
PKG_INFO
10
0
20
-82.296
40
1.778
1
*GATEPIN:= 0 9 25 <>
0
TEXT
8
PKG_INFO
10
0
20
-85.344
40
1.778
1
*GATEPIN:= 0 9 26 <>
0
TEXT
8
PKG_INFO
10
0
20
-88.392
40
1.778
1
*GATEPIN:= 0 9 27 <>
0
TEXT
8
PKG_INFO
10
0
20
-91.44
40
1.778
1
*GATEPIN:= 0 9 28 <>
0
TEXT
8
PKG_INFO
10
0
20
-94.488
40
1.778
1
*GATEPIN:= 0 9 29 <>
0
TEXT
8
PKG_INFO
10
0
20
-97.536
40
1.778
1
*GATEPIN:= 0 9 30 <>
0
TEXT
8
PKG_INFO
10
0
20
-100.584
40
1.778
1
*GATEPIN:= 0 9 31 <>
0
TEXT
8
PKG_INFO
10
0
20
-103.632
40
1.778
1
*GATEPIN:= 0 9 32 <>
0
TEXT
8
PKG_INFO
10
0
20
-106.68
40
1.778
1
*GATEPIN:= 0 9 33 <>
0
TEXT
8
PKG_INFO
10
0
20
-109.728
40
1.778
1
*GATEPIN:= 0 9 34 <>
0
TEXT
8
PKG_INFO
10
0
20
-112.776
40
1.778
1
*GATEPIN:= 0 9 35 <>
0
TEXT
8
PKG_INFO
10
0
20
-115.824
40
1.778
1
*GATEPIN:= 0 9 36 <>
0
TEXT
8
PKG_INFO
10
0
20
-118.872
40
1.778
1
*GATEPIN:= 0 9 37 <>
0
TEXT
8
PKG_INFO
10
0
20
-121.92
40
1.778
1
*GATEPIN:= 0 9 38 <>
0
TEXT
8
PKG_INFO
10
0
20
-124.968
40
1.778
1
*GATEPIN:= 0 9 39 <>
0
TEXT
8
PKG_INFO
10
0
20
-128.016
40
1.778
1
*GATEPIN:= 0 9 40 <>
0
TEXT
8
PKG_INFO
10
0
20
-131.064
40
1.778
1
*GATEPIN:= 0 9 41 <>
0
TEXT
8
PKG_INFO
10
0
20
-134.112
40
1.778
1
*GATEPIN:= 0 9 42 <>
0
TEXT
8
PKG_INFO
10
0
20
-137.16
40
1.778
1
*GATEPIN:= 0 9 43 <>
0
TEXT
8
PKG_INFO
10
0
20
-140.208
40
1.778
1
*GATEPIN:= 0 9 44 <>
0
TEXT
8
PKG_INFO
10
0
20
-143.256
40
1.778
1
*GATEPIN:= 0 9 45 <>
0
TEXT
8
PKG_INFO
10
0
20
-146.304
40
1.778
1
*GATEPIN:= 0 9 46 <>
0
TEXT
8
PKG_INFO
10
0
20
-149.352
40
1.778
1
*GATEPIN:= 0 9 47 <>
0
TEXT
8
PKG_INFO
10
0
20
-152.4
40
1.778
1
*GATEPIN:= 0 9 48 <>
0
TEXT
8
PKG_INFO
10
0
20
-155.448
40
1.778
1
*GATEPIN:= 0 9 49 <>
0
ENDBLK
0
BLOCK
2
SYM_TOP_15
8
0
10
0
20
0
3
SYM_TOP_15
70
64
0
TEXT
8
SYM_NAME
10
0
20
0
40
1.778
1
EMIJIAZI2C
41
0.75
0
TEXT
8
SYM_PART_NAME_01
10
-3.816
20
-3.435
40
0.889
1
 
41
0.75
7
W0$127R0
0
TEXT
8
SYM_PART_TYPE_01
10
-3.816
20
-3.435
40
0.889
1
 
73
2
11
-3.816
21
-3.435
41
0.75
7
W0$127R0
0
INSERT
2
PART_BODY_TOP_16
8
0
10
0
20
0
0
INSERT
2
STK_TOP_377
8
0
10
-2.3
20
0
0
TEXT
8
SYM_TERMINAL
10
0
20
-3.048
40
1.778
1
1
0
INSERT
2
STK_TOP_416
8
0
10
-1.65
20
0
0
TEXT
8
SYM_TERMINAL
10
0
20
-6.096
40
1.778
1
2
0
ENDBLK
0
BLOCK
2
PKG_4
8
0
10
0
20
0
3
PKG_4
70
64
0
TEXT
8
PKG_INFO
10
0
20
0
40
1.778
1
*SYM:= 7 13 14 15
0
TEXT
8
PKG_INFO
10
0
20
-3.048
40
1.778
1
*PKG:= 0 EMIJIAZI2 UND
0
TEXT
8
PKG_INFO
10
0
20
-6.096
40
1.778
1
*GATE:=0
0
TEXT
8
PKG_INFO
10
0
20
-9.144
40
1.778
1
*GATEPIN:= 0 9 1 <>
0
TEXT
8
PKG_INFO
10
0
20
-12.192
40
1.778
1
*GATEPIN:= 0 9 2 <>
0
ENDBLK
0
BLOCK
2
SYM_TOP_14
8
0
10
0
20
0
3
SYM_TOP_14
70
64
0
TEXT
8
SYM_NAME
10
0
20
0
40
1.778
1
EMIJIAZI2B
41
0.75
0
TEXT
8
SYM_PART_NAME_01
10
-3.816
20
-3.435
40
0.889
1
 
41
0.75
7
W0$127R0
0
TEXT
8
SYM_PART_TYPE_01
10
-3.816
20
-3.435
40
0.889
1
 
73
2
11
-3.816
21
-3.435
41
0.75
7
W0$127R0
0
INSERT
2
PART_BODY_TOP_14
8
0
10
0
20
0
0
INSERT
2
STK_TOP_378
8
0
10
-3.05
20
0
0
TEXT
8
SYM_TERMINAL
10
0
20
-3.048
40
1.778
1
1
0
INSERT
2
STK_TOP_378
8
0
10
-1.65
20
0
0
TEXT
8
SYM_TERMINAL
10
0
20
-6.096
40
1.778
1
2
0
ENDBLK
0
BLOCK
2
SYM_TOP_13
8
0
10
0
20
0
3
SYM_TOP_13
70
64
0
TEXT
8
SYM_NAME
10
0
20
0
40
1.778
1
EMIJIAZI2A
41
0.75
0
TEXT
8
SYM_PART_NAME_01
10
-3.816
20
-3.435
40
0.889
1
 
41
0.75
7
W0$127R0
0
TEXT
8
SYM_PART_TYPE_01
10
-3.816
20
-3.435
40
0.889
1
 
73
2
11
-3.816
21
-3.435
41
0.75
7
W0$127R0
0
INSERT
2
PART_BODY_TOP_13
8
0
10
0
20
0
0
INSERT
2
STK_TOP_377
8
0
10
-2.8
20
0
0
TEXT
8
SYM_TERMINAL
10
0
20
-3.048
40
1.778
1
1
0
INSERT
2
STK_TOP_378
8
0
10
-1.65
20
0
0
TEXT
8
SYM_TERMINAL
10
0
20
-6.096
40
1.778
1
2
0
ENDBLK
0
BLOCK
2
SYM_TOP_9
8
0
10
0
20
0
3
SYM_TOP_9
70
64
0
TEXT
8
SYM_NAME
10
0
20
0
40
1.778
1
EMIJIAZI3
41
0.75
0
TEXT
8
SYM_PART_NAME_01
10
-3.816
20
-3.435
40
0.889
1
 
41
0.75
7
W0$127R0
0
TEXT
8
SYM_PART_TYPE_01
10
-3.816
20
-3.435
40
0.889
1
 
73
2
11
-3.816
21
-3.435
41
0.75
7
W0$127R0
0
INSERT
2
PART_BODY_TOP_8
8
0
10
0
20
0
0
INSERT
2
STK_TOP_377
8
0
10
-3.05
20
0
0
TEXT
8
SYM_TERMINAL
10
0
20
-3.048
40
1.778
1
1
0
INSERT
2
STK_TOP_378
8
0
10
-1.65
20
0
0
TEXT
8
SYM_TERMINAL
10
0
20
-6.096
40
1.778
1
2
0
INSERT
2
STK_TOP_411
8
0
10
0.5
20
0
0
TEXT
8
SYM_TERMINAL
10
0
20
-9.144
40
1.778
1
3
0
ENDBLK
0
BLOCK
2
PKG_6
8
0
10
0
20
0
3
PKG_6
70
64
0
TEXT
8
PKG_INFO
10
0
20
0
40
1.778
1
*SYM:= 9
0
TEXT
8
PKG_INFO
10
0
20
-3.048
40
1.778
1
*PKG:= 0 EMIJIAZI3 UND
0
TEXT
8
PKG_INFO
10
0
20
-6.096
40
1.778
1
*GATE:=0
0
TEXT
8
PKG_INFO
10
0
20
-9.144
40
1.778
1
*GATEPIN:= 0 9 1 <>
0
TEXT
8
PKG_INFO
10
0
20
-12.192
40
1.778
1
*GATEPIN:= 0 9 2 <>
0
TEXT
8
PKG_INFO
10
0
20
-15.24
40
1.778
1
*GATEPIN:= 0 9 3 <>
0
ENDBLK
0
BLOCK
2
SYM_TOP_7
8
0
10
0
20
0
3
SYM_TOP_7
70
64
0
TEXT
8
SYM_NAME
10
0
20
0
40
1.778
1
EMIJIAZI2
41
0.75
0
TEXT
8
SYM_PART_NAME_01
10
-3.816
20
-3.435
40
0.889
1
 
41
0.75
7
W0$127R0
0
TEXT
8
SYM_PART_TYPE_01
10
-3.816
20
-3.435
40
0.889
1
 
73
2
11
-3.816
21
-3.435
41
0.75
7
W0$127R0
0
INSERT
2
PART_BODY_TOP_6
8
0
10
0
20
0
0
INSERT
2
STK_TOP_377
8
0
10
-3.05
20
0
0
TEXT
8
SYM_TERMINAL
10
0
20
-3.048
40
1.778
1
1
0
INSERT
2
STK_TOP_378
8
0
10
-1.65
20
0
0
TEXT
8
SYM_TERMINAL
10
0
20
-6.096
40
1.778
1
2
0
ENDBLK
0
BLOCK
2
SYM_TOP_5
8
0
10
0
20
0
3
SYM_TOP_5
70
64
0
TEXT
8
SYM_NAME
10
0
20
0
40
1.778
1
ANT_JACK
41
0.75
0
TEXT
8
SYM_ATTRIBUTE_126
10
-1.2319206667
20
3.24464
40
0.889
1
Comment
41
0.75
7
W0$127R0
0
TEXT
8
SYM_PART_NAME_126
10
-1.2319206667
20
4.51464
40
0.889
1
 
41
0.75
7
W0$127R0
0
INSERT
2
PART_BODY_TOP_3
8
0
10
0
20
0
0
INSERT
2
STK_TOP_136
8
0
10
-0.7319206667
20
1.3014373333
0
TEXT
8
SYM_TERMINAL
10
0
20
-3.048
40
1.778
1
1
0
INSERT
2
STK_TOP_137
8
0
10
0.798078
20
2.54144
0
TEXT
8
SYM_TERMINAL
10
0
20
-6.096
40
1.778
1
2
0
INSERT
2
STK_TOP_137
8
0
10
0.798078
20
0.02144
0
TEXT
8
SYM_TERMINAL
10
0
20
-9.144
40
1.778
1
3
0
ENDBLK
0
BLOCK
2
PKG_2
8
0
10
0
20
0
3
PKG_2
70
64
0
TEXT
8
PKG_INFO
10
0
20
0
40
1.778
1
*SYM:= 5
0
TEXT
8
PKG_INFO
10
0
20
-3.048
40
1.778
1
*PKG:= 0 ANT_JACK UND
0
TEXT
8
PKG_INFO
10
0
20
-6.096
40
1.778
1
*GATE:=0
0
TEXT
8
PKG_INFO
10
0
20
-9.144
40
1.778
1
*GATEPIN:= 0 9 1 <>
0
TEXT
8
PKG_INFO
10
0
20
-12.192
40
1.778
1
*GATEPIN:= 0 9 2 <>
0
TEXT
8
PKG_INFO
10
0
20
-15.24
40
1.778
1
*GATEPIN:= 0 9 3 <>
0
ENDBLK
0
BLOCK
2
SYM_TOP_10
8
0
10
0
20
0
3
SYM_TOP_10
70
64
0
TEXT
8
SYM_NAME
10
0
20
0
40
1.778
1
ANT2
41
0.75
0
TEXT
8
SYM_PART_NAME_01
10
-3.5
20
0
40
0.889
1
 
41
0.75
7
W0$127R0
0
TEXT
8
SYM_PART_TYPE_01
10
-3.5
20
0
40
0.889
1
 
73
2
11
-3.5
21
0
41
0.75
7
W0$127R0
0
INSERT
2
PART_BODY_TOP_10
8
0
10
0
20
0
0
INSERT
2
STK_TOP_373
8
0
10
-5
20
0
0
TEXT
8
SYM_TERMINAL
10
0
20
-3.048
40
1.778
1
1
0
INSERT
2
STK_TOP_373
8
0
10
0
20
0
0
TEXT
8
SYM_TERMINAL
10
0
20
-6.096
40
1.778
1
2
0
ENDBLK
0
BLOCK
2
PKG_7
8
0
10
0
20
0
3
PKG_7
70
64
0
TEXT
8
PKG_INFO
10
0
20
0
40
1.778
1
*SYM:= 10
0
TEXT
8
PKG_INFO
10
0
20
-3.048
40
1.778
1
*PKG:= 0 ANT2 UND
0
TEXT
8
PKG_INFO
10
0
20
-6.096
40
1.778
1
*GATE:=0
0
TEXT
8
PKG_INFO
10
0
20
-9.144
40
1.778
1
*GATEPIN:= 0 9 1 <>
0
TEXT
8
PKG_INFO
10
0
20
-12.192
40
1.778
1
*GATEPIN:= 0 9 2 <>
0
ENDBLK
0
BLOCK
2
SYM_TOP_11
8
0
10
0
20
0
3
SYM_TOP_11
70
64
0
TEXT
8
SYM_NAME
10
0
20
0
40
1.778
1
R0402
41
0.75
0
TEXT
8
SYM_PART_NAME_126
10
-0.961946
20
1.944982
40
0.889
1
 
41
0.75
7
W0$127R0
0
TEXT
8
SYM_ATTRIBUTE_126
10
-0.961946
20
0.674982
40
0.889
1
Comment
41
0.75
7
W0$127R0
0
INSERT
2
PART_BODY_TOP_11
8
0
10
0
20
0
0
INSERT
2
STK_TOP_4
8
0
10
-0.4484593333
20
0.0082826667
0
TEXT
8
SYM_TERMINAL
10
0
20
-3.048
40
1.778
1
1
0
INSERT
2
STK_TOP_4
8
0
10
0.451566
20
0.00828
0
TEXT
8
SYM_TERMINAL
10
0
20
-6.096
40
1.778
1
2
0
ENDBLK
0
BLOCK
2
PKG_8
8
0
10
0
20
0
3
PKG_8
70
64
0
TEXT
8
PKG_INFO
10
0
20
0
40
1.778
1
*SYM:= 11
0
TEXT
8
PKG_INFO
10
0
20
-3.048
40
1.778
1
*PKG:= 0 R0402 UND
0
ENDBLK
0
BLOCK
2
SYM_TOP_3
8
0
10
0
20
0
3
SYM_TOP_3
70
64
0
TEXT
8
SYM_NAME
10
0
20
0
40
1.778
1
C0402
41
0.75
0
TEXT
8
SYM_ATTRIBUTE_126
10
-0.9392533333
20
0.6200626667
40
0.889
1
Comment
41
0.75
7
W0$127R0
0
TEXT
8
SYM_PART_NAME_126
10
-0.9392533333
20
1.8900626667
40
0.889
1
 
41
0.75
7
W0$127R0
0
INSERT
2
PART_BODY_TOP_1
8
0
10
0
20
0
0
INSERT
2
STK_TOP_4
8
0
10
-0.4450713333
20
0.0033653333
0
TEXT
8
SYM_TERMINAL
10
0
20
-3.048
40
1.778
1
1
0
INSERT
2
STK_TOP_4
8
0
10
0.4549266667
20
0.0033653333
0
TEXT
8
SYM_TERMINAL
10
0
20
-6.096
40
1.778
1
2
0
ENDBLK
0
BLOCK
2
PKG_0
8
0
10
0
20
0
3
PKG_0
70
64
0
TEXT
8
PKG_INFO
10
0
20
0
40
1.778
1
*SYM:= 3
0
TEXT
8
PKG_INFO
10
0
20
-3.048
40
1.778
1
*PKG:= 0 C0402 UND
0
ENDBLK
0
BLOCK
2
SYM_TOP_8
8
0
10
0
20
0
3
SYM_TOP_8
70
64
0
TEXT
8
SYM_NAME
10
0
20
0
40
1.778
1
EMI
41
0.75
0
TEXT
8
SYM_PART_NAME_01
10
-3.816
20
-3.435
40
0.889
1
 
41
0.75
7
W0$127R0
0
TEXT
8
SYM_PART_TYPE_01
10
-3.816
20
-3.435
40
0.889
1
 
73
2
11
-3.816
21
-3.435
41
0.75
7
W0$127R0
0
INSERT
2
PART_BODY_TOP_7
8
0
10
0
20
0
0
INSERT
2
STK_TOP_377
8
0
10
-3.05
20
0
0
TEXT
8
SYM_TERMINAL
10
0
20
-3.048
40
1.778
1
1
0
INSERT
2
STK_TOP_378
8
0
10
-1.65
20
0
0
TEXT
8
SYM_TERMINAL
10
0
20
-6.096
40
1.778
1
2
0
INSERT
2
STK_TOP_379
8
0
10
0
20
0
0
TEXT
8
SYM_TERMINAL
10
0
20
-9.144
40
1.778
1
3
0
INSERT
2
STK_TOP_378
8
0
10
1
20
0
0
TEXT
8
SYM_TERMINAL
10
0
20
-12.192
40
1.778
1
4
0
ENDBLK
0
BLOCK
2
PKG_5
8
0
10
0
20
0
3
PKG_5
70
64
0
TEXT
8
PKG_INFO
10
0
20
0
40
1.778
1
*SYM:= 8
0
TEXT
8
PKG_INFO
10
0
20
-3.048
40
1.778
1
*PKG:= 0 EMI UND
0
TEXT
8
PKG_INFO
10
0
20
-6.096
40
1.778
1
*GATE:=0
0
TEXT
8
PKG_INFO
10
0
20
-9.144
40
1.778
1
*GATEPIN:= 0 9 1 <>
0
TEXT
8
PKG_INFO
10
0
20
-12.192
40
1.778
1
*GATEPIN:= 0 9 2 <>
0
TEXT
8
PKG_INFO
10
0
20
-15.24
40
1.778
1
*GATEPIN:= 0 9 3 <>
0
TEXT
8
PKG_INFO
10
0
20
-18.288
40
1.778
1
*GATEPIN:= 0 9 4 <>
0
ENDBLK
0
BLOCK
2
SYM_TOP_6
8
0
10
0
20
0
3
SYM_TOP_6
70
64
0
TEXT
8
SYM_NAME
10
0
20
0
40
1.778
1
C0603
41
0.75
0
TEXT
8
SYM_ATTRIBUTE_126
10
-1.5731813333
20
0.8081386667
40
0.889
1
Comment
41
0.75
7
W0$127R0
0
TEXT
8
SYM_PART_NAME_126
10
-1.5731813333
20
2.0781386667
40
0.889
1
 
41
0.75
7
W0$127R0
0
INSERT
2
PART_BODY_TOP_4
8
0
10
0
20
0
0
INSERT
2
STK_TOP_138
8
0
10
-0.8119286667
20
-0.0085593333
0
TEXT
8
SYM_TERMINAL
10
0
20
-3.048
40
1.778
1
1
0
INSERT
2
STK_TOP_138
8
0
10
0.7880753333
20
-0.0085593333
0
TEXT
8
SYM_TERMINAL
10
0
20
-6.096
40
1.778
1
2
0
ENDBLK
0
BLOCK
2
PKG_3
8
0
10
0
20
0
3
PKG_3
70
64
0
TEXT
8
PKG_INFO
10
0
20
0
40
1.778
1
*SYM:= 6
0
TEXT
8
PKG_INFO
10
0
20
-3.048
40
1.778
1
*PKG:= 0 C0603 UND
0
ENDBLK
0
BLOCK
2
SYM_TOP_12
8
0
10
0
20
0
3
SYM_TOP_12
70
64
0
TEXT
8
SYM_NAME
10
0
20
0
40
1.778
1
38PIN_10
41
0.75
0
TEXT
8
SYM_PART_NAME_01
10
-1.419
20
-15.4013333333
40
0.889
1
 
41
0.75
7
W0$127R0
0
TEXT
8
SYM_PART_TYPE_01
10
-1.5213333333
20
-15.7606666667
40
0.889
1
 
73
2
11
-1.5213333333
21
-15.7606666667
41
0.75
7
W0$127R0
0
INSERT
2
PART_BODY_TOP_12
8
0
10
0
20
0
0
INSERT
2
STK_TOP_391
8
0
10
0
20
4
0
TEXT
8
SYM_TERMINAL
10
0
20
-3.048
40
1.778
1
1
0
INSERT
2
STK_TOP_391
8
0
10
0
20
3
0
TEXT
8
SYM_TERMINAL
10
0
20
-6.096
40
1.778
1
2
0
INSERT
2
STK_TOP_391
8
0
10
0
20
2
0
TEXT
8
SYM_TERMINAL
10
0
20
-9.144
40
1.778
1
3
0
INSERT
2
STK_TOP_391
8
0
10
0
20
1
0
TEXT
8
SYM_TERMINAL
10
0
20
-12.192
40
1.778
1
4
0
INSERT
2
STK_TOP_391
8
0
10
0
20
0
0
TEXT
8
SYM_TERMINAL
10
0
20
-15.24
40
1.778
1
5
0
INSERT
2
STK_TOP_391
8
0
10
0
20
-1
0
TEXT
8
SYM_TERMINAL
10
0
20
-18.288
40
1.778
1
6
0
INSERT
2
STK_TOP_391
8
0
10
0
20
-2
0
TEXT
8
SYM_TERMINAL
10
0
20
-21.336
40
1.778
1
7
0
INSERT
2
STK_TOP_391
8
0
10
0
20
-3
0
TEXT
8
SYM_TERMINAL
10
0
20
-24.384
40
1.778
1
8
0
INSERT
2
STK_TOP_391
8
0
10
0
20
-4
0
TEXT
8
SYM_TERMINAL
10
0
20
-27.432
40
1.778
1
9
0
INSERT
2
STK_TOP_391
8
0
10
0
20
-5
0
TEXT
8
SYM_TERMINAL
10
0
20
-30.48
40
1.778
1
10
0
INSERT
2
STK_TOP_391
8
0
10
0
20
-6
0
TEXT
8
SYM_TERMINAL
10
0
20
-33.528
40
1.778
1
11
0
INSERT
2
STK_TOP_391
8
0
10
0
20
-7
0
TEXT
8
SYM_TERMINAL
10
0
20
-36.576
40
1.778
1
12
0
INSERT
2
STK_TOP_391
8
0
10
0
20
-8
0
TEXT
8
SYM_TERMINAL
10
0
20
-39.624
40
1.778
1
13
0
INSERT
2
STK_TOP_391
8
0
10
0
20
-9
0
TEXT
8
SYM_TERMINAL
10
0
20
-42.672
40
1.778
1
14
0
INSERT
2
STK_TOP_391
8
0
10
0
20
-10
0
TEXT
8
SYM_TERMINAL
10
0
20
-45.72
40
1.778
1
15
0
INSERT
2
STK_TOP_391
8
0
10
3
20
-11.5
0
TEXT
8
SYM_TERMINAL
10
0
20
-48.768
40
1.778
1
16
0
INSERT
2
STK_TOP_391
8
0
10
4
20
-11.5
0
TEXT
8
SYM_TERMINAL
10
0
20
-51.816
40
1.778
1
17
0
INSERT
2
STK_TOP_391
8
0
10
5
20
-11.5
0
TEXT
8
SYM_TERMINAL
10
0
20
-54.864
40
1.778
1
18
0
INSERT
2
STK_TOP_391
8
0
10
6
20
-11.5
0
TEXT
8
SYM_TERMINAL
10
0
20
-57.912
40
1.778
1
19
0
INSERT
2
STK_TOP_391
8
0
10
7
20
-11.5
0
TEXT
8
SYM_TERMINAL
10
0
20
-60.96
40
1.778
1
20
0
INSERT
2
STK_TOP_391
8
0
10
8
20
-11.5
0
TEXT
8
SYM_TERMINAL
10
0
20
-64.008
40
1.778
1
21
0
INSERT
2
STK_TOP_391
8
0
10
9
20
-11.5
0
TEXT
8
SYM_TERMINAL
10
0
20
-67.056
40
1.778
1
22
0
INSERT
2
STK_TOP_391
8
0
10
10
20
-11.5
0
TEXT
8
SYM_TERMINAL
10
0
20
-70.104
40
1.778
1
23
0
INSERT
2
STK_TOP_391
8
0
10
13
20
-10
0
TEXT
8
SYM_TERMINAL
10
0
20
-73.152
40
1.778
1
24
0
INSERT
2
STK_TOP_391
8
0
10
13
20
-9
0
TEXT
8
SYM_TERMINAL
10
0
20
-76.2
40
1.778
1
25
0
INSERT
2
STK_TOP_391
8
0
10
13
20
-8
0
TEXT
8
SYM_TERMINAL
10
0
20
-79.248
40
1.778
1
26
0
INSERT
2
STK_TOP_391
8
0
10
13
20
-7
0
TEXT
8
SYM_TERMINAL
10
0
20
-82.296
40
1.778
1
27
0
INSERT
2
STK_TOP_391
8
0
10
13
20
-6
0
TEXT
8
SYM_TERMINAL
10
0
20
-85.344
40
1.778
1
28
0
INSERT
2
STK_TOP_391
8
0
10
13
20
-5
0
TEXT
8
SYM_TERMINAL
10
0
20
-88.392
40
1.778
1
29
0
INSERT
2
STK_TOP_391
8
0
10
13
20
-4
0
TEXT
8
SYM_TERMINAL
10
0
20
-91.44
40
1.778
1
30
0
INSERT
2
STK_TOP_391
8
0
10
13
20
-3
0
TEXT
8
SYM_TERMINAL
10
0
20
-94.488
40
1.778
1
31
0
INSERT
2
STK_TOP_391
8
0
10
13
20
-2
0
TEXT
8
SYM_TERMINAL
10
0
20
-97.536
40
1.778
1
32
0
INSERT
2
STK_TOP_391
8
0
10
13
20
-1
0
TEXT
8
SYM_TERMINAL
10
0
20
-100.584
40
1.778
1
33
0
INSERT
2
STK_TOP_391
8
0
10
13
20
0
0
TEXT
8
SYM_TERMINAL
10
0
20
-103.632
40
1.778
1
34
0
INSERT
2
STK_TOP_391
8
0
10
13
20
1
0
TEXT
8
SYM_TERMINAL
10
0
20
-106.68
40
1.778
1
35
0
INSERT
2
STK_TOP_391
8
0
10
13
20
2
0
TEXT
8
SYM_TERMINAL
10
0
20
-109.728
40
1.778
1
36
0
INSERT
2
STK_TOP_391
8
0
10
13
20
3
0
TEXT
8
SYM_TERMINAL
10
0
20
-112.776
40
1.778
1
37
0
INSERT
2
STK_TOP_391
8
0
10
13
20
4
0
TEXT
8
SYM_TERMINAL
10
0
20
-115.824
40
1.778
1
38
0
ENDBLK
0
BLOCK
2
PKG_9
8
0
10
0
20
0
3
PKG_9
70
64
0
TEXT
8
PKG_INFO
10
0
20
0
40
1.778
1
*SYM:= 12
0
TEXT
8
PKG_INFO
10
0
20
-3.048
40
1.778
1
*PKG:= 0 38PIN_10 UND
0
TEXT
8
PKG_INFO
10
0
20
-6.096
40
1.778
1
*GATE:=0
0
TEXT
8
PKG_INFO
10
0
20
-9.144
40
1.778
1
*GATEPIN:= 0 9 5 <>
0
TEXT
8
PKG_INFO
10
0
20
-12.192
40
1.778
1
*GATEPIN:= 0 9 6 <>
0
TEXT
8
PKG_INFO
10
0
20
-15.24
40
1.778
1
*GATEPIN:= 0 9 7 <>
0
TEXT
8
PKG_INFO
10
0
20
-18.288
40
1.778
1
*GATEPIN:= 0 9 8 <>
0
TEXT
8
PKG_INFO
10
0
20
-21.336
40
1.778
1
*GATEPIN:= 0 9 9 <>
0
TEXT
8
PKG_INFO
10
0
20
-24.384
40
1.778
1
*GATEPIN:= 0 9 10 <>
0
TEXT
8
PKG_INFO
10
0
20
-27.432
40
1.778
1
*GATEPIN:= 0 9 11 <>
0
TEXT
8
PKG_INFO
10
0
20
-30.48
40
1.778
1
*GATEPIN:= 0 9 12 <>
0
TEXT
8
PKG_INFO
10
0
20
-33.528
40
1.778
1
*GATEPIN:= 0 9 13 <>
0
TEXT
8
PKG_INFO
10
0
20
-36.576
40
1.778
1
*GATEPIN:= 0 9 14 <>
0
TEXT
8
PKG_INFO
10
0
20
-39.624
40
1.778
1
*GATEPIN:= 0 9 15 <>
0
TEXT
8
PKG_INFO
10
0
20
-42.672
40
1.778
1
*GATEPIN:= 0 9 16 <>
0
TEXT
8
PKG_INFO
10
0
20
-45.72
40
1.778
1
*GATEPIN:= 0 9 17 <>
0
TEXT
8
PKG_INFO
10
0
20
-48.768
40
1.778
1
*GATEPIN:= 0 9 18 <>
0
TEXT
8
PKG_INFO
10
0
20
-51.816
40
1.778
1
*GATEPIN:= 0 9 19 <>
0
TEXT
8
PKG_INFO
10
0
20
-54.864
40
1.778
1
*GATEPIN:= 0 9 20 <>
0
TEXT
8
PKG_INFO
10
0
20
-57.912
40
1.778
1
*GATEPIN:= 0 9 21 <>
0
TEXT
8
PKG_INFO
10
0
20
-60.96
40
1.778
1
*GATEPIN:= 0 9 22 <>
0
TEXT
8
PKG_INFO
10
0
20
-64.008
40
1.778
1
*GATEPIN:= 0 9 24 <>
0
TEXT
8
PKG_INFO
10
0
20
-67.056
40
1.778
1
*GATEPIN:= 0 9 25 <>
0
TEXT
8
PKG_INFO
10
0
20
-70.104
40
1.778
1
*GATEPIN:= 0 9 26 <>
0
TEXT
8
PKG_INFO
10
0
20
-73.152
40
1.778
1
*GATEPIN:= 0 9 27 <>
0
TEXT
8
PKG_INFO
10
0
20
-76.2
40
1.778
1
*GATEPIN:= 0 9 28 <>
0
TEXT
8
PKG_INFO
10
0
20
-79.248
40
1.778
1
*GATEPIN:= 0 9 29 <>
0
TEXT
8
PKG_INFO
10
0
20
-82.296
40
1.778
1
*GATEPIN:= 0 9 30 <>
0
TEXT
8
PKG_INFO
10
0
20
-85.344
40
1.778
1
*GATEPIN:= 0 9 31 <>
0
TEXT
8
PKG_INFO
10
0
20
-88.392
40
1.778
1
*GATEPIN:= 0 9 32 <>
0
TEXT
8
PKG_INFO
10
0
20
-91.44
40
1.778
1
*GATEPIN:= 0 9 33 <>
0
TEXT
8
PKG_INFO
10
0
20
-94.488
40
1.778
1
*GATEPIN:= 0 9 34 <>
0
TEXT
8
PKG_INFO
10
0
20
-97.536
40
1.778
1
*GATEPIN:= 0 9 4 <>
0
TEXT
8
PKG_INFO
10
0
20
-100.584
40
1.778
1
*GATEPIN:= 0 9 3 <>
0
TEXT
8
PKG_INFO
10
0
20
-103.632
40
1.778
1
*GATEPIN:= 0 9 2 <>
0
TEXT
8
PKG_INFO
10
0
20
-106.68
40
1.778
1
*GATEPIN:= 0 9 1 <>
0
TEXT
8
PKG_INFO
10
0
20
-109.728
40
1.778
1
*GATEPIN:= 0 9 23 <>
0
TEXT
8
PKG_INFO
10
0
20
-112.776
40
1.778
1
*GATEPIN:= 0 9 35 <>
0
TEXT
8
PKG_INFO
10
0
20
-115.824
40
1.778
1
*GATEPIN:= 0 9 36 <>
0
TEXT
8
PKG_INFO
10
0
20
-118.872
40
1.778
1
*GATEPIN:= 0 9 37 <>
0
TEXT
8
PKG_INFO
10
0
20
-121.92
40
1.778
1
*GATEPIN:= 0 9 38 <>
0
ENDBLK
0
BLOCK
2
PART_BODY_TOP_2
8
0
10
0
20
0
3
PART_BODY_TOP_2
70
64
0
POLYLINE
8
PART_TOP_2DLINE_01
66
1
40
0.199898
41
0.199898
0
VERTEX
8
PART_TOP_2DLINE_01
10
-0.985
20
0.594
0
VERTEX
8
PART_TOP_2DLINE_01
10
0.285
20
0.594
0
SEQEND
0
INSERT
2
SMOOTH_0$199898
8
PART_TOP_2DLINE_01
10
-0.985
20
0.594
0
INSERT
2
SMOOTH_0$199898
8
PART_TOP_2DLINE_01
10
0.285
20
0.594
0
POLYLINE
8
PART_TOP_2DLINE_01
66
1
40
0.199898
41
0.199898
0
VERTEX
8
PART_TOP_2DLINE_01
10
-0.35
20
1.229
0
VERTEX
8
PART_TOP_2DLINE_01
10
-0.35
20
-0.041
0
SEQEND
0
INSERT
2
SMOOTH_0$199898
8
PART_TOP_2DLINE_01
10
-0.35
20
1.229
0
INSERT
2
SMOOTH_0$199898
8
PART_TOP_2DLINE_01
10
-0.35
20
-0.041
0
POLYLINE
8
PART_TOP_2DLINE_01
66
1
40
0.199898
41
0.199898
70
1
0
VERTEX
8
PART_TOP_2DLINE_01
10
-4.0584
20
2.753
42
1
0
VERTEX
8
PART_TOP_2DLINE_01
10
-4.2616
20
2.753
42
1
0
SEQEND
0
POLYLINE
8
PART_TOP_2DLINE_01
66
1
40
0.199898
41
0.199898
70
1
0
VERTEX
8
PART_TOP_2DLINE_01
10
-3.4774
20
-3.4318
0
VERTEX
8
PART_TOP_2DLINE_01
10
-3.4774
20
3.0602
0
VERTEX
8
PART_TOP_2DLINE_01
10
-2.9694
20
3.5682
0
VERTEX
8
PART_TOP_2DLINE_01
10
3.5226
20
3.5682
0
VERTEX
8
PART_TOP_2DLINE_01
10
3.5226
20
-3.4318
0
SEQEND
0
INSERT
2
SMOOTH_0$199898
8
PART_TOP_2DLINE_01
10
-3.4774
20
-3.4318
0
INSERT
2
SMOOTH_0$199898
8
PART_TOP_2DLINE_01
10
-3.4774
20
3.0602
0
INSERT
2
SMOOTH_0$199898
8
PART_TOP_2DLINE_01
10
-2.9694
20
3.5682
0
INSERT
2
SMOOTH_0$199898
8
PART_TOP_2DLINE_01
10
3.5226
20
3.5682
0
INSERT
2
SMOOTH_0$199898
8
PART_TOP_2DLINE_01
10
3.5226
20
-3.4318
0
POLYLINE
8
PART_TOP_2DLINE_01
66
1
40
0.199898
41
0.199898
70
1
0
VERTEX
8
PART_TOP_2DLINE_01
10
-3.662962
20
3.6068
42
1
0
VERTEX
8
PART_TOP_2DLINE_01
10
-3.296638
20
3.6068
42
1
0
SEQEND
0
ENDBLK
0
BLOCK
2
STK_TOP_172
8
0
10
0
20
0
3
STK_TOP_172
70
64
0
INSERT
2
DRIL_HOLE_0
8
DRIL_PLTE_THRU_01
10
0
20
0
0
INSERT
2
DRIL_HOLE_0
8
DRIL_PLTE_THRU_02
10
0
20
0
0
INSERT
2
DRIL_HOLE_0
8
DRIL_PLTE_THRU_03
10
0
20
0
0
INSERT
2
DRIL_HOLE_0
8
DRIL_PLTE_THRU_04
10
0
20
0
0
INSERT
2
PAD_0
8
PADS_INNER
10
0
20
0
0
INSERT
2
PAD_0
8
PADS_BOT
10
0
20
0
0
INSERT
2
PAD_1
8
PADS_TOP
10
0
20
0
0
ENDBLK
0
BLOCK
2
STK_TOP_171
8
0
10
0
20
0
3
STK_TOP_171
70
64
0
INSERT
2
DRIL_HOLE_0
8
DRIL_PLTE_THRU_01
10
0
20
0
0
INSERT
2
DRIL_HOLE_0
8
DRIL_PLTE_THRU_02
10
0
20
0
0
INSERT
2
DRIL_HOLE_0
8
DRIL_PLTE_THRU_03
10
0
20
0
0
INSERT
2
DRIL_HOLE_0
8
DRIL_PLTE_THRU_04
10
0
20
0
0
INSERT
2
PAD_0
8
PADS_INNER
10
0
20
0
0
INSERT
2
PAD_0
8
PADS_BOT
10
0
20
0
0
INSERT
2
PAD_1
8
PADS_TOP
10
0
20
0
50
90
0
ENDBLK
0
BLOCK
2
STK_TOP_173
8
0
10
0
20
0
3
STK_TOP_173
70
64
0
INSERT
2
DRIL_HOLE_0
8
DRIL_PLTE_THRU_01
10
0
20
0
0
INSERT
2
DRIL_HOLE_0
8
DRIL_PLTE_THRU_02
10
0
20
0
0
INSERT
2
DRIL_HOLE_0
8
DRIL_PLTE_THRU_03
10
0
20
0
0
INSERT
2
DRIL_HOLE_0
8
DRIL_PLTE_THRU_04
10
0
20
0
0
INSERT
2
PAD_0
8
PADS_INNER
10
0
20
0
0
INSERT
2
PAD_0
8
PADS_BOT
10
0
20
0
0
INSERT
2
PAD_2
8
PADS_TOP
10
0
20
0
0
ENDBLK
0
BLOCK
2
PART_BODY_TOP_16
8
0
10
0
20
0
3
PART_BODY_TOP_16
70
64
0
ENDBLK
0
BLOCK
2
STK_TOP_377
8
0
10
0
20
0
3
STK_TOP_377
70
64
0
INSERT
2
DRIL_HOLE_0
8
DRIL_PLTE_THRU_01
10
0
20
0
0
INSERT
2
DRIL_HOLE_0
8
DRIL_PLTE_THRU_02
10
0
20
0
0
INSERT
2
DRIL_HOLE_0
8
DRIL_PLTE_THRU_03
10
0
20
0
0
INSERT
2
DRIL_HOLE_0
8
DRIL_PLTE_THRU_04
10
0
20
0
0
INSERT
2
PAD_0
8
PADS_INNER
10
0
20
0
0
INSERT
2
PAD_0
8
PADS_BOT
10
0
20
0
0
INSERT
2
PAD_3
8
PADS_TOP
10
0
20
0
50
90
0
ENDBLK
0
BLOCK
2
STK_TOP_416
8
0
10
0
20
0
3
STK_TOP_416
70
64
0
INSERT
2
DRIL_HOLE_0
8
DRIL_PLTE_THRU_01
10
0
20
0
0
INSERT
2
DRIL_HOLE_0
8
DRIL_PLTE_THRU_02
10
0
20
0
0
INSERT
2
DRIL_HOLE_0
8
DRIL_PLTE_THRU_03
10
0
20
0
0
INSERT
2
DRIL_HOLE_0
8
DRIL_PLTE_THRU_04
10
0
20
0
0
INSERT
2
PAD_0
8
PADS_INNER
10
0
20
0
0
INSERT
2
PAD_0
8
PADS_BOT
10
0
20
0
0
INSERT
2
PAD_4
8
PADS_TOP
10
0
20
0
0
ENDBLK
0
BLOCK
2
PART_BODY_TOP_14
8
0
10
0
20
0
3
PART_BODY_TOP_14
70
64
0
ENDBLK
0
BLOCK
2
STK_TOP_378
8
0
10
0
20
0
3
STK_TOP_378
70
64
0
INSERT
2
DRIL_HOLE_0
8
DRIL_PLTE_THRU_01
10
0
20
0
0
INSERT
2
DRIL_HOLE_0
8
DRIL_PLTE_THRU_02
10
0
20
0
0
INSERT
2
DRIL_HOLE_0
8
DRIL_PLTE_THRU_03
10
0
20
0
0
INSERT
2
DRIL_HOLE_0
8
DRIL_PLTE_THRU_04
10
0
20
0
0
INSERT
2
PAD_0
8
PADS_INNER
10
0
20
0
0
INSERT
2
PAD_0
8
PADS_BOT
10
0
20
0
0
INSERT
2
PAD_5
8
PADS_TOP
10
0
20
0
0
ENDBLK
0
BLOCK
2
PART_BODY_TOP_13
8
0
10
0
20
0
3
PART_BODY_TOP_13
70
64
0
ENDBLK
0
BLOCK
2
PART_BODY_TOP_8
8
0
10
0
20
0
3
PART_BODY_TOP_8
70
64
0
ENDBLK
0
BLOCK
2
STK_TOP_411
8
0
10
0
20
0
3
STK_TOP_411
70
64
0
INSERT
2
DRIL_HOLE_0
8
DRIL_PLTE_THRU_01
10
0
20
0
0
INSERT
2
DRIL_HOLE_0
8
DRIL_PLTE_THRU_02
10
0
20
0
0
INSERT
2
DRIL_HOLE_0
8
DRIL_PLTE_THRU_03
10
0
20
0
0
INSERT
2
DRIL_HOLE_0
8
DRIL_PLTE_THRU_04
10
0
20
0
0
INSERT
2
PAD_0
8
PADS_INNER
10
0
20
0
0
INSERT
2
PAD_0
8
PADS_BOT
10
0
20
0
0
INSERT
2
PAD_6
8
PADS_TOP
10
0
20
0
0
ENDBLK
0
BLOCK
2
PART_BODY_TOP_6
8
0
10
0
20
0
3
PART_BODY_TOP_6
70
64
0
ENDBLK
0
BLOCK
2
PART_BODY_TOP_3
8
0
10
0
20
0
3
PART_BODY_TOP_3
70
64
0
POLYLINE
8
PART_TOP_2DLINE_126
66
1
40
0.127
41
0.127
70
1
0
VERTEX
8
PART_TOP_2DLINE_126
10
-0.762
20
3.2004
0
VERTEX
8
PART_TOP_2DLINE_126
10
1.8034
20
3.2004
0
VERTEX
8
PART_TOP_2DLINE_126
10
1.8034
20
-0.6096
0
VERTEX
8
PART_TOP_2DLINE_126
10
-0.762
20
-0.6096
0
SEQEND
0
INSERT
2
SMOOTH_0$127
8
PART_TOP_2DLINE_126
10
-0.762
20
3.2004
0
INSERT
2
SMOOTH_0$127
8
PART_TOP_2DLINE_126
10
1.8034
20
3.2004
0
INSERT
2
SMOOTH_0$127
8
PART_TOP_2DLINE_126
10
1.8034
20
-0.6096
0
INSERT
2
SMOOTH_0$127
8
PART_TOP_2DLINE_126
10
-0.762
20
-0.6096
0
ENDBLK
0
BLOCK
2
STK_TOP_136
8
0
10
0
20
0
3
STK_TOP_136
70
64
0
INSERT
2
DRIL_HOLE_0
8
DRIL_PLTE_THRU_01
10
0
20
0
0
INSERT
2
DRIL_HOLE_0
8
DRIL_PLTE_THRU_02
10
0
20
0
0
INSERT
2
DRIL_HOLE_0
8
DRIL_PLTE_THRU_03
10
0
20
0
0
INSERT
2
DRIL_HOLE_0
8
DRIL_PLTE_THRU_04
10
0
20
0
0
INSERT
2
PAD_0
8
PADS_INNER
10
0
20
0
0
INSERT
2
PAD_0
8
PADS_BOT
10
0
20
0
0
INSERT
2
PAD_7
8
PADS_TOP
10
0
20
0
0
ENDBLK
0
BLOCK
2
STK_TOP_137
8
0
10
0
20
0
3
STK_TOP_137
70
64
0
INSERT
2
DRIL_HOLE_0
8
DRIL_PLTE_THRU_01
10
0
20
0
0
INSERT
2
DRIL_HOLE_0
8
DRIL_PLTE_THRU_02
10
0
20
0
0
INSERT
2
DRIL_HOLE_0
8
DRIL_PLTE_THRU_03
10
0
20
0
0
INSERT
2
DRIL_HOLE_0
8
DRIL_PLTE_THRU_04
10
0
20
0
0
INSERT
2
PAD_0
8
PADS_INNER
10
0
20
0
0
INSERT
2
PAD_0
8
PADS_BOT
10
0
20
0
0
INSERT
2
PAD_8
8
PADS_TOP
10
0
20
0
0
ENDBLK
0
BLOCK
2
PART_BODY_TOP_10
8
0
10
0
20
0
3
PART_BODY_TOP_10
70
64
0
POLYLINE
8
PART_TOP_2DLINE_126
66
1
40
0.127
41
0.127
70
1
0
VERTEX
8
PART_TOP_2DLINE_126
10
1.27
20
-1.2954
0
VERTEX
8
PART_TOP_2DLINE_126
10
-6.2738
20
-1.2954
0
VERTEX
8
PART_TOP_2DLINE_126
10
-6.2738
20
1.2954
0
VERTEX
8
PART_TOP_2DLINE_126
10
1.27
20
1.2954
0
SEQEND
0
INSERT
2
SMOOTH_0$127
8
PART_TOP_2DLINE_126
10
1.27
20
-1.2954
0
INSERT
2
SMOOTH_0$127
8
PART_TOP_2DLINE_126
10
-6.2738
20
-1.2954
0
INSERT
2
SMOOTH_0$127
8
PART_TOP_2DLINE_126
10
-6.2738
20
1.2954
0
INSERT
2
SMOOTH_0$127
8
PART_TOP_2DLINE_126
10
1.27
20
1.2954
0
ENDBLK
0
BLOCK
2
STK_TOP_373
8
0
10
0
20
0
3
STK_TOP_373
70
64
0
INSERT
2
DRIL_HOLE_0
8
DRIL_NPLTE_THRU_01
10
0
20
0
0
INSERT
2
DRIL_HOLE_0
8
DRIL_NPLTE_THRU_02
10
0
20
0
0
INSERT
2
DRIL_HOLE_0
8
DRIL_NPLTE_THRU_03
10
0
20
0
0
INSERT
2
DRIL_HOLE_0
8
DRIL_NPLTE_THRU_04
10
0
20
0
0
INSERT
2
PAD_9
8
PADS_INNER
10
0
20
0
0
INSERT
2
PAD_9
8
PADS_BOT
10
0
20
0
0
INSERT
2
PAD_10
8
PADS_TOP
10
0
20
0
0
ENDBLK
0
BLOCK
2
PART_BODY_TOP_11
8
0
10
0
20
0
3
PART_BODY_TOP_11
70
64
0
POLYLINE
8
PART_TOP_2DLINE_126
66
1
40
0.127
41
0.127
70
1
0
VERTEX
8
PART_TOP_2DLINE_126
10
-0.898446
20
0.408282
0
VERTEX
8
PART_TOP_2DLINE_126
10
-0.898446
20
-0.391716
0
VERTEX
8
PART_TOP_2DLINE_126
10
0.9015726667
20
-0.391716
0
VERTEX
8
PART_TOP_2DLINE_126
10
0.901578
20
0.408282
0
SEQEND
0
INSERT
2
SMOOTH_0$127
8
PART_TOP_2DLINE_126
10
-0.898446
20
0.408282
0
INSERT
2
SMOOTH_0$127
8
PART_TOP_2DLINE_126
10
-0.898446
20
-0.391716
0
INSERT
2
SMOOTH_0$127
8
PART_TOP_2DLINE_126
10
0.9015726667
20
-0.391716
0
INSERT
2
SMOOTH_0$127
8
PART_TOP_2DLINE_126
10
0.901578
20
0.408282
0
ENDBLK
0
BLOCK
2
STK_TOP_4
8
0
10
0
20
0
3
STK_TOP_4
70
64
0
INSERT
2
DRIL_HOLE_0
8
DRIL_PLTE_THRU_01
10
0
20
0
0
INSERT
2
DRIL_HOLE_0
8
DRIL_PLTE_THRU_02
10
0
20
0
0
INSERT
2
DRIL_HOLE_0
8
DRIL_PLTE_THRU_03
10
0
20
0
0
INSERT
2
DRIL_HOLE_0
8
DRIL_PLTE_THRU_04
10
0
20
0
0
INSERT
2
PAD_0
8
PADS_INNER
10
0
20
0
0
INSERT
2
PAD_0
8
PADS_BOT
10
0
20
0
0
INSERT
2
PAD_11
8
PADS_TOP
10
0
20
0
0
ENDBLK
0
BLOCK
2
PART_BODY_TOP_1
8
0
10
0
20
0
3
PART_BODY_TOP_1
70
64
0
POLYLINE
8
PART_TOP_2DLINE_126
66
1
40
0.127
41
0.127
70
1
0
VERTEX
8
PART_TOP_2DLINE_126
10
0.7549086667
20
-0.346626
42
0.4142135624
0
VERTEX
8
PART_TOP_2DLINE_126
10
0.7549086667
20
0.3533626667
0
VERTEX
8
PART_TOP_2DLINE_126
10
-0.7453766667
20
0.3530033333
42
0.3733874335
0
VERTEX
8
PART_TOP_2DLINE_126
10
-0.744766
20
-0.346976
0
SEQEND
0
INSERT
2
SMOOTH_0$127
8
PART_TOP_2DLINE_126
10
0.7549086667
20
-0.346626
0
INSERT
2
SMOOTH_0$127
8
PART_TOP_2DLINE_126
10
0.7549086667
20
0.3533626667
0
INSERT
2
SMOOTH_0$127
8
PART_TOP_2DLINE_126
10
-0.7453766667
20
0.3530033333
0
INSERT
2
SMOOTH_0$127
8
PART_TOP_2DLINE_126
10
-0.744766
20
-0.346976
0
ENDBLK
0
BLOCK
2
PART_BODY_TOP_7
8
0
10
0
20
0
3
PART_BODY_TOP_7
70
64
0
ENDBLK
0
BLOCK
2
STK_TOP_379
8
0
10
0
20
0
3
STK_TOP_379
70
64
0
INSERT
2
DRIL_HOLE_0
8
DRIL_PLTE_THRU_01
10
0
20
0
0
INSERT
2
DRIL_HOLE_0
8
DRIL_PLTE_THRU_02
10
0
20
0
0
INSERT
2
DRIL_HOLE_0
8
DRIL_PLTE_THRU_03
10
0
20
0
0
INSERT
2
DRIL_HOLE_0
8
DRIL_PLTE_THRU_04
10
0
20
0
0
INSERT
2
PAD_0
8
PADS_INNER
10
0
20
0
0
INSERT
2
PAD_0
8
PADS_BOT
10
0
20
0
0
INSERT
2
PAD_12
8
PADS_TOP
10
0
20
0
0
ENDBLK
0
BLOCK
2
PART_BODY_TOP_4
8
0
10
0
20
0
3
PART_BODY_TOP_4
70
64
0
POLYLINE
8
PART_TOP_2DLINE_126
66
1
40
0.127
41
0.127
70
1
0
VERTEX
8
PART_TOP_2DLINE_126
10
1.238076
20
-0.5585626667
42
0.4327386422
0
VERTEX
8
PART_TOP_2DLINE_126
10
1.238076
20
0.541438
0
VERTEX
8
PART_TOP_2DLINE_126
10
-1.261924
20
0.5414386667
42
0.4504671537
0
VERTEX
8
PART_TOP_2DLINE_126
10
-1.261924
20
-0.5585633333
0
SEQEND
0
INSERT
2
SMOOTH_0$127
8
PART_TOP_2DLINE_126
10
1.238076
20
-0.5585626667
0
INSERT
2
SMOOTH_0$127
8
PART_TOP_2DLINE_126
10
1.238076
20
0.541438
0
INSERT
2
SMOOTH_0$127
8
PART_TOP_2DLINE_126
10
-1.261924
20
0.5414386667
0
INSERT
2
SMOOTH_0$127
8
PART_TOP_2DLINE_126
10
-1.261924
20
-0.5585633333
0
ENDBLK
0
BLOCK
2
STK_TOP_138
8
0
10
0
20
0
3
STK_TOP_138
70
64
0
INSERT
2
DRIL_HOLE_0
8
DRIL_PLTE_THRU_01
10
0
20
0
0
INSERT
2
DRIL_HOLE_0
8
DRIL_PLTE_THRU_02
10
0
20
0
0
INSERT
2
DRIL_HOLE_0
8
DRIL_PLTE_THRU_03
10
0
20
0
0
INSERT
2
DRIL_HOLE_0
8
DRIL_PLTE_THRU_04
10
0
20
0
0
INSERT
2
PAD_0
8
PADS_INNER
10
0
20
0
0
INSERT
2
PAD_0
8
PADS_BOT
10
0
20
0
0
INSERT
2
PAD_13
8
PADS_TOP
10
0
20
0
0
ENDBLK
0
BLOCK
2
PART_BODY_TOP_12
8
0
10
0
20
0
3
PART_BODY_TOP_12
70
64
0
POLYLINE
8
PART_TOP_COPPER_-1
6
TRMIDX_0
66
1
40
0.127
41
0.127
70
1
0
VERTEX
8
PART_TOP_COPPER_-1
10
-0.00333
20
3.6656
0
VERTEX
8
PART_TOP_COPPER_-1
10
0.875
20
3.6656
0
VERTEX
8
PART_TOP_COPPER_-1
10
0.875
20
4.3514
0
VERTEX
8
PART_TOP_COPPER_-1
10
-0.00333
20
4.3514
0
SEQEND
0
INSERT
2
SMOOTH_0$127
8
PART_TOP_COPPER_-1
10
-0.00333
20
3.6656
0
INSERT
2
SMOOTH_0$127
8
PART_TOP_COPPER_-1
10
0.875
20
3.6656
0
INSERT
2
SMOOTH_0$127
8
PART_TOP_COPPER_-1
10
0.875
20
4.3514
0
INSERT
2
SMOOTH_0$127
8
PART_TOP_COPPER_-1
10
-0.00333
20
4.3514
0
POLYLINE
8
PART_TOP_COPPER_01
6
TRMIDX_0
66
1
40
0.15
41
0.15
70
1
0
VERTEX
8
PART_TOP_COPPER_01
10
0.4686
20
3.6656
0
VERTEX
8
PART_TOP_COPPER_01
10
0.4686
20
4.3514
0
VERTEX
8
PART_TOP_COPPER_01
10
-0.00036
20
4.3514
0
VERTEX
8
PART_TOP_COPPER_01
10
-0.00036
20
3.6656
0
SEQEND
0
INSERT
2
SMOOTH_0$15
8
PART_TOP_COPPER_01
10
0.4686
20
3.6656
0
INSERT
2
SMOOTH_0$15
8
PART_TOP_COPPER_01
10
0.4686
20
4.3514
0
INSERT
2
SMOOTH_0$15
8
PART_TOP_COPPER_01
10
-0.00036
20
4.3514
0
INSERT
2
SMOOTH_0$15
8
PART_TOP_COPPER_01
10
-0.00036
20
3.6656
0
POLYLINE
8
PART_TOP_COPPER_-1
6
TRMIDX_1
66
1
40
0.127
41
0.127
70
1
0
VERTEX
8
PART_TOP_COPPER_-1
10
-0.00333
20
2.6656
0
VERTEX
8
PART_TOP_COPPER_-1
10
0.875
20
2.6656
0
VERTEX
8
PART_TOP_COPPER_-1
10
0.875
20
3.3514
0
VERTEX
8
PART_TOP_COPPER_-1
10
-0.00333
20
3.3514
0
SEQEND
0
INSERT
2
SMOOTH_0$127
8
PART_TOP_COPPER_-1
10
-0.00333
20
2.6656
0
INSERT
2
SMOOTH_0$127
8
PART_TOP_COPPER_-1
10
0.875
20
2.6656
0
INSERT
2
SMOOTH_0$127
8
PART_TOP_COPPER_-1
10
0.875
20
3.3514
0
INSERT
2
SMOOTH_0$127
8
PART_TOP_COPPER_-1
10
-0.00333
20
3.3514
0
POLYLINE
8
PART_TOP_COPPER_01
6
TRMIDX_1
66
1
40
0.15
41
0.15
70
1
0
VERTEX
8
PART_TOP_COPPER_01
10
0.4686
20
2.6656
0
VERTEX
8
PART_TOP_COPPER_01
10
0.4686
20
3.3514
0
VERTEX
8
PART_TOP_COPPER_01
10
-0.00036
20
3.3514
0
VERTEX
8
PART_TOP_COPPER_01
10
-0.00036
20
2.6656
0
SEQEND
0
INSERT
2
SMOOTH_0$15
8
PART_TOP_COPPER_01
10
0.4686
20
2.6656
0
INSERT
2
SMOOTH_0$15
8
PART_TOP_COPPER_01
10
0.4686
20
3.3514
0
INSERT
2
SMOOTH_0$15
8
PART_TOP_COPPER_01
10
-0.00036
20
3.3514
0
INSERT
2
SMOOTH_0$15
8
PART_TOP_COPPER_01
10
-0.00036
20
2.6656
0
POLYLINE
8
PART_TOP_COPPER_-1
6
TRMIDX_2
66
1
40
0.127
41
0.127
70
1
0
VERTEX
8
PART_TOP_COPPER_-1
10
-0.00333
20
1.6656
0
VERTEX
8
PART_TOP_COPPER_-1
10
0.875
20
1.6656
0
VERTEX
8
PART_TOP_COPPER_-1
10
0.875
20
2.3514
0
VERTEX
8
PART_TOP_COPPER_-1
10
-0.00333
20
2.3514
0
SEQEND
0
INSERT
2
SMOOTH_0$127
8
PART_TOP_COPPER_-1
10
-0.00333
20
1.6656
0
INSERT
2
SMOOTH_0$127
8
PART_TOP_COPPER_-1
10
0.875
20
1.6656
0
INSERT
2
SMOOTH_0$127
8
PART_TOP_COPPER_-1
10
0.875
20
2.3514
0
INSERT
2
SMOOTH_0$127
8
PART_TOP_COPPER_-1
10
-0.00333
20
2.3514
0
POLYLINE
8
PART_TOP_COPPER_01
6
TRMIDX_2
66
1
40
0.15
41
0.15
70
1
0
VERTEX
8
PART_TOP_COPPER_01
10
0.4686
20
1.6656
0
VERTEX
8
PART_TOP_COPPER_01
10
0.4686
20
2.3514
0
VERTEX
8
PART_TOP_COPPER_01
10
-0.00036
20
2.3514
0
VERTEX
8
PART_TOP_COPPER_01
10
-0.00036
20
1.6656
0
SEQEND
0
INSERT
2
SMOOTH_0$15
8
PART_TOP_COPPER_01
10
0.4686
20
1.6656
0
INSERT
2
SMOOTH_0$15
8
PART_TOP_COPPER_01
10
0.4686
20
2.3514
0
INSERT
2
SMOOTH_0$15
8
PART_TOP_COPPER_01
10
-0.00036
20
2.3514
0
INSERT
2
SMOOTH_0$15
8
PART_TOP_COPPER_01
10
-0.00036
20
1.6656
0
POLYLINE
8
PART_TOP_COPPER_-1
6
TRMIDX_3
66
1
40
0.127
41
0.127
70
1
0
VERTEX
8
PART_TOP_COPPER_-1
10
-0.00333
20
0.6656
0
VERTEX
8
PART_TOP_COPPER_-1
10
0.875
20
0.6656
0
VERTEX
8
PART_TOP_COPPER_-1
10
0.875
20
1.3514
0
VERTEX
8
PART_TOP_COPPER_-1
10
-0.00333
20
1.3514
0
SEQEND
0
INSERT
2
SMOOTH_0$127
8
PART_TOP_COPPER_-1
10
-0.00333
20
0.6656
0
INSERT
2
SMOOTH_0$127
8
PART_TOP_COPPER_-1
10
0.875
20
0.6656
0
INSERT
2
SMOOTH_0$127
8
PART_TOP_COPPER_-1
10
0.875
20
1.3514
0
INSERT
2
SMOOTH_0$127
8
PART_TOP_COPPER_-1
10
-0.00333
20
1.3514
0
POLYLINE
8
PART_TOP_COPPER_01
6
TRMIDX_3
66
1
40
0.15
41
0.15
70
1
0
VERTEX
8
PART_TOP_COPPER_01
10
0.4686
20
0.6656
0
VERTEX
8
PART_TOP_COPPER_01
10
0.4686
20
1.3514
0
VERTEX
8
PART_TOP_COPPER_01
10
-0.00036
20
1.3514
0
VERTEX
8
PART_TOP_COPPER_01
10
-0.00036
20
0.6656
0
SEQEND
0
INSERT
2
SMOOTH_0$15
8
PART_TOP_COPPER_01
10
0.4686
20
0.6656
0
INSERT
2
SMOOTH_0$15
8
PART_TOP_COPPER_01
10
0.4686
20
1.3514
0
INSERT
2
SMOOTH_0$15
8
PART_TOP_COPPER_01
10
-0.00036
20
1.3514
0
INSERT
2
SMOOTH_0$15
8
PART_TOP_COPPER_01
10
-0.00036
20
0.6656
0
POLYLINE
8
PART_TOP_COPPER_-1
6
TRMIDX_4
66
1
40
0.127
41
0.127
70
1
0
VERTEX
8
PART_TOP_COPPER_-1
10
-0.00333
20
-0.3344
0
VERTEX
8
PART_TOP_COPPER_-1
10
0.875
20
-0.3344
0
VERTEX
8
PART_TOP_COPPER_-1
10
0.875
20
0.3514
0
VERTEX
8
PART_TOP_COPPER_-1
10
-0.00333
20
0.3514
0
SEQEND
0
INSERT
2
SMOOTH_0$127
8
PART_TOP_COPPER_-1
10
-0.00333
20
-0.3344
0
INSERT
2
SMOOTH_0$127
8
PART_TOP_COPPER_-1
10
0.875
20
-0.3344
0
INSERT
2
SMOOTH_0$127
8
PART_TOP_COPPER_-1
10
0.875
20
0.3514
0
INSERT
2
SMOOTH_0$127
8
PART_TOP_COPPER_-1
10
-0.00333
20
0.3514
0
POLYLINE
8
PART_TOP_COPPER_01
6
TRMIDX_4
66
1
40
0.15
41
0.15
70
1
0
VERTEX
8
PART_TOP_COPPER_01
10
0.4686
20
-0.3344
0
VERTEX
8
PART_TOP_COPPER_01
10
0.4686
20
0.3514
0
VERTEX
8
PART_TOP_COPPER_01
10
-0.00036
20
0.3514
0
VERTEX
8
PART_TOP_COPPER_01
10
-0.00036
20
-0.3344
0
SEQEND
0
INSERT
2
SMOOTH_0$15
8
PART_TOP_COPPER_01
10
0.4686
20
-0.3344
0
INSERT
2
SMOOTH_0$15
8
PART_TOP_COPPER_01
10
0.4686
20
0.3514
0
INSERT
2
SMOOTH_0$15
8
PART_TOP_COPPER_01
10
-0.00036
20
0.3514
0
INSERT
2
SMOOTH_0$15
8
PART_TOP_COPPER_01
10
-0.00036
20
-0.3344
0
POLYLINE
8
PART_TOP_COPPER_-1
6
TRMIDX_5
66
1
40
0.127
41
0.127
70
1
0
VERTEX
8
PART_TOP_COPPER_-1
10
-0.01733
20
-1.353
0
VERTEX
8
PART_TOP_COPPER_-1
10
0.861
20
-1.353
0
VERTEX
8
PART_TOP_COPPER_-1
10
0.861
20
-0.6672
0
VERTEX
8
PART_TOP_COPPER_-1
10
-0.01733
20
-0.6672
0
SEQEND
0
INSERT
2
SMOOTH_0$127
8
PART_TOP_COPPER_-1
10
-0.01733
20
-1.353
0
INSERT
2
SMOOTH_0$127
8
PART_TOP_COPPER_-1
10
0.861
20
-1.353
0
INSERT
2
SMOOTH_0$127
8
PART_TOP_COPPER_-1
10
0.861
20
-0.6672
0
INSERT
2
SMOOTH_0$127
8
PART_TOP_COPPER_-1
10
-0.01733
20
-0.6672
0
POLYLINE
8
PART_TOP_COPPER_01
6
TRMIDX_5
66
1
40
0.15
41
0.15
70
1
0
VERTEX
8
PART_TOP_COPPER_01
10
0.4432
20
-1.3488
0
VERTEX
8
PART_TOP_COPPER_01
10
0.4432
20
-0.663
0
VERTEX
8
PART_TOP_COPPER_01
10
-0.02576
20
-0.663
0
VERTEX
8
PART_TOP_COPPER_01
10
-0.02576
20
-1.3488
0
SEQEND
0
INSERT
2
SMOOTH_0$15
8
PART_TOP_COPPER_01
10
0.4432
20
-1.3488
0
INSERT
2
SMOOTH_0$15
8
PART_TOP_COPPER_01
10
0.4432
20
-0.663
0
INSERT
2
SMOOTH_0$15
8
PART_TOP_COPPER_01
10
-0.02576
20
-0.663
0
INSERT
2
SMOOTH_0$15
8
PART_TOP_COPPER_01
10
-0.02576
20
-1.3488
0
POLYLINE
8
PART_TOP_COPPER_-1
6
TRMIDX_6
66
1
40
0.127
41
0.127
70
1
0
VERTEX
8
PART_TOP_COPPER_-1
10
-0.02873
20
-2.3378
0
VERTEX
8
PART_TOP_COPPER_-1
10
0.8496
20
-2.3378
0
VERTEX
8
PART_TOP_COPPER_-1
10
0.8496
20
-1.652
0
VERTEX
8
PART_TOP_COPPER_-1
10
-0.02873
20
-1.652
0
SEQEND
0
INSERT
2
SMOOTH_0$127
8
PART_TOP_COPPER_-1
10
-0.02873
20
-2.3378
0
INSERT
2
SMOOTH_0$127
8
PART_TOP_COPPER_-1
10
0.8496
20
-2.3378
0
INSERT
2
SMOOTH_0$127
8
PART_TOP_COPPER_-1
10
0.8496
20
-1.652
0
INSERT
2
SMOOTH_0$127
8
PART_TOP_COPPER_-1
10
-0.02873
20
-1.652
0
POLYLINE
8
PART_TOP_COPPER_01
6
TRMIDX_6
66
1
40
0.15
41
0.15
70
1
0
VERTEX
8
PART_TOP_COPPER_01
10
0.4432
20
-2.3378
0
VERTEX
8
PART_TOP_COPPER_01
10
0.4432
20
-1.652
0
VERTEX
8
PART_TOP_COPPER_01
10
-0.02576
20
-1.652
0
VERTEX
8
PART_TOP_COPPER_01
10
-0.02576
20
-2.3378
0
SEQEND
0
INSERT
2
SMOOTH_0$15
8
PART_TOP_COPPER_01
10
0.4432
20
-2.3378
0
INSERT
2
SMOOTH_0$15
8
PART_TOP_COPPER_01
10
0.4432
20
-1.652
0
INSERT
2
SMOOTH_0$15
8
PART_TOP_COPPER_01
10
-0.02576
20
-1.652
0
INSERT
2
SMOOTH_0$15
8
PART_TOP_COPPER_01
10
-0.02576
20
-2.3378
0
POLYLINE
8
PART_TOP_COPPER_-1
6
TRMIDX_7
66
1
40
0.127
41
0.127
70
1
0
VERTEX
8
PART_TOP_COPPER_-1
10
-0.02873
20
-3.3522
0
VERTEX
8
PART_TOP_COPPER_-1
10
0.8496
20
-3.3522
0
VERTEX
8
PART_TOP_COPPER_-1
10
0.8496
20
-2.6664
0
VERTEX
8
PART_TOP_COPPER_-1
10
-0.02873
20
-2.6664
0
SEQEND
0
INSERT
2
SMOOTH_0$127
8
PART_TOP_COPPER_-1
10
-0.02873
20
-3.3522
0
INSERT
2
SMOOTH_0$127
8
PART_TOP_COPPER_-1
10
0.8496
20
-3.3522
0
INSERT
2
SMOOTH_0$127
8
PART_TOP_COPPER_-1
10
0.8496
20
-2.6664
0
INSERT
2
SMOOTH_0$127
8
PART_TOP_COPPER_-1
10
-0.02873
20
-2.6664
0
POLYLINE
8
PART_TOP_COPPER_01
6
TRMIDX_7
66
1
40
0.15
41
0.15
70
1
0
VERTEX
8
PART_TOP_COPPER_01
10
0.4432
20
-3.3522
0
VERTEX
8
PART_TOP_COPPER_01
10
0.4432
20
-2.6664
0
VERTEX
8
PART_TOP_COPPER_01
10
-0.02576
20
-2.6664
0
VERTEX
8
PART_TOP_COPPER_01
10
-0.02576
20
-3.3522
0
SEQEND
0
INSERT
2
SMOOTH_0$15
8
PART_TOP_COPPER_01
10
0.4432
20
-3.3522
0
INSERT
2
SMOOTH_0$15
8
PART_TOP_COPPER_01
10
0.4432
20
-2.6664
0
INSERT
2
SMOOTH_0$15
8
PART_TOP_COPPER_01
10
-0.02576
20
-2.6664
0
INSERT
2
SMOOTH_0$15
8
PART_TOP_COPPER_01
10
-0.02576
20
-3.3522
0
POLYLINE
8
PART_TOP_COPPER_-1
6
TRMIDX_8
66
1
40
0.127
41
0.127
70
1
0
VERTEX
8
PART_TOP_COPPER_-1
10
-0.02873
20
-4.3412
0
VERTEX
8
PART_TOP_COPPER_-1
10
0.8496
20
-4.3412
0
VERTEX
8
PART_TOP_COPPER_-1
10
0.8496
20
-3.6554
0
VERTEX
8
PART_TOP_COPPER_-1
10
-0.02873
20
-3.6554
0
SEQEND
0
INSERT
2
SMOOTH_0$127
8
PART_TOP_COPPER_-1
10
-0.02873
20
-4.3412
0
INSERT
2
SMOOTH_0$127
8
PART_TOP_COPPER_-1
10
0.8496
20
-4.3412
0
INSERT
2
SMOOTH_0$127
8
PART_TOP_COPPER_-1
10
0.8496
20
-3.6554
0
INSERT
2
SMOOTH_0$127
8
PART_TOP_COPPER_-1
10
-0.02873
20
-3.6554
0
POLYLINE
8
PART_TOP_COPPER_01
6
TRMIDX_8
66
1
40
0.15
41
0.15
70
1
0
VERTEX
8
PART_TOP_COPPER_01
10
0.4432
20
-4.3412
0
VERTEX
8
PART_TOP_COPPER_01
10
0.4432
20
-3.6554
0
VERTEX
8
PART_TOP_COPPER_01
10
-0.02576
20
-3.6554
0
VERTEX
8
PART_TOP_COPPER_01
10
-0.02576
20
-4.3412
0
SEQEND
0
INSERT
2
SMOOTH_0$15
8
PART_TOP_COPPER_01
10
0.4432
20
-4.3412
0
INSERT
2
SMOOTH_0$15
8
PART_TOP_COPPER_01
10
0.4432
20
-3.6554
0
INSERT
2
SMOOTH_0$15
8
PART_TOP_COPPER_01
10
-0.02576
20
-3.6554
0
INSERT
2
SMOOTH_0$15
8
PART_TOP_COPPER_01
10
-0.02576
20
-4.3412
0
POLYLINE
8
PART_TOP_COPPER_-1
6
TRMIDX_9
66
1
40
0.127
41
0.127
70
1
0
VERTEX
8
PART_TOP_COPPER_-1
10
-0.02873
20
-5.3302
0
VERTEX
8
PART_TOP_COPPER_-1
10
0.8496
20
-5.3302
0
VERTEX
8
PART_TOP_COPPER_-1
10
0.8496
20
-4.6444
0
VERTEX
8
PART_TOP_COPPER_-1
10
-0.02873
20
-4.6444
0
SEQEND
0
INSERT
2
SMOOTH_0$127
8
PART_TOP_COPPER_-1
10
-0.02873
20
-5.3302
0
INSERT
2
SMOOTH_0$127
8
PART_TOP_COPPER_-1
10
0.8496
20
-5.3302
0
INSERT
2
SMOOTH_0$127
8
PART_TOP_COPPER_-1
10
0.8496
20
-4.6444
0
INSERT
2
SMOOTH_0$127
8
PART_TOP_COPPER_-1
10
-0.02873
20
-4.6444
0
POLYLINE
8
PART_TOP_COPPER_01
6
TRMIDX_9
66
1
40
0.15
41
0.15
70
1
0
VERTEX
8
PART_TOP_COPPER_01
10
0.4432
20
-5.3302
0
VERTEX
8
PART_TOP_COPPER_01
10
0.4432
20
-4.6444
0
VERTEX
8
PART_TOP_COPPER_01
10
-0.02576
20
-4.6444
0
VERTEX
8
PART_TOP_COPPER_01
10
-0.02576
20
-5.3302
0
SEQEND
0
INSERT
2
SMOOTH_0$15
8
PART_TOP_COPPER_01
10
0.4432
20
-5.3302
0
INSERT
2
SMOOTH_0$15
8
PART_TOP_COPPER_01
10
0.4432
20
-4.6444
0
INSERT
2
SMOOTH_0$15
8
PART_TOP_COPPER_01
10
-0.02576
20
-4.6444
0
INSERT
2
SMOOTH_0$15
8
PART_TOP_COPPER_01
10
-0.02576
20
-5.3302
0
POLYLINE
8
PART_TOP_COPPER_-1
6
TRMIDX_10
66
1
40
0.127
41
0.127
70
1
0
VERTEX
8
PART_TOP_COPPER_-1
10
-0.02873
20
-6.3446
0
VERTEX
8
PART_TOP_COPPER_-1
10
0.8496
20
-6.3446
0
VERTEX
8
PART_TOP_COPPER_-1
10
0.8496
20
-5.6588
0
VERTEX
8
PART_TOP_COPPER_-1
10
-0.02873
20
-5.6588
0
SEQEND
0
INSERT
2
SMOOTH_0$127
8
PART_TOP_COPPER_-1
10
-0.02873
20
-6.3446
0
INSERT
2
SMOOTH_0$127
8
PART_TOP_COPPER_-1
10
0.8496
20
-6.3446
0
INSERT
2
SMOOTH_0$127
8
PART_TOP_COPPER_-1
10
0.8496
20
-5.6588
0
INSERT
2
SMOOTH_0$127
8
PART_TOP_COPPER_-1
10
-0.02873
20
-5.6588
0
POLYLINE
8
PART_TOP_COPPER_01
6
TRMIDX_10
66
1
40
0.15
41
0.15
70
1
0
VERTEX
8
PART_TOP_COPPER_01
10
0.4178
20
-6.3446
0
VERTEX
8
PART_TOP_COPPER_01
10
0.4178
20
-5.6588
0
VERTEX
8
PART_TOP_COPPER_01
10
-0.05116
20
-5.6588
0
VERTEX
8
PART_TOP_COPPER_01
10
-0.05116
20
-6.3446
0
SEQEND
0
INSERT
2
SMOOTH_0$15
8
PART_TOP_COPPER_01
10
0.4178
20
-6.3446
0
INSERT
2
SMOOTH_0$15
8
PART_TOP_COPPER_01
10
0.4178
20
-5.6588
0
INSERT
2
SMOOTH_0$15
8
PART_TOP_COPPER_01
10
-0.05116
20
-5.6588
0
INSERT
2
SMOOTH_0$15
8
PART_TOP_COPPER_01
10
-0.05116
20
-6.3446
0
POLYLINE
8
PART_TOP_COPPER_-1
6
TRMIDX_11
66
1
40
0.127
41
0.127
70
1
0
VERTEX
8
PART_TOP_COPPER_-1
10
-0.02873
20
-7.3336
0
VERTEX
8
PART_TOP_COPPER_-1
10
0.8496
20
-7.3336
0
VERTEX
8
PART_TOP_COPPER_-1
10
0.8496
20
-6.6478
0
VERTEX
8
PART_TOP_COPPER_-1
10
-0.02873
20
-6.6478
0
SEQEND
0
INSERT
2
SMOOTH_0$127
8
PART_TOP_COPPER_-1
10
-0.02873
20
-7.3336
0
INSERT
2
SMOOTH_0$127
8
PART_TOP_COPPER_-1
10
0.8496
20
-7.3336
0
INSERT
2
SMOOTH_0$127
8
PART_TOP_COPPER_-1
10
0.8496
20
-6.6478
0
INSERT
2
SMOOTH_0$127
8
PART_TOP_COPPER_-1
10
-0.02873
20
-6.6478
0
POLYLINE
8
PART_TOP_COPPER_01
6
TRMIDX_11
66
1
40
0.15
41
0.15
70
1
0
VERTEX
8
PART_TOP_COPPER_01
10
0.3924
20
-7.3336
0
VERTEX
8
PART_TOP_COPPER_01
10
0.3924
20
-6.6478
0
VERTEX
8
PART_TOP_COPPER_01
10
-0.07656
20
-6.6478
0
VERTEX
8
PART_TOP_COPPER_01
10
-0.07656
20
-7.3336
0
SEQEND
0
INSERT
2
SMOOTH_0$15
8
PART_TOP_COPPER_01
10
0.3924
20
-7.3336
0
INSERT
2
SMOOTH_0$15
8
PART_TOP_COPPER_01
10
0.3924
20
-6.6478
0
INSERT
2
SMOOTH_0$15
8
PART_TOP_COPPER_01
10
-0.07656
20
-6.6478
0
INSERT
2
SMOOTH_0$15
8
PART_TOP_COPPER_01
10
-0.07656
20
-7.3336
0
POLYLINE
8
PART_TOP_COPPER_-1
6
TRMIDX_12
66
1
40
0.127
41
0.127
70
1
0
VERTEX
8
PART_TOP_COPPER_-1
10
-0.02873
20
-8.348
0
VERTEX
8
PART_TOP_COPPER_-1
10
0.8496
20
-8.348
0
VERTEX
8
PART_TOP_COPPER_-1
10
0.8496
20
-7.6622
0
VERTEX
8
PART_TOP_COPPER_-1
10
-0.02873
20
-7.6622
0
SEQEND
0
INSERT
2
SMOOTH_0$127
8
PART_TOP_COPPER_-1
10
-0.02873
20
-8.348
0
INSERT
2
SMOOTH_0$127
8
PART_TOP_COPPER_-1
10
0.8496
20
-8.348
0
INSERT
2
SMOOTH_0$127
8
PART_TOP_COPPER_-1
10
0.8496
20
-7.6622
0
INSERT
2
SMOOTH_0$127
8
PART_TOP_COPPER_-1
10
-0.02873
20
-7.6622
0
POLYLINE
8
PART_TOP_COPPER_01
6
TRMIDX_12
66
1
40
0.15
41
0.15
70
1
0
VERTEX
8
PART_TOP_COPPER_01
10
0.4178
20
-8.348
0
VERTEX
8
PART_TOP_COPPER_01
10
0.4178
20
-7.6622
0
VERTEX
8
PART_TOP_COPPER_01
10
-0.05116
20
-7.6622
0
VERTEX
8
PART_TOP_COPPER_01
10
-0.05116
20
-8.348
0
SEQEND
0
INSERT
2
SMOOTH_0$15
8
PART_TOP_COPPER_01
10
0.4178
20
-8.348
0
INSERT
2
SMOOTH_0$15
8
PART_TOP_COPPER_01
10
0.4178
20
-7.6622
0
INSERT
2
SMOOTH_0$15
8
PART_TOP_COPPER_01
10
-0.05116
20
-7.6622
0
INSERT
2
SMOOTH_0$15
8
PART_TOP_COPPER_01
10
-0.05116
20
-8.348
0
POLYLINE
8
PART_TOP_COPPER_-1
6
TRMIDX_13
66
1
40
0.127
41
0.127
70
1
0
VERTEX
8
PART_TOP_COPPER_-1
10
-0.02873
20
-9.337
0
VERTEX
8
PART_TOP_COPPER_-1
10
0.8496
20
-9.337
0
VERTEX
8
PART_TOP_COPPER_-1
10
0.8496
20
-8.6512
0
VERTEX
8
PART_TOP_COPPER_-1
10
-0.02873
20
-8.6512
0
SEQEND
0
INSERT
2
SMOOTH_0$127
8
PART_TOP_COPPER_-1
10
-0.02873
20
-9.337
0
INSERT
2
SMOOTH_0$127
8
PART_TOP_COPPER_-1
10
0.8496
20
-9.337
0
INSERT
2
SMOOTH_0$127
8
PART_TOP_COPPER_-1
10
0.8496
20
-8.6512
0
INSERT
2
SMOOTH_0$127
8
PART_TOP_COPPER_-1
10
-0.02873
20
-8.6512
0
POLYLINE
8
PART_TOP_COPPER_01
6
TRMIDX_13
66
1
40
0.15
41
0.15
70
1
0
VERTEX
8
PART_TOP_COPPER_01
10
0.4178
20
-9.337
0
VERTEX
8
PART_TOP_COPPER_01
10
0.4178
20
-8.6512
0
VERTEX
8
PART_TOP_COPPER_01
10
-0.05116
20
-8.6512
0
VERTEX
8
PART_TOP_COPPER_01
10
-0.05116
20
-9.337
0
SEQEND
0
INSERT
2
SMOOTH_0$15
8
PART_TOP_COPPER_01
10
0.4178
20
-9.337
0
INSERT
2
SMOOTH_0$15
8
PART_TOP_COPPER_01
10
0.4178
20
-8.6512
0
INSERT
2
SMOOTH_0$15
8
PART_TOP_COPPER_01
10
-0.05116
20
-8.6512
0
INSERT
2
SMOOTH_0$15
8
PART_TOP_COPPER_01
10
-0.05116
20
-9.337
0
POLYLINE
8
PART_TOP_COPPER_-1
6
TRMIDX_14
66
1
40
0.127
41
0.127
70
1
0
VERTEX
8
PART_TOP_COPPER_-1
10
-0.02873
20
-10.3514
0
VERTEX
8
PART_TOP_COPPER_-1
10
0.8496
20
-10.3514
0
VERTEX
8
PART_TOP_COPPER_-1
10
0.8496
20
-9.6656
0
VERTEX
8
PART_TOP_COPPER_-1
10
-0.02873
20
-9.6656
0
SEQEND
0
INSERT
2
SMOOTH_0$127
8
PART_TOP_COPPER_-1
10
-0.02873
20
-10.3514
0
INSERT
2
SMOOTH_0$127
8
PART_TOP_COPPER_-1
10
0.8496
20
-10.3514
0
INSERT
2
SMOOTH_0$127
8
PART_TOP_COPPER_-1
10
0.8496
20
-9.6656
0
INSERT
2
SMOOTH_0$127
8
PART_TOP_COPPER_-1
10
-0.02873
20
-9.6656
0
POLYLINE
8
PART_TOP_COPPER_01
6
TRMIDX_14
66
1
40
0.15
41
0.15
70
1
0
VERTEX
8
PART_TOP_COPPER_01
10
0.4178
20
-10.3514
0
VERTEX
8
PART_TOP_COPPER_01
10
0.4178
20
-9.6656
0
VERTEX
8
PART_TOP_COPPER_01
10
-0.05116
20
-9.6656
0
VERTEX
8
PART_TOP_COPPER_01
10
-0.05116
20
-10.3514
0
SEQEND
0
INSERT
2
SMOOTH_0$15
8
PART_TOP_COPPER_01
10
0.4178
20
-10.3514
0
INSERT
2
SMOOTH_0$15
8
PART_TOP_COPPER_01
10
0.4178
20
-9.6656
0
INSERT
2
SMOOTH_0$15
8
PART_TOP_COPPER_01
10
-0.05116
20
-9.6656
0
INSERT
2
SMOOTH_0$15
8
PART_TOP_COPPER_01
10
-0.05116
20
-10.3514
0
POLYLINE
8
PART_TOP_COPPER_-1
6
TRMIDX_15
66
1
40
0.127
41
0.127
70
1
0
VERTEX
8
PART_TOP_COPPER_-1
10
2.6612
20
-11.50333
0
VERTEX
8
PART_TOP_COPPER_-1
10
2.6612
20
-10.625
0
VERTEX
8
PART_TOP_COPPER_-1
10
3.347
20
-10.625
0
VERTEX
8
PART_TOP_COPPER_-1
10
3.347
20
-11.50333
0
SEQEND
0
INSERT
2
SMOOTH_0$127
8
PART_TOP_COPPER_-1
10
2.6612
20
-11.50333
0
INSERT
2
SMOOTH_0$127
8
PART_TOP_COPPER_-1
10
2.6612
20
-10.625
0
INSERT
2
SMOOTH_0$127
8
PART_TOP_COPPER_-1
10
3.347
20
-10.625
0
INSERT
2
SMOOTH_0$127
8
PART_TOP_COPPER_-1
10
3.347
20
-11.50333
0
POLYLINE
8
PART_TOP_COPPER_01
6
TRMIDX_15
66
1
40
0.15
41
0.15
70
1
0
VERTEX
8
PART_TOP_COPPER_01
10
3.3512
20
-11.0766
0
VERTEX
8
PART_TOP_COPPER_01
10
2.6654
20
-11.0766
0
VERTEX
8
PART_TOP_COPPER_01
10
2.6654
20
-11.54556
0
VERTEX
8
PART_TOP_COPPER_01
10
3.3512
20
-11.54556
0
SEQEND
0
INSERT
2
SMOOTH_0$15
8
PART_TOP_COPPER_01
10
3.3512
20
-11.0766
0
INSERT
2
SMOOTH_0$15
8
PART_TOP_COPPER_01
10
2.6654
20
-11.0766
0
INSERT
2
SMOOTH_0$15
8
PART_TOP_COPPER_01
10
2.6654
20
-11.54556
0
INSERT
2
SMOOTH_0$15
8
PART_TOP_COPPER_01
10
3.3512
20
-11.54556
0
POLYLINE
8
PART_TOP_COPPER_-1
6
TRMIDX_16
66
1
40
0.127
41
0.127
70
1
0
VERTEX
8
PART_TOP_COPPER_-1
10
3.6502
20
-11.50333
0
VERTEX
8
PART_TOP_COPPER_-1
10
3.6502
20
-10.625
0
VERTEX
8
PART_TOP_COPPER_-1
10
4.336
20
-10.625
0
VERTEX
8
PART_TOP_COPPER_-1
10
4.336
20
-11.50333
0
SEQEND
0
INSERT
2
SMOOTH_0$127
8
PART_TOP_COPPER_-1
10
3.6502
20
-11.50333
0
INSERT
2
SMOOTH_0$127
8
PART_TOP_COPPER_-1
10
3.6502
20
-10.625
0
INSERT
2
SMOOTH_0$127
8
PART_TOP_COPPER_-1
10
4.336
20
-10.625
0
INSERT
2
SMOOTH_0$127
8
PART_TOP_COPPER_-1
10
4.336
20
-11.50333
0
POLYLINE
8
PART_TOP_COPPER_01
6
TRMIDX_16
66
1
40
0.15
41
0.15
70
1
0
VERTEX
8
PART_TOP_COPPER_01
10
4.3402
20
-11.0766
0
VERTEX
8
PART_TOP_COPPER_01
10
3.6544
20
-11.0766
0
VERTEX
8
PART_TOP_COPPER_01
10
3.6544
20
-11.54556
0
VERTEX
8
PART_TOP_COPPER_01
10
4.3402
20
-11.54556
0
SEQEND
0
INSERT
2
SMOOTH_0$15
8
PART_TOP_COPPER_01
10
4.3402
20
-11.0766
0
INSERT
2
SMOOTH_0$15
8
PART_TOP_COPPER_01
10
3.6544
20
-11.0766
0
INSERT
2
SMOOTH_0$15
8
PART_TOP_COPPER_01
10
3.6544
20
-11.54556
0
INSERT
2
SMOOTH_0$15
8
PART_TOP_COPPER_01
10
4.3402
20
-11.54556
0
POLYLINE
8
PART_TOP_COPPER_-1
6
TRMIDX_17
66
1
40
0.127
41
0.127
70
1
0
VERTEX
8
PART_TOP_COPPER_-1
10
4.6646
20
-11.50333
0
VERTEX
8
PART_TOP_COPPER_-1
10
4.6646
20
-10.625
0
VERTEX
8
PART_TOP_COPPER_-1
10
5.3504
20
-10.625
0
VERTEX
8
PART_TOP_COPPER_-1
10
5.3504
20
-11.50333
0
SEQEND
0
INSERT
2
SMOOTH_0$127
8
PART_TOP_COPPER_-1
10
4.6646
20
-11.50333
0
INSERT
2
SMOOTH_0$127
8
PART_TOP_COPPER_-1
10
4.6646
20
-10.625
0
INSERT
2
SMOOTH_0$127
8
PART_TOP_COPPER_-1
10
5.3504
20
-10.625
0
INSERT
2
SMOOTH_0$127
8
PART_TOP_COPPER_-1
10
5.3504
20
-11.50333
0
POLYLINE
8
PART_TOP_COPPER_01
6
TRMIDX_17
66
1
40
0.15
41
0.15
70
1
0
VERTEX
8
PART_TOP_COPPER_01
10
5.3546
20
-11.0766
0
VERTEX
8
PART_TOP_COPPER_01
10
4.6688
20
-11.0766
0
VERTEX
8
PART_TOP_COPPER_01
10
4.6688
20
-11.54556
0
VERTEX
8
PART_TOP_COPPER_01
10
5.3546
20
-11.54556
0
SEQEND
0
INSERT
2
SMOOTH_0$15
8
PART_TOP_COPPER_01
10
5.3546
20
-11.0766
0
INSERT
2
SMOOTH_0$15
8
PART_TOP_COPPER_01
10
4.6688
20
-11.0766
0
INSERT
2
SMOOTH_0$15
8
PART_TOP_COPPER_01
10
4.6688
20
-11.54556
0
INSERT
2
SMOOTH_0$15
8
PART_TOP_COPPER_01
10
5.3546
20
-11.54556
0
POLYLINE
8
PART_TOP_COPPER_-1
6
TRMIDX_18
66
1
40
0.127
41
0.127
70
1
0
VERTEX
8
PART_TOP_COPPER_-1
10
5.6536
20
-11.50333
0
VERTEX
8
PART_TOP_COPPER_-1
10
5.6536
20
-10.625
0
VERTEX
8
PART_TOP_COPPER_-1
10
6.3394
20
-10.625
0
VERTEX
8
PART_TOP_COPPER_-1
10
6.3394
20
-11.50333
0
SEQEND
0
INSERT
2
SMOOTH_0$127
8
PART_TOP_COPPER_-1
10
5.6536
20
-11.50333
0
INSERT
2
SMOOTH_0$127
8
PART_TOP_COPPER_-1
10
5.6536
20
-10.625
0
INSERT
2
SMOOTH_0$127
8
PART_TOP_COPPER_-1
10
6.3394
20
-10.625
0
INSERT
2
SMOOTH_0$127
8
PART_TOP_COPPER_-1
10
6.3394
20
-11.50333
0
POLYLINE
8
PART_TOP_COPPER_01
6
TRMIDX_18
66
1
40
0.15
41
0.15
70
1
0
VERTEX
8
PART_TOP_COPPER_01
10
6.3436
20
-11.0766
0
VERTEX
8
PART_TOP_COPPER_01
10
5.6578
20
-11.0766
0
VERTEX
8
PART_TOP_COPPER_01
10
5.6578
20
-11.54556
0
VERTEX
8
PART_TOP_COPPER_01
10
6.3436
20
-11.54556
0
SEQEND
0
INSERT
2
SMOOTH_0$15
8
PART_TOP_COPPER_01
10
6.3436
20
-11.0766
0
INSERT
2
SMOOTH_0$15
8
PART_TOP_COPPER_01
10
5.6578
20
-11.0766
0
INSERT
2
SMOOTH_0$15
8
PART_TOP_COPPER_01
10
5.6578
20
-11.54556
0
INSERT
2
SMOOTH_0$15
8
PART_TOP_COPPER_01
10
6.3436
20
-11.54556
0
POLYLINE
8
PART_TOP_COPPER_-1
6
TRMIDX_19
66
1
40
0.127
41
0.127
70
1
0
VERTEX
8
PART_TOP_COPPER_-1
10
6.668
20
-11.50333
0
VERTEX
8
PART_TOP_COPPER_-1
10
6.668
20
-10.625
0
VERTEX
8
PART_TOP_COPPER_-1
10
7.3538
20
-10.625
0
VERTEX
8
PART_TOP_COPPER_-1
10
7.3538
20
-11.50333
0
SEQEND
0
INSERT
2
SMOOTH_0$127
8
PART_TOP_COPPER_-1
10
6.668
20
-11.50333
0
INSERT
2
SMOOTH_0$127
8
PART_TOP_COPPER_-1
10
6.668
20
-10.625
0
INSERT
2
SMOOTH_0$127
8
PART_TOP_COPPER_-1
10
7.3538
20
-10.625
0
INSERT
2
SMOOTH_0$127
8
PART_TOP_COPPER_-1
10
7.3538
20
-11.50333
0
POLYLINE
8
PART_TOP_COPPER_01
6
TRMIDX_19
66
1
40
0.15
41
0.15
70
1
0
VERTEX
8
PART_TOP_COPPER_01
10
7.358
20
-11.0766
0
VERTEX
8
PART_TOP_COPPER_01
10
6.6722
20
-11.0766
0
VERTEX
8
PART_TOP_COPPER_01
10
6.6722
20
-11.54556
0
VERTEX
8
PART_TOP_COPPER_01
10
7.358
20
-11.54556
0
SEQEND
0
INSERT
2
SMOOTH_0$15
8
PART_TOP_COPPER_01
10
7.358
20
-11.0766
0
INSERT
2
SMOOTH_0$15
8
PART_TOP_COPPER_01
10
6.6722
20
-11.0766
0
INSERT
2
SMOOTH_0$15
8
PART_TOP_COPPER_01
10
6.6722
20
-11.54556
0
INSERT
2
SMOOTH_0$15
8
PART_TOP_COPPER_01
10
7.358
20
-11.54556
0
POLYLINE
8
PART_TOP_COPPER_-1
6
TRMIDX_20
66
1
40
0.127
41
0.127
70
1
0
VERTEX
8
PART_TOP_COPPER_-1
10
7.657
20
-11.50333
0
VERTEX
8
PART_TOP_COPPER_-1
10
7.657
20
-10.625
0
VERTEX
8
PART_TOP_COPPER_-1
10
8.3428
20
-10.625
0
VERTEX
8
PART_TOP_COPPER_-1
10
8.3428
20
-11.50333
0
SEQEND
0
INSERT
2
SMOOTH_0$127
8
PART_TOP_COPPER_-1
10
7.657
20
-11.50333
0
INSERT
2
SMOOTH_0$127
8
PART_TOP_COPPER_-1
10
7.657
20
-10.625
0
INSERT
2
SMOOTH_0$127
8
PART_TOP_COPPER_-1
10
8.3428
20
-10.625
0
INSERT
2
SMOOTH_0$127
8
PART_TOP_COPPER_-1
10
8.3428
20
-11.50333
0
POLYLINE
8
PART_TOP_COPPER_01
6
TRMIDX_20
66
1
40
0.15
41
0.15
70
1
0
VERTEX
8
PART_TOP_COPPER_01
10
8.347
20
-11.0766
0
VERTEX
8
PART_TOP_COPPER_01
10
7.6612
20
-11.0766
0
VERTEX
8
PART_TOP_COPPER_01
10
7.6612
20
-11.54556
0
VERTEX
8
PART_TOP_COPPER_01
10
8.347
20
-11.54556
0
SEQEND
0
INSERT
2
SMOOTH_0$15
8
PART_TOP_COPPER_01
10
8.347
20
-11.0766
0
INSERT
2
SMOOTH_0$15
8
PART_TOP_COPPER_01
10
7.6612
20
-11.0766
0
INSERT
2
SMOOTH_0$15
8
PART_TOP_COPPER_01
10
7.6612
20
-11.54556
0
INSERT
2
SMOOTH_0$15
8
PART_TOP_COPPER_01
10
8.347
20
-11.54556
0
POLYLINE
8
PART_TOP_COPPER_-1
6
TRMIDX_21
66
1
40
0.127
41
0.127
70
1
0
VERTEX
8
PART_TOP_COPPER_-1
10
8.646
20
-11.50333
0
VERTEX
8
PART_TOP_COPPER_-1
10
8.646
20
-10.625
0
VERTEX
8
PART_TOP_COPPER_-1
10
9.3318
20
-10.625
0
VERTEX
8
PART_TOP_COPPER_-1
10
9.3318
20
-11.50333
0
SEQEND
0
INSERT
2
SMOOTH_0$127
8
PART_TOP_COPPER_-1
10
8.646
20
-11.50333
0
INSERT
2
SMOOTH_0$127
8
PART_TOP_COPPER_-1
10
8.646
20
-10.625
0
INSERT
2
SMOOTH_0$127
8
PART_TOP_COPPER_-1
10
9.3318
20
-10.625
0
INSERT
2
SMOOTH_0$127
8
PART_TOP_COPPER_-1
10
9.3318
20
-11.50333
0
POLYLINE
8
PART_TOP_COPPER_01
6
TRMIDX_21
66
1
40
0.15
41
0.15
70
1
0
VERTEX
8
PART_TOP_COPPER_01
10
9.336
20
-11.0766
0
VERTEX
8
PART_TOP_COPPER_01
10
8.6502
20
-11.0766
0
VERTEX
8
PART_TOP_COPPER_01
10
8.6502
20
-11.54556
0
VERTEX
8
PART_TOP_COPPER_01
10
9.336
20
-11.54556
0
SEQEND
0
INSERT
2
SMOOTH_0$15
8
PART_TOP_COPPER_01
10
9.336
20
-11.0766
0
INSERT
2
SMOOTH_0$15
8
PART_TOP_COPPER_01
10
8.6502
20
-11.0766
0
INSERT
2
SMOOTH_0$15
8
PART_TOP_COPPER_01
10
8.6502
20
-11.54556
0
INSERT
2
SMOOTH_0$15
8
PART_TOP_COPPER_01
10
9.336
20
-11.54556
0
POLYLINE
8
PART_TOP_COPPER_-1
6
TRMIDX_22
66
1
40
0.127
41
0.127
70
1
0
VERTEX
8
PART_TOP_COPPER_-1
10
9.646
20
-11.50333
0
VERTEX
8
PART_TOP_COPPER_-1
10
9.646
20
-10.625
0
VERTEX
8
PART_TOP_COPPER_-1
10
10.3318
20
-10.625
0
VERTEX
8
PART_TOP_COPPER_-1
10
10.3318
20
-11.50333
0
SEQEND
0
INSERT
2
SMOOTH_0$127
8
PART_TOP_COPPER_-1
10
9.646
20
-11.50333
0
INSERT
2
SMOOTH_0$127
8
PART_TOP_COPPER_-1
10
9.646
20
-10.625
0
INSERT
2
SMOOTH_0$127
8
PART_TOP_COPPER_-1
10
10.3318
20
-10.625
0
INSERT
2
SMOOTH_0$127
8
PART_TOP_COPPER_-1
10
10.3318
20
-11.50333
0
POLYLINE
8
PART_TOP_COPPER_01
6
TRMIDX_22
66
1
40
0.15
41
0.15
70
1
0
VERTEX
8
PART_TOP_COPPER_01
10
10.336
20
-11.0766
0
VERTEX
8
PART_TOP_COPPER_01
10
9.6502
20
-11.0766
0
VERTEX
8
PART_TOP_COPPER_01
10
9.6502
20
-11.54556
0
VERTEX
8
PART_TOP_COPPER_01
10
10.336
20
-11.54556
0
SEQEND
0
INSERT
2
SMOOTH_0$15
8
PART_TOP_COPPER_01
10
10.336
20
-11.0766
0
INSERT
2
SMOOTH_0$15
8
PART_TOP_COPPER_01
10
9.6502
20
-11.0766
0
INSERT
2
SMOOTH_0$15
8
PART_TOP_COPPER_01
10
9.6502
20
-11.54556
0
INSERT
2
SMOOTH_0$15
8
PART_TOP_COPPER_01
10
10.336
20
-11.54556
0
POLYLINE
8
PART_TOP_COPPER_-1
6
TRMIDX_23
66
1
40
0.127
41
0.127
70
1
0
VERTEX
8
PART_TOP_COPPER_-1
10
12.12187
20
-10.3514
0
VERTEX
8
PART_TOP_COPPER_-1
10
13.0002
20
-10.3514
0
VERTEX
8
PART_TOP_COPPER_-1
10
13.0002
20
-9.6656
0
VERTEX
8
PART_TOP_COPPER_-1
10
12.12187
20
-9.6656
0
SEQEND
0
INSERT
2
SMOOTH_0$127
8
PART_TOP_COPPER_-1
10
12.12187
20
-10.3514
0
INSERT
2
SMOOTH_0$127
8
PART_TOP_COPPER_-1
10
13.0002
20
-10.3514
0
INSERT
2
SMOOTH_0$127
8
PART_TOP_COPPER_-1
10
13.0002
20
-9.6656
0
INSERT
2
SMOOTH_0$127
8
PART_TOP_COPPER_-1
10
12.12187
20
-9.6656
0
POLYLINE
8
PART_TOP_COPPER_01
6
TRMIDX_23
66
1
40
0.15
41
0.15
70
1
0
VERTEX
8
PART_TOP_COPPER_01
10
13.051
20
-10.3514
0
VERTEX
8
PART_TOP_COPPER_01
10
13.051
20
-9.6656
0
VERTEX
8
PART_TOP_COPPER_01
10
12.58204
20
-9.6656
0
VERTEX
8
PART_TOP_COPPER_01
10
12.58204
20
-10.3514
0
SEQEND
0
INSERT
2
SMOOTH_0$15
8
PART_TOP_COPPER_01
10
13.051
20
-10.3514
0
INSERT
2
SMOOTH_0$15
8
PART_TOP_COPPER_01
10
13.051
20
-9.6656
0
INSERT
2
SMOOTH_0$15
8
PART_TOP_COPPER_01
10
12.58204
20
-9.6656
0
INSERT
2
SMOOTH_0$15
8
PART_TOP_COPPER_01
10
12.58204
20
-10.3514
0
POLYLINE
8
PART_TOP_COPPER_-1
6
TRMIDX_24
66
1
40
0.127
41
0.127
70
1
0
VERTEX
8
PART_TOP_COPPER_-1
10
12.12187
20
-9.337
0
VERTEX
8
PART_TOP_COPPER_-1
10
13.0002
20
-9.337
0
VERTEX
8
PART_TOP_COPPER_-1
10
13.0002
20
-8.6512
0
VERTEX
8
PART_TOP_COPPER_-1
10
12.12187
20
-8.6512
0
SEQEND
0
INSERT
2
SMOOTH_0$127
8
PART_TOP_COPPER_-1
10
12.12187
20
-9.337
0
INSERT
2
SMOOTH_0$127
8
PART_TOP_COPPER_-1
10
13.0002
20
-9.337
0
INSERT
2
SMOOTH_0$127
8
PART_TOP_COPPER_-1
10
13.0002
20
-8.6512
0
INSERT
2
SMOOTH_0$127
8
PART_TOP_COPPER_-1
10
12.12187
20
-8.6512
0
POLYLINE
8
PART_TOP_COPPER_01
6
TRMIDX_24
66
1
40
0.15
41
0.15
70
1
0
VERTEX
8
PART_TOP_COPPER_01
10
13.051
20
-9.337
0
VERTEX
8
PART_TOP_COPPER_01
10
13.051
20
-8.6512
0
VERTEX
8
PART_TOP_COPPER_01
10
12.58204
20
-8.6512
0
VERTEX
8
PART_TOP_COPPER_01
10
12.58204
20
-9.337
0
SEQEND
0
INSERT
2
SMOOTH_0$15
8
PART_TOP_COPPER_01
10
13.051
20
-9.337
0
INSERT
2
SMOOTH_0$15
8
PART_TOP_COPPER_01
10
13.051
20
-8.6512
0
INSERT
2
SMOOTH_0$15
8
PART_TOP_COPPER_01
10
12.58204
20
-8.6512
0
INSERT
2
SMOOTH_0$15
8
PART_TOP_COPPER_01
10
12.58204
20
-9.337
0
POLYLINE
8
PART_TOP_COPPER_-1
6
TRMIDX_25
66
1
40
0.127
41
0.127
70
1
0
VERTEX
8
PART_TOP_COPPER_-1
10
12.13327
20
-8.3522
0
VERTEX
8
PART_TOP_COPPER_-1
10
13.0116
20
-8.3522
0
VERTEX
8
PART_TOP_COPPER_-1
10
13.0116
20
-7.6664
0
VERTEX
8
PART_TOP_COPPER_-1
10
12.13327
20
-7.6664
0
SEQEND
0
INSERT
2
SMOOTH_0$127
8
PART_TOP_COPPER_-1
10
12.13327
20
-8.3522
0
INSERT
2
SMOOTH_0$127
8
PART_TOP_COPPER_-1
10
13.0116
20
-8.3522
0
INSERT
2
SMOOTH_0$127
8
PART_TOP_COPPER_-1
10
13.0116
20
-7.6664
0
INSERT
2
SMOOTH_0$127
8
PART_TOP_COPPER_-1
10
12.13327
20
-7.6664
0
POLYLINE
8
PART_TOP_COPPER_01
6
TRMIDX_25
66
1
40
0.15
41
0.15
70
1
0
VERTEX
8
PART_TOP_COPPER_01
10
13.051
20
-8.348
0
VERTEX
8
PART_TOP_COPPER_01
10
13.051
20
-7.6622
0
VERTEX
8
PART_TOP_COPPER_01
10
12.58204
20
-7.6622
0
VERTEX
8
PART_TOP_COPPER_01
10
12.58204
20
-8.348
0
SEQEND
0
INSERT
2
SMOOTH_0$15
8
PART_TOP_COPPER_01
10
13.051
20
-8.348
0
INSERT
2
SMOOTH_0$15
8
PART_TOP_COPPER_01
10
13.051
20
-7.6622
0
INSERT
2
SMOOTH_0$15
8
PART_TOP_COPPER_01
10
12.58204
20
-7.6622
0
INSERT
2
SMOOTH_0$15
8
PART_TOP_COPPER_01
10
12.58204
20
-8.348
0
POLYLINE
8
PART_TOP_COPPER_-1
6
TRMIDX_26
66
1
40
0.127
41
0.127
70
1
0
VERTEX
8
PART_TOP_COPPER_-1
10
12.12187
20
-7.3336
0
VERTEX
8
PART_TOP_COPPER_-1
10
13.0002
20
-7.3336
0
VERTEX
8
PART_TOP_COPPER_-1
10
13.0002
20
-6.6478
0
VERTEX
8
PART_TOP_COPPER_-1
10
12.12187
20
-6.6478
0
SEQEND
0
INSERT
2
SMOOTH_0$127
8
PART_TOP_COPPER_-1
10
12.12187
20
-7.3336
0
INSERT
2
SMOOTH_0$127
8
PART_TOP_COPPER_-1
10
13.0002
20
-7.3336
0
INSERT
2
SMOOTH_0$127
8
PART_TOP_COPPER_-1
10
13.0002
20
-6.6478
0
INSERT
2
SMOOTH_0$127
8
PART_TOP_COPPER_-1
10
12.12187
20
-6.6478
0
POLYLINE
8
PART_TOP_COPPER_01
6
TRMIDX_26
66
1
40
0.15
41
0.15
70
1
0
VERTEX
8
PART_TOP_COPPER_01
10
13.051
20
-7.3336
0
VERTEX
8
PART_TOP_COPPER_01
10
13.051
20
-6.6478
0
VERTEX
8
PART_TOP_COPPER_01
10
12.58204
20
-6.6478
0
VERTEX
8
PART_TOP_COPPER_01
10
12.58204
20
-7.3336
0
SEQEND
0
INSERT
2
SMOOTH_0$15
8
PART_TOP_COPPER_01
10
13.051
20
-7.3336
0
INSERT
2
SMOOTH_0$15
8
PART_TOP_COPPER_01
10
13.051
20
-6.6478
0
INSERT
2
SMOOTH_0$15
8
PART_TOP_COPPER_01
10
12.58204
20
-6.6478
0
INSERT
2
SMOOTH_0$15
8
PART_TOP_COPPER_01
10
12.58204
20
-7.3336
0
POLYLINE
8
PART_TOP_COPPER_-1
6
TRMIDX_27
66
1
40
0.127
41
0.127
70
1
0
VERTEX
8
PART_TOP_COPPER_-1
10
12.12187
20
-6.3446
0
VERTEX
8
PART_TOP_COPPER_-1
10
13.0002
20
-6.3446
0
VERTEX
8
PART_TOP_COPPER_-1
10
13.0002
20
-5.6588
0
VERTEX
8
PART_TOP_COPPER_-1
10
12.12187
20
-5.6588
0
SEQEND
0
INSERT
2
SMOOTH_0$127
8
PART_TOP_COPPER_-1
10
12.12187
20
-6.3446
0
INSERT
2
SMOOTH_0$127
8
PART_TOP_COPPER_-1
10
13.0002
20
-6.3446
0
INSERT
2
SMOOTH_0$127
8
PART_TOP_COPPER_-1
10
13.0002
20
-5.6588
0
INSERT
2
SMOOTH_0$127
8
PART_TOP_COPPER_-1
10
12.12187
20
-5.6588
0
POLYLINE
8
PART_TOP_COPPER_01
6
TRMIDX_27
66
1
40
0.15
41
0.15
70
1
0
VERTEX
8
PART_TOP_COPPER_01
10
13.051
20
-6.3446
0
VERTEX
8
PART_TOP_COPPER_01
10
13.051
20
-5.6588
0
VERTEX
8
PART_TOP_COPPER_01
10
12.58204
20
-5.6588
0
VERTEX
8
PART_TOP_COPPER_01
10
12.58204
20
-6.3446
0
SEQEND
0
INSERT
2
SMOOTH_0$15
8
PART_TOP_COPPER_01
10
13.051
20
-6.3446
0
INSERT
2
SMOOTH_0$15
8
PART_TOP_COPPER_01
10
13.051
20
-5.6588
0
INSERT
2
SMOOTH_0$15
8
PART_TOP_COPPER_01
10
12.58204
20
-5.6588
0
INSERT
2
SMOOTH_0$15
8
PART_TOP_COPPER_01
10
12.58204
20
-6.3446
0
POLYLINE
8
PART_TOP_COPPER_-1
6
TRMIDX_28
66
1
40
0.127
41
0.127
70
1
0
VERTEX
8
PART_TOP_COPPER_-1
10
12.12187
20
-5.3302
0
VERTEX
8
PART_TOP_COPPER_-1
10
13.0002
20
-5.3302
0
VERTEX
8
PART_TOP_COPPER_-1
10
13.0002
20
-4.6444
0
VERTEX
8
PART_TOP_COPPER_-1
10
12.12187
20
-4.6444
0
SEQEND
0
INSERT
2
SMOOTH_0$127
8
PART_TOP_COPPER_-1
10
12.12187
20
-5.3302
0
INSERT
2
SMOOTH_0$127
8
PART_TOP_COPPER_-1
10
13.0002
20
-5.3302
0
INSERT
2
SMOOTH_0$127
8
PART_TOP_COPPER_-1
10
13.0002
20
-4.6444
0
INSERT
2
SMOOTH_0$127
8
PART_TOP_COPPER_-1
10
12.12187
20
-4.6444
0
POLYLINE
8
PART_TOP_COPPER_01
6
TRMIDX_28
66
1
40
0.15
41
0.15
70
1
0
VERTEX
8
PART_TOP_COPPER_01
10
13.051
20
-5.3302
0
VERTEX
8
PART_TOP_COPPER_01
10
13.051
20
-4.6444
0
VERTEX
8
PART_TOP_COPPER_01
10
12.58204
20
-4.6444
0
VERTEX
8
PART_TOP_COPPER_01
10
12.58204
20
-5.3302
0
SEQEND
0
INSERT
2
SMOOTH_0$15
8
PART_TOP_COPPER_01
10
13.051
20
-5.3302
0
INSERT
2
SMOOTH_0$15
8
PART_TOP_COPPER_01
10
13.051
20
-4.6444
0
INSERT
2
SMOOTH_0$15
8
PART_TOP_COPPER_01
10
12.58204
20
-4.6444
0
INSERT
2
SMOOTH_0$15
8
PART_TOP_COPPER_01
10
12.58204
20
-5.3302
0
POLYLINE
8
PART_TOP_COPPER_-1
6
TRMIDX_29
66
1
40
0.127
41
0.127
70
1
0
VERTEX
8
PART_TOP_COPPER_-1
10
12.12187
20
-4.3158
0
VERTEX
8
PART_TOP_COPPER_-1
10
13.0002
20
-4.3158
0
VERTEX
8
PART_TOP_COPPER_-1
10
13.0002
20
-3.63
0
VERTEX
8
PART_TOP_COPPER_-1
10
12.12187
20
-3.63
0
SEQEND
0
INSERT
2
SMOOTH_0$127
8
PART_TOP_COPPER_-1
10
12.12187
20
-4.3158
0
INSERT
2
SMOOTH_0$127
8
PART_TOP_COPPER_-1
10
13.0002
20
-4.3158
0
INSERT
2
SMOOTH_0$127
8
PART_TOP_COPPER_-1
10
13.0002
20
-3.63
0
INSERT
2
SMOOTH_0$127
8
PART_TOP_COPPER_-1
10
12.12187
20
-3.63
0
POLYLINE
8
PART_TOP_COPPER_01
6
TRMIDX_29
66
1
40
0.15
41
0.15
70
1
0
VERTEX
8
PART_TOP_COPPER_01
10
13.051
20
-4.3158
0
VERTEX
8
PART_TOP_COPPER_01
10
13.051
20
-3.63
0
VERTEX
8
PART_TOP_COPPER_01
10
12.58204
20
-3.63
0
VERTEX
8
PART_TOP_COPPER_01
10
12.58204
20
-4.3158
0
SEQEND
0
INSERT
2
SMOOTH_0$15
8
PART_TOP_COPPER_01
10
13.051
20
-4.3158
0
INSERT
2
SMOOTH_0$15
8
PART_TOP_COPPER_01
10
13.051
20
-3.63
0
INSERT
2
SMOOTH_0$15
8
PART_TOP_COPPER_01
10
12.58204
20
-3.63
0
INSERT
2
SMOOTH_0$15
8
PART_TOP_COPPER_01
10
12.58204
20
-4.3158
0
POLYLINE
8
PART_TOP_COPPER_-1
6
TRMIDX_30
66
1
40
0.127
41
0.127
70
1
0
VERTEX
8
PART_TOP_COPPER_-1
10
12.12187
20
-3.3268
0
VERTEX
8
PART_TOP_COPPER_-1
10
13.0002
20
-3.3268
0
VERTEX
8
PART_TOP_COPPER_-1
10
13.0002
20
-2.641
0
VERTEX
8
PART_TOP_COPPER_-1
10
12.12187
20
-2.641
0
SEQEND
0
INSERT
2
SMOOTH_0$127
8
PART_TOP_COPPER_-1
10
12.12187
20
-3.3268
0
INSERT
2
SMOOTH_0$127
8
PART_TOP_COPPER_-1
10
13.0002
20
-3.3268
0
INSERT
2
SMOOTH_0$127
8
PART_TOP_COPPER_-1
10
13.0002
20
-2.641
0
INSERT
2
SMOOTH_0$127
8
PART_TOP_COPPER_-1
10
12.12187
20
-2.641
0
POLYLINE
8
PART_TOP_COPPER_01
6
TRMIDX_30
66
1
40
0.15
41
0.15
70
1
0
VERTEX
8
PART_TOP_COPPER_01
10
13.051
20
-3.3268
0
VERTEX
8
PART_TOP_COPPER_01
10
13.051
20
-2.641
0
VERTEX
8
PART_TOP_COPPER_01
10
12.58204
20
-2.641
0
VERTEX
8
PART_TOP_COPPER_01
10
12.58204
20
-3.3268
0
SEQEND
0
INSERT
2
SMOOTH_0$15
8
PART_TOP_COPPER_01
10
13.051
20
-3.3268
0
INSERT
2
SMOOTH_0$15
8
PART_TOP_COPPER_01
10
13.051
20
-2.641
0
INSERT
2
SMOOTH_0$15
8
PART_TOP_COPPER_01
10
12.58204
20
-2.641
0
INSERT
2
SMOOTH_0$15
8
PART_TOP_COPPER_01
10
12.58204
20
-3.3268
0
POLYLINE
8
PART_TOP_COPPER_-1
6
TRMIDX_31
66
1
40
0.127
41
0.127
70
1
0
VERTEX
8
PART_TOP_COPPER_-1
10
12.12187
20
-2.3378
0
VERTEX
8
PART_TOP_COPPER_-1
10
13.0002
20
-2.3378
0
VERTEX
8
PART_TOP_COPPER_-1
10
13.0002
20
-1.652
0
VERTEX
8
PART_TOP_COPPER_-1
10
12.12187
20
-1.652
0
SEQEND
0
INSERT
2
SMOOTH_0$127
8
PART_TOP_COPPER_-1
10
12.12187
20
-2.3378
0
INSERT
2
SMOOTH_0$127
8
PART_TOP_COPPER_-1
10
13.0002
20
-2.3378
0
INSERT
2
SMOOTH_0$127
8
PART_TOP_COPPER_-1
10
13.0002
20
-1.652
0
INSERT
2
SMOOTH_0$127
8
PART_TOP_COPPER_-1
10
12.12187
20
-1.652
0
POLYLINE
8
PART_TOP_COPPER_01
6
TRMIDX_31
66
1
40
0.15
41
0.15
70
1
0
VERTEX
8
PART_TOP_COPPER_01
10
13.051
20
-2.3378
0
VERTEX
8
PART_TOP_COPPER_01
10
13.051
20
-1.652
0
VERTEX
8
PART_TOP_COPPER_01
10
12.58204
20
-1.652
0
VERTEX
8
PART_TOP_COPPER_01
10
12.58204
20
-2.3378
0
SEQEND
0
INSERT
2
SMOOTH_0$15
8
PART_TOP_COPPER_01
10
13.051
20
-2.3378
0
INSERT
2
SMOOTH_0$15
8
PART_TOP_COPPER_01
10
13.051
20
-1.652
0
INSERT
2
SMOOTH_0$15
8
PART_TOP_COPPER_01
10
12.58204
20
-1.652
0
INSERT
2
SMOOTH_0$15
8
PART_TOP_COPPER_01
10
12.58204
20
-2.3378
0
POLYLINE
8
PART_TOP_COPPER_-1
6
TRMIDX_32
66
1
40
0.127
41
0.127
70
1
0
VERTEX
8
PART_TOP_COPPER_-1
10
12.12187
20
-1.3488
0
VERTEX
8
PART_TOP_COPPER_-1
10
13.0002
20
-1.3488
0
VERTEX
8
PART_TOP_COPPER_-1
10
13.0002
20
-0.663
0
VERTEX
8
PART_TOP_COPPER_-1
10
12.12187
20
-0.663
0
SEQEND
0
INSERT
2
SMOOTH_0$127
8
PART_TOP_COPPER_-1
10
12.12187
20
-1.3488
0
INSERT
2
SMOOTH_0$127
8
PART_TOP_COPPER_-1
10
13.0002
20
-1.3488
0
INSERT
2
SMOOTH_0$127
8
PART_TOP_COPPER_-1
10
13.0002
20
-0.663
0
INSERT
2
SMOOTH_0$127
8
PART_TOP_COPPER_-1
10
12.12187
20
-0.663
0
POLYLINE
8
PART_TOP_COPPER_01
6
TRMIDX_32
66
1
40
0.15
41
0.15
70
1
0
VERTEX
8
PART_TOP_COPPER_01
10
13.051
20
-1.3488
0
VERTEX
8
PART_TOP_COPPER_01
10
13.051
20
-0.663
0
VERTEX
8
PART_TOP_COPPER_01
10
12.58204
20
-0.663
0
VERTEX
8
PART_TOP_COPPER_01
10
12.58204
20
-1.3488
0
SEQEND
0
INSERT
2
SMOOTH_0$15
8
PART_TOP_COPPER_01
10
13.051
20
-1.3488
0
INSERT
2
SMOOTH_0$15
8
PART_TOP_COPPER_01
10
13.051
20
-0.663
0
INSERT
2
SMOOTH_0$15
8
PART_TOP_COPPER_01
10
12.58204
20
-0.663
0
INSERT
2
SMOOTH_0$15
8
PART_TOP_COPPER_01
10
12.58204
20
-1.3488
0
POLYLINE
8
PART_TOP_COPPER_-1
6
TRMIDX_33
66
1
40
0.127
41
0.127
70
1
0
VERTEX
8
PART_TOP_COPPER_-1
10
12.12187
20
-0.3344
0
VERTEX
8
PART_TOP_COPPER_-1
10
13.0002
20
-0.3344
0
VERTEX
8
PART_TOP_COPPER_-1
10
13.0002
20
0.3514
0
VERTEX
8
PART_TOP_COPPER_-1
10
12.12187
20
0.3514
0
SEQEND
0
INSERT
2
SMOOTH_0$127
8
PART_TOP_COPPER_-1
10
12.12187
20
-0.3344
0
INSERT
2
SMOOTH_0$127
8
PART_TOP_COPPER_-1
10
13.0002
20
-0.3344
0
INSERT
2
SMOOTH_0$127
8
PART_TOP_COPPER_-1
10
13.0002
20
0.3514
0
INSERT
2
SMOOTH_0$127
8
PART_TOP_COPPER_-1
10
12.12187
20
0.3514
0
POLYLINE
8
PART_TOP_COPPER_01
6
TRMIDX_33
66
1
40
0.15
41
0.15
70
1
0
VERTEX
8
PART_TOP_COPPER_01
10
13.051
20
-0.3344
0
VERTEX
8
PART_TOP_COPPER_01
10
13.051
20
0.3514
0
VERTEX
8
PART_TOP_COPPER_01
10
12.58204
20
0.3514
0
VERTEX
8
PART_TOP_COPPER_01
10
12.58204
20
-0.3344
0
SEQEND
0
INSERT
2
SMOOTH_0$15
8
PART_TOP_COPPER_01
10
13.051
20
-0.3344
0
INSERT
2
SMOOTH_0$15
8
PART_TOP_COPPER_01
10
13.051
20
0.3514
0
INSERT
2
SMOOTH_0$15
8
PART_TOP_COPPER_01
10
12.58204
20
0.3514
0
INSERT
2
SMOOTH_0$15
8
PART_TOP_COPPER_01
10
12.58204
20
-0.3344
0
POLYLINE
8
PART_TOP_COPPER_-1
6
TRMIDX_34
66
1
40
0.127
41
0.127
70
1
0
VERTEX
8
PART_TOP_COPPER_-1
10
12.12187
20
0.6656
0
VERTEX
8
PART_TOP_COPPER_-1
10
13.0002
20
0.6656
0
VERTEX
8
PART_TOP_COPPER_-1
10
13.0002
20
1.3514
0
VERTEX
8
PART_TOP_COPPER_-1
10
12.12187
20
1.3514
0
SEQEND
0
INSERT
2
SMOOTH_0$127
8
PART_TOP_COPPER_-1
10
12.12187
20
0.6656
0
INSERT
2
SMOOTH_0$127
8
PART_TOP_COPPER_-1
10
13.0002
20
0.6656
0
INSERT
2
SMOOTH_0$127
8
PART_TOP_COPPER_-1
10
13.0002
20
1.3514
0
INSERT
2
SMOOTH_0$127
8
PART_TOP_COPPER_-1
10
12.12187
20
1.3514
0
POLYLINE
8
PART_TOP_COPPER_01
6
TRMIDX_34
66
1
40
0.15
41
0.15
70
1
0
VERTEX
8
PART_TOP_COPPER_01
10
13.051
20
0.6656
0
VERTEX
8
PART_TOP_COPPER_01
10
13.051
20
1.3514
0
VERTEX
8
PART_TOP_COPPER_01
10
12.58204
20
1.3514
0
VERTEX
8
PART_TOP_COPPER_01
10
12.58204
20
0.6656
0
SEQEND
0
INSERT
2
SMOOTH_0$15
8
PART_TOP_COPPER_01
10
13.051
20
0.6656
0
INSERT
2
SMOOTH_0$15
8
PART_TOP_COPPER_01
10
13.051
20
1.3514
0
INSERT
2
SMOOTH_0$15
8
PART_TOP_COPPER_01
10
12.58204
20
1.3514
0
INSERT
2
SMOOTH_0$15
8
PART_TOP_COPPER_01
10
12.58204
20
0.6656
0
POLYLINE
8
PART_TOP_COPPER_-1
6
TRMIDX_35
66
1
40
0.127
41
0.127
70
1
0
VERTEX
8
PART_TOP_COPPER_-1
10
12.12187
20
1.6656
0
VERTEX
8
PART_TOP_COPPER_-1
10
13.0002
20
1.6656
0
VERTEX
8
PART_TOP_COPPER_-1
10
13.0002
20
2.3514
0
VERTEX
8
PART_TOP_COPPER_-1
10
12.12187
20
2.3514
0
SEQEND
0
INSERT
2
SMOOTH_0$127
8
PART_TOP_COPPER_-1
10
12.12187
20
1.6656
0
INSERT
2
SMOOTH_0$127
8
PART_TOP_COPPER_-1
10
13.0002
20
1.6656
0
INSERT
2
SMOOTH_0$127
8
PART_TOP_COPPER_-1
10
13.0002
20
2.3514
0
INSERT
2
SMOOTH_0$127
8
PART_TOP_COPPER_-1
10
12.12187
20
2.3514
0
POLYLINE
8
PART_TOP_COPPER_01
6
TRMIDX_35
66
1
40
0.15
41
0.15
70
1
0
VERTEX
8
PART_TOP_COPPER_01
10
13.051
20
1.6656
0
VERTEX
8
PART_TOP_COPPER_01
10
13.051
20
2.3514
0
VERTEX
8
PART_TOP_COPPER_01
10
12.58204
20
2.3514
0
VERTEX
8
PART_TOP_COPPER_01
10
12.58204
20
1.6656
0
SEQEND
0
INSERT
2
SMOOTH_0$15
8
PART_TOP_COPPER_01
10
13.051
20
1.6656
0
INSERT
2
SMOOTH_0$15
8
PART_TOP_COPPER_01
10
13.051
20
2.3514
0
INSERT
2
SMOOTH_0$15
8
PART_TOP_COPPER_01
10
12.58204
20
2.3514
0
INSERT
2
SMOOTH_0$15
8
PART_TOP_COPPER_01
10
12.58204
20
1.6656
0
POLYLINE
8
PART_TOP_COPPER_-1
6
TRMIDX_36
66
1
40
0.127
41
0.127
70
1
0
VERTEX
8
PART_TOP_COPPER_-1
10
12.12187
20
2.6656
0
VERTEX
8
PART_TOP_COPPER_-1
10
13.0002
20
2.6656
0
VERTEX
8
PART_TOP_COPPER_-1
10
13.0002
20
3.3514
0
VERTEX
8
PART_TOP_COPPER_-1
10
12.12187
20
3.3514
0
SEQEND
0
INSERT
2
SMOOTH_0$127
8
PART_TOP_COPPER_-1
10
12.12187
20
2.6656
0
INSERT
2
SMOOTH_0$127
8
PART_TOP_COPPER_-1
10
13.0002
20
2.6656
0
INSERT
2
SMOOTH_0$127
8
PART_TOP_COPPER_-1
10
13.0002
20
3.3514
0
INSERT
2
SMOOTH_0$127
8
PART_TOP_COPPER_-1
10
12.12187
20
3.3514
0
POLYLINE
8
PART_TOP_COPPER_01
6
TRMIDX_36
66
1
40
0.15
41
0.15
70
1
0
VERTEX
8
PART_TOP_COPPER_01
10
13.051
20
2.6656
0
VERTEX
8
PART_TOP_COPPER_01
10
13.051
20
3.3514
0
VERTEX
8
PART_TOP_COPPER_01
10
12.58204
20
3.3514
0
VERTEX
8
PART_TOP_COPPER_01
10
12.58204
20
2.6656
0
SEQEND
0
INSERT
2
SMOOTH_0$15
8
PART_TOP_COPPER_01
10
13.051
20
2.6656
0
INSERT
2
SMOOTH_0$15
8
PART_TOP_COPPER_01
10
13.051
20
3.3514
0
INSERT
2
SMOOTH_0$15
8
PART_TOP_COPPER_01
10
12.58204
20
3.3514
0
INSERT
2
SMOOTH_0$15
8
PART_TOP_COPPER_01
10
12.58204
20
2.6656
0
POLYLINE
8
PART_TOP_COPPER_-1
6
TRMIDX_37
66
1
40
0.127
41
0.127
70
1
0
VERTEX
8
PART_TOP_COPPER_-1
10
12.12187
20
3.6656
0
VERTEX
8
PART_TOP_COPPER_-1
10
13.0002
20
3.6656
0
VERTEX
8
PART_TOP_COPPER_-1
10
13.0002
20
4.3514
0
VERTEX
8
PART_TOP_COPPER_-1
10
12.12187
20
4.3514
0
SEQEND
0
INSERT
2
SMOOTH_0$127
8
PART_TOP_COPPER_-1
10
12.12187
20
3.6656
0
INSERT
2
SMOOTH_0$127
8
PART_TOP_COPPER_-1
10
13.0002
20
3.6656
0
INSERT
2
SMOOTH_0$127
8
PART_TOP_COPPER_-1
10
13.0002
20
4.3514
0
INSERT
2
SMOOTH_0$127
8
PART_TOP_COPPER_-1
10
12.12187
20
4.3514
0
POLYLINE
8
PART_TOP_COPPER_01
6
TRMIDX_37
66
1
40
0.15
41
0.15
70
1
0
VERTEX
8
PART_TOP_COPPER_01
10
13.051
20
3.6656
0
VERTEX
8
PART_TOP_COPPER_01
10
13.051
20
4.3514
0
VERTEX
8
PART_TOP_COPPER_01
10
12.58204
20
4.3514
0
VERTEX
8
PART_TOP_COPPER_01
10
12.58204
20
3.6656
0
SEQEND
0
INSERT
2
SMOOTH_0$15
8
PART_TOP_COPPER_01
10
13.051
20
3.6656
0
INSERT
2
SMOOTH_0$15
8
PART_TOP_COPPER_01
10
13.051
20
4.3514
0
INSERT
2
SMOOTH_0$15
8
PART_TOP_COPPER_01
10
12.58204
20
4.3514
0
INSERT
2
SMOOTH_0$15
8
PART_TOP_COPPER_01
10
12.58204
20
3.6656
0
POLYLINE
8
PART_TOP_2DLINE_126
66
1
40
0.127
41
0.127
70
1
0
VERTEX
8
PART_TOP_2DLINE_126
10
13.0494
20
-11.5494
0
VERTEX
8
PART_TOP_2DLINE_126
10
0
20
-11.5494
0
VERTEX
8
PART_TOP_2DLINE_126
10
0
20
4.572
0
VERTEX
8
PART_TOP_2DLINE_126
10
13.0494
20
4.572
0
SEQEND
0
INSERT
2
SMOOTH_0$127
8
PART_TOP_2DLINE_126
10
13.0494
20
-11.5494
0
INSERT
2
SMOOTH_0$127
8
PART_TOP_2DLINE_126
10
0
20
-11.5494
0
INSERT
2
SMOOTH_0$127
8
PART_TOP_2DLINE_126
10
0
20
4.572
0
INSERT
2
SMOOTH_0$127
8
PART_TOP_2DLINE_126
10
13.0494
20
4.572
0
POLYLINE
8
PART_TOP_2DLINE_126
66
1
40
0.100076
41
0.100076
70
1
0
VERTEX
8
PART_TOP_2DLINE_126
10
0.748296
20
0.936616
0
VERTEX
8
PART_TOP_2DLINE_126
10
0.4593706667
20
0.6476913333
0
VERTEX
8
PART_TOP_2DLINE_126
10
0.7415653333
20
0.3654973333
0
VERTEX
8
PART_TOP_2DLINE_126
10
0.7415653333
20
0.936616
0
SEQEND
0
INSERT
2
SMOOTH_0$100076
8
PART_TOP_2DLINE_126
10
0.748296
20
0.936616
0
INSERT
2
SMOOTH_0$100076
8
PART_TOP_2DLINE_126
10
0.4593706667
20
0.6476913333
0
INSERT
2
SMOOTH_0$100076
8
PART_TOP_2DLINE_126
10
0.7415653333
20
0.3654973333
0
INSERT
2
SMOOTH_0$100076
8
PART_TOP_2DLINE_126
10
0.7415653333
20
0.936616
0
ENDBLK
0
BLOCK
2
STK_TOP_391
8
0
10
0
20
0
3
STK_TOP_391
70
64
0
INSERT
2
DRIL_HOLE_0$5
8
DRIL_PLTE_THRU_01
10
0
20
0
0
INSERT
2
DRIL_HOLE_0$5
8
DRIL_PLTE_THRU_02
10
0
20
0
0
INSERT
2
DRIL_HOLE_0$5
8
DRIL_PLTE_THRU_03
10
0
20
0
0
INSERT
2
DRIL_HOLE_0$5
8
DRIL_PLTE_THRU_04
10
0
20
0
0
INSERT
2
PAD_14
8
PADS_INNER
10
0
20
0
0
INSERT
2
PAD_14
8
PADS_BOT
10
0
20
0
0
INSERT
2
PAD_14
8
PADS_TOP
10
0
20
0
0
ENDBLK
999
*** POWERPCB  PCB PARAMETER ***
0
BLOCK
2
PCB_PARAMS
8
0
10
0
20
0
3
PCB_PARAMS
70
64
999
 *  1.Job name           2.Backupfile name       3.CursorType
999
 *  4.TearDropFlag       5.HighlighNetsFlag      6.HatchDisplayFlag
999
 *  7.PadsFlag           8.TracksFlag            9.ViasFlag
999
 * 10.CopperFlag        11.LinesFlag            12.TextFlag
999
 * 13.TopComponentFlag  14.BottomComponentFlag  16.ObjectSnapFlags
0
TEXT
8
PCB_PARAMS
10
0
20
-3.048
40
1.778
1
A:=AP_ESP32B.pcb <> 3 0 0 1 0 0 0 0 1 1 1 1 0 502 0
999
 *  1.RefDesHeight       2.RefDesWidth           3.DefaultWidth
999
 *  4.VGX                5.VGY                   6.OVR
999
 *  7.HatchGrid          8.ObjectSnapRadius
0
TEXT
8
PCB_PARAMS
10
0
20
-6.096
40
1.778
1
B:=2.54 0.254 0.127 0.0254 0.0254 0.0762 0.127 2.54
999
 *  1.ScaleFactor        2.NetAttributeFlags     3.BackupInterval
999
 *  4.WorkingLevel       5.HatchMode             6.HatchDirection
999
 *  7.ConnectionColor    8.BackgroundColor       9.ForegroundColor
999
 * 10.BoardOutlineColor
0
TEXT
8
PCB_PARAMS
10
0
20
-9.144
40
1.778
1
C:=32.5883827209 10002 20 1 0 0 0 0 8 8
999
 * MitreAngle0 - MitreAngle6
0
TEXT
8
PCB_PARAMS
10
0
20
-12.192
40
1.778
1
D:=324000000 324000000 324000000 324000000 324000000 324000000 162000000
999
 * Hatch & Keepout Parameters
0
TEXT
8
PCB_PARAMS
10
0
20
-15.24
40
1.778
1
E:=0.5 0 0 2.54 0 1
999
 * Fanout Parameters
0
TEXT
8
PCB_PARAMS
10
0
20
-18.288
40
1.778
1
F:=0.635 0.635 6.35 1 2 0 1 1 0 0 1 1 1 1
999
 * Pad Entry Parameters
0
TEXT
8
PCB_PARAMS
10
0
20
-21.336
40
1.778
1
P:= 1 1 1 1
999
 * DFF Parameters
0
TEXT
8
PCB_PARAMS
10
0
20
-24.384
40
1.778
1
Q:=89.9999 3967 114300 114300 114300 5 4 114300 114300 114300 114300 1 114300 1 114300 1 114300 0
0
ENDBLK
0
BLOCK
2
DRIL_SYMBOL_0
8
0
10
0
20
0
3
DRIL_SYMBOL_0
70
64
0
ENDBLK
0
BLOCK
2
DRIL_SYMBOL_0$5
8
0
10
0
20
0
3
DRIL_SYMBOL_0$5
70
64
0
POLYLINE
8
DRIL_SYMBOL
66
1
40
0.0508
41
0.0508
0
VERTEX
8
DRIL_SYMBOL
10
0
20
-0.254
0
VERTEX
8
DRIL_SYMBOL
10
0
20
0.254
0
SEQEND
0
POLYLINE
8
DRIL_SYMBOL
66
1
40
0.0508
41
0.0508
0
VERTEX
8
DRIL_SYMBOL
10
-0.254
20
0
0
VERTEX
8
DRIL_SYMBOL
10
0.254
20
0
0
SEQEND
0
ENDBLK
999
*** POWERPCB  SMOOTH CIRCLE ***
0
BLOCK
2
SMOOTH_0$127
8
0
10
0
20
0
3
SMOOTH_0$127
70
64
0
POLYLINE
8
0
66
1
40
0.0635
41
0.0635
70
1
0
VERTEX
8
0
10
-0.03175
20
0
42
1
0
VERTEX
8
0
10
0.03175
20
0
42
1
0
SEQEND
0
ENDBLK
0
BLOCK
2
SMOOTH_0$199898
8
0
10
0
20
0
3
SMOOTH_0$199898
70
64
0
POLYLINE
8
0
66
1
40
0.0999486667
41
0.0999486667
70
1
0
VERTEX
8
0
10
-0.049974
20
0
42
1
0
VERTEX
8
0
10
0.049974
20
0
42
1
0
SEQEND
0
ENDBLK
0
BLOCK
2
SMOOTH_0$15
8
0
10
0
20
0
3
SMOOTH_0$15
70
64
0
POLYLINE
8
0
66
1
40
0.075
41
0.075
70
1
0
VERTEX
8
0
10
-0.0375
20
0
42
1
0
VERTEX
8
0
10
0.0375
20
0
42
1
0
SEQEND
0
ENDBLK
0
BLOCK
2
SMOOTH_0$100076
8
0
10
0
20
0
3
SMOOTH_0$100076
70
64
0
POLYLINE
8
0
66
1
40
0.050038
41
0.050038
70
1
0
VERTEX
8
0
10
-0.0250186667
20
0
42
1
0
VERTEX
8
0
10
0.0250186667
20
0
42
1
0
SEQEND
0
ENDBLK
0
BLOCK
2
PAD_0
8
0
10
0
20
0
3
PAD_0
70
64
0
POLYLINE
8
0
70
1
66
1
0
VERTEX
8
0
10
0
20
0
42
1
0
VERTEX
8
0
10
0
20
0
42
1
0
SEQEND
0
ENDBLK
0
BLOCK
2
PAD_1
8
0
10
0
20
0
3
PAD_1
70
64
0
POLYLINE
8
0
66
1
40
0.3
41
0.3
0
VERTEX
8
0
10
-0.4
20
0
0
VERTEX
8
0
10
0.4
20
0
0
SEQEND
0
ENDBLK
0
BLOCK
2
PAD_2
8
0
10
0
20
0
3
PAD_2
70
64
0
POLYLINE
8
0
66
1
40
5
41
5
0
VERTEX
8
0
10
-2.5
20
0
0
VERTEX
8
0
10
2.5
20
0
0
SEQEND
0
ENDBLK
0
BLOCK
2
PAD_3
8
0
10
0
20
0
3
PAD_3
70
64
0
POLYLINE
8
0
66
1
40
0.5
41
0.5
0
VERTEX
8
0
10
-0.25
20
0
0
VERTEX
8
0
10
0.25
20
0
0
SEQEND
0
ENDBLK
0
BLOCK
2
PAD_4
8
0
10
0
20
0
3
PAD_4
70
64
0
POLYLINE
8
0
66
1
40
0.5
41
0.5
0
VERTEX
8
0
10
-0.5
20
0
0
VERTEX
8
0
10
0.5
20
0
0
SEQEND
0
ENDBLK
0
BLOCK
2
PAD_5
8
0
10
0
20
0
3
PAD_5
70
64
0
POLYLINE
8
0
66
1
40
0.5
41
0.5
0
VERTEX
8
0
10
-0.75
20
0
0
VERTEX
8
0
10
0.75
20
0
0
SEQEND
0
ENDBLK
0
BLOCK
2
PAD_6
8
0
10
0
20
0
3
PAD_6
70
64
0
POLYLINE
8
0
66
1
40
0.5
41
0.5
0
VERTEX
8
0
10
-1
20
0
0
VERTEX
8
0
10
1
20
0
0
SEQEND
0
ENDBLK
0
BLOCK
2
PAD_7
8
0
10
0
20
0
3
PAD_7
70
64
0
POLYLINE
8
0
66
1
40
0.8000006667
41
0.8000006667
0
VERTEX
8
0
10
-0.5
20
0
0
VERTEX
8
0
10
0.5
20
0
0
SEQEND
0
ENDBLK
0
BLOCK
2
PAD_8
8
0
10
0
20
0
3
PAD_8
70
64
0
POLYLINE
8
0
66
1
40
1
41
1
0
VERTEX
8
0
10
-0.8999993333
20
0
0
VERTEX
8
0
10
0.8999993333
20
0
0
SEQEND
0
ENDBLK
0
BLOCK
2
PAD_9
8
0
10
0
20
0
3
PAD_9
70
64
0
POLYLINE
8
0
66
1
0
VERTEX
8
0
10
0
20
0
0
VERTEX
8
0
10
0
20
0
0
SEQEND
0
ENDBLK
0
BLOCK
2
PAD_10
8
0
10
0
20
0
3
PAD_10
70
64
0
POLYLINE
8
0
66
1
40
2
41
2
0
VERTEX
8
0
10
-1
20
0
0
VERTEX
8
0
10
1
20
0
0
SEQEND
0
ENDBLK
0
BLOCK
2
PAD_11
8
0
10
0
20
0
3
PAD_11
70
64
0
POLYLINE
8
0
66
1
40
0.4999986667
41
0.4999986667
0
VERTEX
8
0
10
-0.2499993333
20
0
0
VERTEX
8
0
10
0.2499993333
20
0
0
SEQEND
0
ENDBLK
0
BLOCK
2
PAD_12
8
0
10
0
20
0
3
PAD_12
70
64
0
POLYLINE
8
0
66
1
40
0.5
41
0.5
0
VERTEX
8
0
10
-0.6
20
0
0
VERTEX
8
0
10
0.6
20
0
0
SEQEND
0
ENDBLK
0
BLOCK
2
PAD_13
8
0
10
0
20
0
3
PAD_13
70
64
0
POLYLINE
8
0
66
1
40
0.8000006667
41
0.8000006667
0
VERTEX
8
0
10
-0.48
20
0
0
VERTEX
8
0
10
0.48
20
0
0
SEQEND
0
ENDBLK
0
BLOCK
2
PAD_14
8
0
10
0
20
0
3
PAD_14
70
64
0
POLYLINE
8
0
70
1
66
1
40
0.35
41
0.35
0
VERTEX
8
0
10
0
20
-0.175
42
1
0
VERTEX
8
0
10
0
20
0.175
42
1
0
SEQEND
0
ENDBLK
999
*** POWERPCB  DRILL HOLE ***
0
BLOCK
2
DRIL_HOLE_0
8
0
10
0
20
0
3
DRIL_HOLE_0
70
64
0
POLYLINE
8
0
66
1
70
1
0
VERTEX
8
0
10
0
20
0
42
1
0
VERTEX
8
0
10
0
20
0
42
1
0
SEQEND
0
INSERT
2
DRIL_SYMBOL_0
8
0
10
0
20
0
0
ENDBLK
0
BLOCK
2
DRIL_HOLE_0$5
8
0
10
0
20
0
3
DRIL_HOLE_0$5
70
64
0
POLYLINE
8
0
66
1
40
0.25
41
0.25
70
1
0
VERTEX
8
0
10
-0.125
20
0
42
1
0
VERTEX
8
0
10
0.125
20
0
42
1
0
SEQEND
0
INSERT
2
DRIL_SYMBOL_0$5
8
0
10
0
20
0
0
ENDBLK
0
ENDSEC
0
SECTION
2
ENTITIES
999
*** POWERPCB  DBLAYER ***
0
INSERT
2
DBLAYERS
8
0
10
0
20
0
999
*** POWERPCB  BOARD ***
0
INSERT
2
BOARD_17
8
0
10
0.762
20
-0.5588
999
*** POWERPCB  2DLINE ***
0
INSERT
2
DRAWING_9
8
0
10
-10.1092
20
12.9794
999
*** POWERPCB  COMPONENT ***
0
INSERT
2
PART_TOP_0
8
0
10
-5.08
20
5.2578
50
270
0
INSERT
2
PART_TOP_1
8
0
10
0
20
-0.889
50
270
0
INSERT
2
PART_TOP_2
8
0
10
0.8382
20
0
0
INSERT
2
PART_TOP_3
8
0
10
-5.87791
20
0
0
INSERT
2
PART_TOP_4
8
0
10
0
20
11.4046
50
90
0
INSERT
2
PART_TOP_5
8
0
10
-10
20
13.56327
50
90
0
INSERT
2
PART_TOP_6
8
0
10
0.2388806667
20
15.56109
50
90
0
INSERT
2
PART_TOP_7
8
0
10
-4.7244
20
16.129
0
INSERT
2
PART_TOP_8
8
0
10
-2.9718
20
14.0462
0
INSERT
2
PART_TOP_9
8
0
10
-7.1024933333
20
11.3801733333
50
90
0
INSERT
2
PART_TOP_10
8
0
10
-5.829702
20
11.4289433333
50
90
0
INSERT
2
PART_TOP_11
8
0
10
-8.106826
20
11.3583173333
50
90
0
INSERT
2
PART_TOP_12
8
0
10
-7.874
20
13
50
180
0
INSERT
2
PART_TOP_13
8
0
10
-4.96281
20
11.4250746667
50
270
0
INSERT
2
PART_TOP_14
8
0
10
-1.9742993333
20
11.8677913333
50
270
0
INSERT
2
PART_TOP_15
8
0
10
-3.9075766667
20
11.3107046667
50
90
0
INSERT
2
PART_TOP_16
8
0
10
-2.366872
20
10.528416
0
INSERT
2
PART_TOP_17
8
0
10
-2.824072
20
11.849216
50
270
0
INSERT
2
PART_TOP_18
8
0
10
-11.6078
20
10.1092
0
INSERT
2
PART_TOP_19
8
0
10
-3.8862
20
14.0462
999
*** POWERPCB  PCB PARAMETER ***
0
INSERT
2
PCB_PARAMS
8
0
10
0
20
0
0
ENDSEC
0
EOF
